<mxfile host="app.diagrams.net" modified="2024-07-09T21:19:46.667Z" agent="Mozilla/5.0 (X11; Linux x86_64) AppleWebKit/537.36 (KHTML, like Gecko) Chrome/125.0.0.0 Safari/537.36" etag="hf3TS8nCwLF3HGEAIeTh" version="24.6.4" type="device">
  <diagram name="PÃ¡gina-1" id="NKy4-hq6vkH3RSIcBC20">
    <mxGraphModel dx="2261" dy="820" grid="0" gridSize="10" guides="1" tooltips="1" connect="1" arrows="1" fold="1" page="1" pageScale="1" pageWidth="827" pageHeight="1169" math="0" shadow="0">
      <root>
        <mxCell id="0" />
        <mxCell id="1" parent="0" />
        <mxCell id="feMogrwZjiv3mipxqyTa-2" value="" style="shape=image;imageAspect=0;aspect=fixed;verticalLabelPosition=bottom;verticalAlign=top;image=data:image/png,iVBORw0KGgoAAAANSUhEUgAAAOEAAADhCAMAAAAJbSJIAAAAclBMVEX///8AAADe3t6pqamurq5wcHDY2NhoaGjU1NRgYGDh4eHl5eVubm6ioqJzc3P6+vofHx9GRka6urrv7+8KCgqWlpbFxcUaGhrr6+t6enq/v79UVFQ6OjowMDCOjo6BgYFKSkooKCg3NzcTExOHh4dQUFDZc1qHAAAFbElEQVR4nO2d2ZqiMBBGRcF2aUDFxgW31vb9X3ESQEVHlpoUlRnmP1cofEkOHSpJNWCvBwAAAABAZT3YeMGf420Ga9sK1Rwccw62JaoYMwg6zti2Rjk+i6Dj+LZFStGtS+KhCXGiC7EtUkas2nY2LuWsSokZWtMGrmrbwLiUgSrFZWhNG/C0jec8tQMMmwFDm7hshvYiTdgflTM8sBkehhX19EMGk3eEcbCsn47wGNawDLYtWPrfjSZcIoaKb+6ZXX/XqF45Q8fZ9Rm87izyUvfjqsXdlc3wWlXNeJ+3ZsFgVqhUnTQ3qj9MJJau3R1Th8mJ0+LqxyjJ8XCQtolphh5ddGGT+gNFR/yJbtSlplc1xFNFLacNDpSd00z12OUZV6foN+4OwrO29OLhCKhHVU5Q/CIsgdWwtJICgTryaFxflpq4n6nQn1/KBqgl43hYOnu6zP27Zdq7jOvrjVQpp9uHbeUYzGhYyfZ26El9GBlXqLvebYbUYLohMqe5VaJze+YLrR/nHmcmWfmzMi5shpfSOrIm5EOXjjU/xhV+qlKG2aZO9K0qoqrInCZeqf1Jtj1Um5/GFX44t0Az1WevalyUGS0KzdCh5sO4woeh7hObqkOFxsPN/brhNqytWq9AzMcnPf5WrhoeJ1LcMO0/ppPhuO5asGmYhiJnPjZh7jwCyV9oOK0fyhpRPc23adgbNchV1bKsmaZYNexFh31182vZH+rWfHYN1dx8akZ9mtC2YfvAkAoM5YEhFRjKA0MqMJQHhlSqDKPjpwTH57m4pOHccB3RlLktw2glZLh6+iNK/g2/hAy/nmoVjTRro3tJm/Jy5zdiKRUYygNDKjCUB4ZUYCgPDKnAUB4YUoGhPDCkAkN5JA3Xx0+vfT6Pz2kMScMTLaH0x5xsGSKbyIbFbOK04iE6Pl5ukUIspQJDeWBIBYbywJAKDOWBIRUYygNDKjCUB4ZUYCiPaDZxI5BM9LwNsomtGf4H2USud13W8fzGJNls4kQCZBMNgaE8MKQCQ3lgSAWG8sCQCgzlgSEVGMoDQyowlEf0SefA6K1XTQnsPenc9BXYpuxsGUYzIcMZsomtGfYiw9deNePl5V+IpVRgKA8MqcBQHhhSgaE8MKQCQ3lgSAWG8sCQCgzlkTScCmUTn2+KwnsTGQ1xbyIbFrOJ674EeG+iITCUB4ZUYCgPDKnAUB4YUoGhPDCkAkN5YEgFhvLAkAoM5YEhFSuG8Xlezr4LhovqDPHtR59h2AxrhssSLtow+z37f9zwEL0n1IbZv2r+ccOvkn2R2vedbXbUUO/bZJsdNfy4B5qOGkbL+2XYUUPdiiTf7qbh/NFJu2m4VXtmt99f76Thubini4b6LfCX+50ZHTSc6PnM486MDhrqBx73j4/dM9RtyRuT0jnD43Mf7Z5hKugVv+mYYdpFn+/h65RhX2dnnF34/GV3DMPsHsHk5XlZbsOqJQ0zL1UtzqmgF74cxm04eiyu26ZoGLr7LPvk/3YYt2Fv9lhdt8w2Nwyn7kem58z7vx/GY7hRpYyyTTe92A9+++hKk0OQfOd6zuVtABixnPKvwnoscSzhR2/bxhMZdIcJbh/GNvSSRVnbPLV3a2yok3fLexBzz6Jyq9Nmuy5tWlhI2ZhwdYrDYNhfuDIstqPX90W8oP8JdTUXTDv7iuFMsZM+DFHagynoRdmYoyBmdFDY1R/WgFhfETLjIAU9ojgxT1npsmX8d3XUKA3rR67irmlg81+nhfbIZ+IcYSYvMB/qg0E8tE88CLLmJJyn/Edk+KPxw+inGEm99aopM6YgU2BrbVb6hsR8svaOdexvAi+wixcc/bh8JgcAAACA/5NfnMmVbMk9MQwAAAAASUVORK5CYII=;" parent="1" vertex="1">
          <mxGeometry x="541" y="268.64" width="60" height="60" as="geometry" />
        </mxCell>
        <mxCell id="feMogrwZjiv3mipxqyTa-3" value="" style="shape=image;imageAspect=0;aspect=fixed;verticalLabelPosition=bottom;verticalAlign=top;image=data:image/png,iVBORw0KGgoAAAANSUhEUgAAARwAAACxCAMAAAAh3/JWAAAAh1BMVEX////7/P4yXa73+fzt8fg1X6/p7fZIbLX09vs6YrD4+v0/ZrJUdbkvW609ZLGDmcptiMIqWKzG0OZhf766xuF0jcTM1end4/BRc7hbersdUamUp9Flgr9Mb7axv93Y3+6Jnsyjs9e/yuN7k8fS2uyot9mQpM+crdSHm8l5kcd/l8oYT6msvNwTH4A0AAAgAElEQVR4nJR9iZazOK8tEIxxjAEzE+a5kpP3f74rmSEklfr6v+7V3amqhMC2LG3JkqxpOCKRar9HHeN/rxX+LcjxP/7xt3ttcvvt3Sm7frnG66/m8TobX79P6OWPT3j+11+bpwutw87mX58d9ldTvL0o+/NHqs/ntWTyx31o2oN++eUGDlXgONobOHmv8/cv6L4/zDaK++t1dQLnQv+6KVMG336d/LpTL9M/fmPfjm94TNuL8AyO7ozvn9Ca29/g2PwX+v8Ghyda/n7zfv3n1fH9p3s7g6PNw6/3bmNxPh8ax3T/+EUvm1+fzPdX+nGTb+Bo5ScUwT/A0ZIvf/wXOEaqDd35zTb7tjL30bDTGnwDpxF/rSubfYP7cw5MY/l8y5UdQNh0v6t3cOLo4zPRv8DRWmp//upf4AhLmx7nNyfVPy6utd7phzdwtKzX/hg1+43bhX7ISRx++dzx0jou8Q6O9zaxMJ7/0Dmod39+fcnf4FyEuf7qGPOXdfka7PzV7+D8rav07JdQwNO+z2EtfwusMx0vk2OBvYOzfN7t/E9wtPGXAvwHOBbRNYufJ9b5UwDwHsn5p3dwLBDCP0YvPy3Tx4zAh5+/v8x44bccEvsOTn2WZBzDv8HRFuNjYf0DnBEk1yanp7LEr+c4jUd7/ukdHM35/Xz7yD+fQSvepzz8Inb+6S2P49rv4PSfn4v/Axwt/zAE/wDnSQBIenrIuvzHhW32pig+wKlz7a/R3D4tUfmmSTvyW+pSefqdc6yGd3DGTw1Ziv8AJ5XvOvwf4HgEBCU8vT3+1HDn0b9zkw9wTOPPdaXF8fvP9hu5Sm+fRgfGz2mKL+y49Ds4KX//0CUj/wGONr3f5j/AcXDKziIuP1nVeQzF248f4Gjx8Cc6n8TVck96Ts8/oMNhn+8kfbH4d3CsD2JuVtV/gaOVb4vjb3BMjgulft1bQ74Rtv3dxrtF+QSnl2T+C57ifc1FZ11RfCpJHN35A/3red7BMfm7irSy8D/BsYzp9NPf4AR5GODCPRBZvszhMaL8HblPcEwaM/nznUOa7G3l/Jxk8Ld5hXE5U3GteCn0d3AuH75P6vzizL/HG234G5zOi2uUzWPm8i+L/xj+hz76BEe7L2ZBhPfLDcAx8bM/eyIMl6r98vaInX+KX3T6HZxP52p0/P8GR/NPUvk3OEPdTkjTdyTN34TkNcxPl/8XOD2oR3OR4v4Fnis/CbN+mrsvlB5G/jYR7uuJ38HR/Hep6/3/BRxbvljpn+DotCnwbfl+wf5D+b+N7pPg/wLHVvBdFib93/D05AV88zJ7we2bCRjf6dZpzj7Aid9dtGn+X8DR+teXdgqclaS8gWMxXVHPw0Px/uE7XPh/gqPFqyq5TPT2e+3nr4vPh2ozefH5PnWhtxtpTnP2Ac7Pu2eydP8TOJqX7Yt8ULp+jXS8gQM/1Phy2cIN+r/sYM2qjzX3G5yDCNnP7PYh8VpysDpLHP7f42s8w3pfwdHJ+H6A071z73b638Cx6Y5+XiEZqCVe9g0cuHKA39u56x2m5K+wAzq0z+rDTv8GR3vFZC4RvX0ugZ3WeXJ/pC9BHBztu1cwt6/XH9f88B/i/n8D5wjt2FyRgYdE/+QNHFiwIyru6bZOVP2PIGDEtU+5+gJOfF4kkXNz+pNgpBsSo7FHPkz5lZDrH0GZs6/xAU7wzp/y8X8w5WrMqx1IOZKBqxPijZ/B0XmjpRTuftruMZ7+uhSsuKc2fPz5Czh99vahIL859cuEt+uT+G29hZDK30EcHN27y665J/H6AOfdudKd9H8FR6/UBAVhDk9h8Q6l+gwOknIbbchkqJu0yd9BwB7e++FJfwPnwt7vXQ/Km/Pc4VnDyYEwN3Ce8juhpu9sy5In8fsAJz37IdqFWv8rONp4w5tZ2qFGwq7UyxmcFlS2jlGYrjTw68c/dxAAiO6D82tfwdEo/2RKSX6j++IpYJ5Hd9GeCpxvQRwcvfx4jHMU6QMck5xZkuna/zM4WidtjLMimWmXEUX+BI4lHZhSZD9doUICy6+oyzECvIfxY3uA/76PK6l+xzxGXxrd+gxsAo6YbuB8C+LgyD8U0fPs03yAY7Oz8Fnu75D73wO+X88atHdZkHJ9U2CrH+dVCA5uPnXFjLa1+jsI6Czqq9+47OcSUndHG+OLjm1iwRYUqU6SjjYrOB35TsfHz3hbe9byH+Dob7HotPr/ASeV0YWbYO8u0jIxbBug+Ph4W6mokQnhnkc34y6S+XecM0EJBA/g7Q02+b2rkORa9NU6Nw/pLpYWuhRldYnTNJB/+HFD+/GLt328D3A05wwGfP3/BzjaRMAlaHIExURIalmao1tN2iV8WBTAqRYERwPV2Dt/XqVc7zd8o3WW+B03R5kcqq+qK31I5hFKoqxZCDekeHx7F672D7Pw7nl/glOe7wkcpf8OWZyGb9y1zmgy1pcSZnoYHFYtPb/kMkJwGlnZuHlWxs3w+1m3MW6+zftGSCrbX+/sBnSz/3rslnhhQSknA/Gjv0zj/KmJwMk5/fQJznBW6t3P/x84lrtMAgAZjGwBhcob3WPmlWaV009gnuc477VYPEsiv5NVHHG7ffebxh7lbxC8Rf3hr03TKa9613eDmtL628Y1jOuvIPD7RsUnOG/8Yln+/8DR5kzUZsUpkH/em4ZXDCEG3zhvXSPQSPIMe0a5m0bsL3CanY70b5YokL8jY3c1j91fOOfwtSGYT//ZGlUxfxvxr8U9vW00f4LzPO8mPKb/P3Bs32jTJisdao6c5URICTp58VuXtN3Qu1pkkNBlIMvDzx8K+b5LSPM225Hx22qvQSyTu18vVTCTlg48LU8fOZffhiF+qWnvbbl/gvPmXIGf8T+Co9tWMJU3Tpm8uZxTKv1WjterSZ3F9zJOgtmQeco4jwO3Be0kbyIseuvTTU4PDWm97Yc/q/xXsoqhRMbmOf2NjrmIOsmAmDTEzd2Gm/rvoUW3Xx98NwOf4CRn5wpM13+Bo5tWUoN8GrebYK2zuFFfhbQlMANVnjsOBUlhBOCqnKIij7hzuEvimQS1l7Pbjd675IzQ4yXW9KxEi3v2K4a3LUCe5M7pb7Y1wv0wRiX3o4zGPA95w78FAO3sFz94p3m/wGnoaYaq9B/g2CneBUjsTbIsLuqkF4HT8yClrkFi7VoQ1/HCWLu0ZVAS13e6xLDiKI5LP1u1qJVMQyVuRj5M42qi0lNsJT/f2bBUn89nivU31QjrZ72h5PlTVjBNDIxCEDkwKXfKQUxjPn0xVzMvPhVZ+h5G/QTnjZkS6zs4Y1TEjguoAIGf6yTdPlLQoVgEY6U1/NRUeC738rxtS7dy65wDJWMOqbidB5dXkpRuJZ0PKoE4j7qxHyfC2p6Xvx/RT4rbuOv/gbal7D491DS5zjAFcD+NY/StD8gg3KOEL8iK8Z0SJZJG9GOtBu97HuGHibRPzNSGW/0KDsqK3z4PVPaR0yq/04hYhSAhH9nCwXJRVlF3DCsiCxo+87sNM56/X1W3gsKn8sY4fQn6m+Fwguxz7pPN1GBwozFIVv7ADR3Pf20lcykrHFcsRWinU8lubIheD3dhbT66Hxf9iPU5H5tn2okiInH7Ao6pJda3NYyhCtc1w9B1GC2SUCdWPHGrp1PYMkqnToJdbzIMrH/L6LLTqJpP2+fBOVxTjeX3fI4tj6U2fnnt8yOscpLzgmyLuPeqm1EumwA9Mj1vyo/7uL9Fka7VZ1ICf9GGBm7vCzixVj+/j7ok5ZWWPgGt3LYaH/2Apj+zLawW52D2MArig6z+fI10maQ5+VzpKXhwca1feVXlduOdkv38M7Mgypyc+U6c6SzeLfC1WfKbpI/I1KL/S2GtPj/SIOgbxDYNPlzAU9YeetW/wYmEJr7SBikFG1wvq3OWapUMtLCOx2EBVzasNTQDSmgf6AMuX7cBPPzMAZt9ujGbXbyPSR7FRldX8lHKtzyqupJgpXIGpvKZn9W8ZkYxkyJkHUbI0/eo0uXdzTDZ5f6udYbXDKHg/gLHMp6a9cdIqfUUxOD5oNXwaO0SJ5EAHVeHak4UOIpc1N92gi3pD+fcEv6aRtPV5w9vbBAbwIlafnknX0l9NZWwChtH8x0rRL+zffuonhQMly9M0XtSYvqWWqWlrt68xw9PRmJpv4Dj/yOpJgL3kLYjT0hjcxM8wzhJccPPNCxUwQoclXqcZF8+/Ygtwz7lloQvWUn5Z3QsdcvtRteNJifttk/aEzBQvOvaL0Slt3Sals/901QRSJiid+XXv6/NEUh6/CY6iMg22u43ONM/EmNM8TCCyrqCJN9RsQf5PVgl1a/v0QaOivQ0XzzB9Jbi9vlrk/wUd0qqT2GbB2/7s6XyJhz4cAh22O7oLV5FriWizic12Z8pO6G3XfXdlzo9u/oOBx3b8/PWLx2FuvsDHOtPJxi/stQ6xvzKEGC2sxEoVRlYipxGeVFs4CgSmrLf22uDjwFmLTpC/KeIJUzpuyNqiuZItFExDqcBfV7YC5PxblEyACygNFC3/aZpn+sMgzyO/Hwj73KUSPzK8iyxbxnnn+B8Tf3Zx0RM4FwedcY0rYXRY5A3GdUuo8m9dgNHx1ip+Ttq2aBXlQrzlZhzWnuR/5GWu4Qm311qtREG4GiBcMXjWECj+g5/ddbm84IBf0t9vcV1+43pvEXxbeqU2ilMoK75uow7foKzGOqqw9fBy2D0Y9yR0zCqj96VkUQrmnf62CkWEpYr/0XnByWxef3aqxtf5mp6aMnt9GadBKO7O0xk3MDRinP4Yg0MBTf1LvMUg75k3hrvxCnyT/Er0zhP2ZCvO8Nh+/pd8wo84hy+gdNsFqGqKAe+9zHAIRcCBNNRWgOzpX05zuuj9iiiKziKsPyqI9jc8anUencH53Y8EFwlecsCotrk7U6icsIUOBf6UlPm+v49Ft298gM8el3VGeaCdKelcM4h0Ppb4ynZPM3RybnS0dF5A2ePSVZt9E0t203BgMW0a3wNMGrluAWsbeZcNnAeiF35uZngr5e2hHUV2/SPr9Do/QngvDjGFbyMOMo2RqYyQxQ4gOcB+rKtuo236cd+VgTv2bIF8hG+5HUP0WntmaIzyWrZy1f8z3Z32bLQ7T2Dc6T+3MEPosPz07XCZKdFcJHLAhRNRLRJBvsyHuCzKzgLsrXP3d5mlwsggfd5B+dwA/1IS04h9p7oOk33iK5CewVH8/ZEiivtT3/FJ9+ceAu3o1czgVN0PfG++URNfUf7KVdnd3wt1usROgrk+7JK/u94bTfPoQKA7lPzBpDFtR+YjskI4SJV3cto35REIr6Co8zhJ0WOd5sAfDGg6wOO7AjplImWGC9LES6aRY58iKJ9gWO6Gxb9bg8PX3KtsNJzFBp9dZKwdqh8Ye6f+K+0Ehlk60XL1wbj4TF3mLL6AueVZrKOaxoN/CZ52Y0HQCarn/dmHBfGa7Omqez2/EjcG1/vU9H9+t2pea1rTNzf7O6Y7f4UWriE0Ne7TTTu+46xMvkbOMBD1ysddOnYBBqVcBarAK2S28EU/dD9yfXskBALdCfLd+B6eUzlgd8dtesLHO9bmhq4uo5xE/mSmNfrVe9clombNBgnUlKyuI+Dnfj9Bo6qDHvnoiZ9ldLBU6HZx6fJp23WcTcpyY73YC4+iMu4mXrFgHZwtDgMnsXdMeLnGmJsWB+MjWWZOjgnR4nUWoGFxLI7dJl5KBQt9+HpJ9Ce61WdY5fisTEhm7rLCZz+V9b8NnQrmEPjRiqwYUb/YP24UEKXcbpX4GUd7iAw1RWcFFVg8+Y/+PkrrBRlWrIqwtHZzQfedhLvvpbyI8tIszfLqyK7BzgWV9GmOJM3w3lMUyVut5vE+aLEi/i2iEYlL+hZ92Jfri/aDowtMkAhLMYaua7FHqTdnauEhCfH02R/bsMhQGZQMJbPWemy2jN4p27bno1XlBaoygqOheC8ZZUXhpUeKUTgXOlr1sCYXTa/EGttEn/PVxxwMw/+om8qSbmLBzia87RM+MXFCpaYSxE36RhEz6VoH+COl6dVjnDo8Jg75zoclFT2JiceFmdkakFd1E84dg+vNdpTyMLPfxP+95E6BDRwOxA+HQ9evEwrzNIKjm1c3vlWgNUI85G87S9a267g7Hweqw4Sf6t3MvGaKgd/izIrCTqBcyYf707HKW1LZVfhFKV8t467349ugJ8RuGAfJ+sDdGRL7t7y0SyXTGB+N3CiL/Vbv0YrKVLDsx8bHvIGD7gZDmTs+ou2p0rdXej+TiCBjcoXBHCm9V5weSXlpqdmfF6ljLcdY8XzXuC87a58pPG98io9pJoqm4pEW63ansxdcP3ptrjuwVuYyer+hGtuTrCmhy3Ejdw9wP5X6s/HqN3K4XTfKrPTfgmPcL7NLhs4qrb3yOa4OOv39bsPcxGNXgUrOM2qEVE3JKWl9IRp4McVxV1WhaZjuP4Fzls89d3rPsWuJ1ShqlgZXFgln8lGyEcZgHut0uthwepU3fQch2rRrZlvNq/yCCjLCk75r8qo1+jjDrd+mWWNT6/k8gZKcJcj3Rk34xNGuv66TW9nQkegCJyrYljBMYnSiBjNTMK1uLlTt6fQ28UCF9IJnDP5/ghCZAc4gQokIkWtklpdstx8I95q4T1RdZ5Yj96ojLXU6FU8IjUUssIve1CBCpzPIE76fVhD1w0lmakLhtzN22jsODuI7RBNgwmg5YzxyqFOOwXwke4IJlh7KC+gWmOo5C6YIlXHG9MVHBCXRBV9rAV/6RZvQDhe4PjnYPNH/PCVfZQytE3oW8S1jaGvVKz5VC3VOmEPSg+pBVsoC3/3agTBFFd0RUrP74s1kSB9C+LotXb7Yxh5tTyZ4cZdkF5xycq71RtlfPfaeSkdLoQUtGyLnyGnIYcfwMi+Lr3sbrYYNST/yGOcAsBLCTjeAI7M7EWqmo9mXWHbLjmSjxc4b0n47Vsiy+Wl6a4VVpIhF/TAAAy4SR8jOMBY0FhtpBSXna6KERtpoWhf8CujrO3i/jkocKoTnbXrSmr1H+NOQVL2OijLu+HE2FWWZxV1mUu9KWy3TR1gyLYVuVN02uzQdgr+aFW50ag2Pwpqzj9gvgAcg2ZAXdTH1YK6bpQWyccLnLftlftb+Mo+tW0IWbuuuu6OUShQeUBTVQVA9tCWbcFm+ORrMWJYmFg7VTWgIJ5x4PdrZtfyuqT9rG7/SNvuHmG1rLnn+sLEE6d3gktfL7Z9Qfep2KVcGZon3MI5npJsHl5C9RTsCIJzz3tOWdeQOihtGtNmNe7bHsWmXvARX+A8TsKi8zeFbBovD6j1q4vKFwRrbwkiYq2asQJAm0GAyabUHYkfmFCOeiCGYLJh7QXE5pYfmRzAWTUSjktHb/6/Sg+XR5gNilP1VHprlMklqw64YrzjSFtXgYRy2ned9udaDdcVSGAVITgpcxmHMRFBfIvwRFfK5mdbjNuiQfZ2gHM9V2r1zDjz+oCQcree0z0LFA1quF3LxZsDYSS9TPFx+32buCokTgOmogZyANekFZVnFDa/+pHt2sAuttu3F/Kteuc8iiF3GVjfpryV2ztnf/MeUwKTOG7+wJrNgNY0OafUmsb20D9YVg8MOa/KuwvgGI80poTzIUI3sjM2+rQZ6qTcwNHTrpSn+qa0ehY7J9YufUxYWO1BhyRbHiqh9ylzp/QjP38unE06GCst3PHlVv1/PTKZSQsMo7WpCDLq8zhHtZ+lcbVGBs1CiOGfRNCsfUF45vC5kNVuMVI5bhthEeZmWVsJXUquG1LWW/eW51qBOTI9NeynoJnPy5zGLvdBiHxzkcSJ7OgW1e36gGtcuWGBlqd20GboArf7SjJnIUeLVU+45nVs+S2jg1uHxroQTJawuASfySlCkdKWs8I3QuVep0fJFTgoBZgHFcEwMu7TGqWVUqcBru2XVOC6tgrD+F4xuE9LcGe3bJrYqBWSdEcMwxfpfQVnxozqPf9FPZUiM6jhTiP31ERXCVAr1oYU1xTLuUcS33UatmRUUrDuWyQkXSOqhSGHPOQ34tepfsTlay47P7pQX1ZTl90ML7HzpnXsWK5qzgholTPTlLbJIyp5ZpSzH6BT+6rQQu8tRnsOvr5oZ06sSzw3NBHSAPerokB3+pbI9l9SM7bujc4NJnfyjhevfZeIuDs4Oabba5t9UVx57dbxHhNsJJ2n6ZkPE6X8qeWwpvIOTB13uemQ+MrHAAs8ylXpmGy8WH3Lkoi7VZtsoT7VsCjJb7Gl/XhX1wpyIUBFYJDTutAWHL4W3wc+Mk3yoKPPp2P4Ka3be8hp/pw6tutVHdegHjoX9B/Yvex/Qk4qf/EeQei3PphxYoi/q5Rx+mBa3Eeg1ovnPGD1VPuqt/mUbeCYPMAy083zwxCcJdV6/SD4fuXC4uSMZHNP04GHWQzWKMord4xEahNOqZua7qLcEj2TnNw4TG16ykcGP8QabkjBU2JMlFA33sgFOvfg/kfCh3XzU9U5ocLlBuGkTo28lyCtrmGQI9a0RudN6mNkg3OS1/CunNQsHX3GwpoSrzD+XlBWXQoJZm39Ccu95sLiZEhGHF5+pRs4gaPiOGs8REfCH63i/9Empg5TXzxCIwEXj2K+HCvNR0ZJ2xrcjWewXW4ZTo5GYW3ohTv5JLHLyPJO4NC+IwyrZ/R8WETZUX+TZNVSoHBtbXSdulXy6D9FYzbUqe4xYyXQANMyX+X+W7JSinvtHiN1XnGXkepO/VtO3Upy907/rIzqY1A03SFVJsFyF/AN4jUNwwAfcQdn8UwEZw2Pqi99FNuH3qC3gKQvpEKmrXFe0KmjTLjh0AbEcYWklLKZkBjLna1QChvXyUJB2l7s685lq2ZrcS8XPrU7adF6xRRwB82ClcbvUQ68B7zOWvoD8TMP7rvVNsd4vbctNpjcJs0WHihnNj2nnIkqMt2w7QmYv+/IjD8wse36ZHZTz+BosloHJ8BxeRvgwLyYHZywv2Ap0ZoEnbpX7bLlwpj8PQcmVuHH1mBGVMUxSzVaBISRMsSsYgxhgE1x4SMOrIkx7OHGx1TMl0XmS7JKT0s6JSq9fEQtYexQIZ2igKqZBWjt2plcf9aeuUZBTxKxWEY2iwAMyrEBfDRCq8Fjvw++WHJAb0LfJsgsMfKaf9K+izYPZcakQUDImYFDCELzuCiF4fNA8/2pgzHByx2cC0l1/Ka1f47iXlutp1WVbzUgtSwKbuWk9Pn9R2T8yTW9qp+ionBPDbia/tI9vJ+C0PKiNh4K2hHOWBySmwyLxNRiJqXTds7NJUIsGSe7m/6z0hdsg2Jx3ZKyBUpgi4JqvnwuFQfp6+jD6IydiLy6Ei1yDInrxokMtA5Vgzdrfha+O3JmspRSc6swbs+p4I5Ba3zWRxgaqeYQGMwlyGY3cPCpkDqv7jTy/b3f3OhcnOzEdWZ4UPdePTl1fVpcfHnHEM3o2Hewsvhx2jj1JFiPF1GCWJG4+IHHsPoCADJKHgSLD2LcW6l1B9kJ90RUf0MJCK/N7NGpnWeLlm8CXWBfpc+r9uG6rjXtYUqLjXvEAZ6wCQzyXNhV+UCw9gJZjUfCvxUUJQPPe9bsz5DpBdxRzEsFhhRGlrBArZl+hWhs4KDfoNaRChpgYv6e0QBSZFf5a/crW0gE0tO4nIJq0XTcHmm76L62IsqSC0sMLnimEDaR0aWwyHZyYwVLvsajauHHcVzNUa5l6zo52i1glCFrnrHO7y3yIVOLYqCkFgHiEM5Gq+3pEqmESWYGsBpQc1iowFjieOi0oHWJw1wCX1YjB7F1iuAvox7lt6oHf3LJfGWcZ2FhPsUGDpa7qkiTKtODV0eSErY4M6u8j9ToJxoQrwVns/U7leWFlKge5kK74nw+OovRbK4rOiI4jQCGV7C4MMThUfWbjoyEy6o8h2lJFZE99dGphTX07aR5GPHCjRC4VvEwRWll88KMwNx8t56WhIBFCx5iNOXSe4YBFgojSlOp3NGnmzmOk3PwZ5J/dZHS9D68sXtHMxGamhnLXgXAV3B0lBoVD8figguxXj6VElKLGnKLCfkJc/lYOSmxbMyfQJlrHFgR2A8NYAoYn+siLNrlEdxJHPgGo474eR4bb92+G/RwWbbQh/N8hjwwVVHm9heL56A0B7NBpxsVC4ix05uicFgMppJe6tVIwKJJC0fQGZhbz4hBlqSOKQbl4qfKVLJUmku0pyf+cwSgbUTS8KyuGDU13CRawbEwPO2jS46hUsycmY9HUERhlNO6tgPeV0B2OS1BbLyfNaRtUXdcwRlpLgXgSHs6k1tVtnAxcM8WX5ukF6VK7+0UNCXPWHKOETUpaVxH295n2jKWs/Bh0JnNaxO6CgTjYhlunjiF0YV3zVfipzLYL8kPqXSLt16okhEwSghukFp6agNgkV/TP38N55HDwjZzWabUtES5g6NKwGPEGg1VB/SB7uRji4fPe65iDhqZsy66qdxrW4W0r9i0SYFjuxzUmWlnS8n88ZL7uBnM7Ub6FKsveLkkR1nAhZdAbGUK7zeTBzGMSqURAdubTQuIrUWlQK0GxpJZfaUl0rlcaCzq9NabWD16BA5NVqOHQZhK0kxcbcwLlWsPJMn8yGP9a1gFdSak7VEIC9zsXeD4KzhIjEcWklTD5Faf269Gb1umPwYjVSlLwdw5lpGm8qedGhQG4gqfUuBc2IplULUCEeW5Wzc855U7JNfm+ciIFMe+BiU8b1XkyF5cNiyMqmHALdai0p6kqfFpq9QkOlBSP7xqAVCTCdSJ2f8f3OvRTfEunYbqeTtLx4JHa5ZMqLA7sQNB/nNHD/N7fcmoEYHk2AzBsduiGgEcDFnAHV5yo45L1dvJoHa0M8ujTqUhjhrUAVsOFkeZ+qejmVhaVDjavqzWmIfuVC1M9Zjn4HVjCVO7T9B4MG6d5r5htQVMmsCYQrp2I7nWucyZlz032S8AACAASURBVD0weNTfQNskaXahDSYzJKKtkViAsR+c14Z+Qu6xJp9gVcYKlLs3+4YKcnXlLCn75IGfww4e3OBt4lEOH75ntLGxAOQ+gf3O/W4ByS2yx2KTySbFaNDLfTcur05MBbuD7fWpmQ0lFt9gArspUl2FtP0NnL2HCnDWRKcLYD+JhbOBvcJ/e1S6aUlxl32fzUSomIK151PotRHek7UwsrslftCXqatVhZYaA1Yahbolap10xaZLbL4kImaC+KhxbnPP+UqdHEYW91/b5Jo9YtmLAEYAVo7nfjbJ9LHoVUCuz0HLCvBmwc8Flu8xs5cdkomqPTZQm8OrbdSWUFrpPc/HLlQGTgMiggGfAxznSIngXskHKkrqRnkNrnVY40I1+wcGpzSrcyRxRFWEMSOttX1kXyVTbvGArU5Gy/LoOddDZNgWVy6q5d7X6BadLLXj9HC0NnTnNFbbSLAiudpY1BrppI+/y5zNpCvJTTjeso4CfCFknAkdKTPGurpk7FlyN7R5oVPH1x4ipHkF5HnXx7XYtV5jtLhZBe61IxNbNCrPeGSqAe8Ozqs0oibgglIvIp4vHw39eebSuHehvFX0adfhTZS1DV5QzFy63765OwM2D2wuKkkxRqiBBvaeQEFq4KKraDVgfmJHm8lGL+Rs8hSp35ralobAE3HAWvtS7FduI+QGcYf+RX90alkzBhoFce8OZjZxXjokpGGuT9QUT50XIFxOxPbyqRiY/vqyIIQ+FwrwYveodlhDGlUQ1y9wjsYnJqkv9gxqGhZsCHILlDstDXA+x+uTure8U4h3PKsysnsPR/5NTcFk+AV8oIKHyIkXRtWDXvPDiwFNZLMuyLYdp1ZwesH9Ej1Thildezw00nrvdLeOcB9cGKQKhyVqzAsOq8qBbw+p38Zu5fZJmblzaCy9EFMrfZjuJ9AyJvM6zzfl4TbgWqnguOOHgyAOwpZPAG+gCFYXYxu0HZw9a127o0K/gF+A2szpFxGPEwkVzwEfvdmUy72O4rjdc3L2UjLsQBM/EzpTUeFDlC55chL4J/+3k2MgsuPBa+7mnC4WMAOviDN3zcAbhn/WOsBsjM+2BC9YEs5d9DbzzqkIka3DQ3F5yro3AtcKu85gswuoStdlbeqIzloTqpAd2oRMaIfule673M+p1oObOsxKv1gu5iVv4BytrJK1Q9EoI9roeaQ9fEoOKvbqSOYE7TREWxqJttcHBuxiGt5MjMdmZ2YCpGl4KzxrpdW+9sCDOOWPWJKcAdXh/lKjs5LerOffTSfOEEXAOv2ifVCYl7h0IsKN4F4Rv9K8it64aZIUnKKAj0PITLAKT2smuGOscl4TIfxLcaesiRi3bBqaQBEbsrZMGoS3g2PvrayOfJVWcnkzRp2mljjyB46GKZMhiQ9S2FbKhm85f5d8sSuXsyMY+hQ54Zl4D3fGvBNs1xi9bwtds2JSpGpfZeYwtXfP+tbm9OtIMiS91dQb1cKvAw0fg2x13hfCf5KxAa/WKUUIXvkjTu1S3qQhqV+UavXOxK3oI287k7nAXNmAbRT8XCmYACvKN3CemxQXWwZBYHi8mEq3NMz2lWytYizXtPZJO1HqisrfFGjYW33huwIWSWone+fE9rZoneF+FAJeQtF69CbLLr0oyUHJm9Z+i4EcOxkZY/jZ2v3vYQ631qKC5sZURdTgnC25thAC6qGNZ+5QVjLaMHuSsuI1eOCT55C1x6rt+HeX3tvSc8Eyg9CE4C4ERLUt0DNnA8cwt1ZW6ZZm1Qilc+acstAtom30vmf1P468kQqcpi57DhWReWSbaQn0FzjzVOQ5SKAxqbf7ygP3f7W8b3DBj0suZdbOQ0S6ywQ8CVWxSqv1pPdX25nvowbfZmJWWdzJ3fJAkci0wcrEwOTAEB530sV5Dtq2P9Io7W2rpmEFrUBjsd6K4YkbhnXpzmoKFncDh6RbzGFT5im5454kKNe8r9xX9SAjwqD+M7WqzHRUSYXdU+ISyWZ/LUuzad6AzkFVSQy1izUanw+6V5tadezKioaCsn7te/RQAQXXYV+PUfhzjCK8UDOhBV0LA+5dkmsTuYWho10zENREzlgeNR2uWv4ocCwZ1uM/KgpOJxG0rpGCRmv/CnTDFDisX7fynmtk12RA2dBr5IFjPuO02UY6xLPhK0aYZxmHZ7eAapH7MlFL60SuQpGGoGFrpY3D5bbHmn/0mjk1a7YTcHADTP4s0TiodIfAcMm/2jn/Hh74RsaSuqqTYxhovVPfgYkHOTwm+LSdiPIefaYj5KKFDAABYk1dDiZjuWdAJJf4BpcBXUdX1wIUrALHXfOTt0iUnanwIV0GMjrpdMr9A7c84KpRrZkTkUSxYVCVXoGRwLHCxIaijdvF+fnxqzVR+uK4GIU6jzeXKYo1oJMlxhzNtdtTnoWd9P8HY7UPUFRl9UM4wQpYBMemflvi9APtmsGQdlhY3p/ByVlYBMB8aZlNNKQVU2GjJgYfFgRszb8dum1ZreUMd2Vm9FKFrmwueZYD0zv1WUDXxPTVtuY9zvmNdz1b+3bh5S73m6cty4/Awh8RrLWSLee1m5/RSd8anSX+01hyBwv81khPxBYPs3T/55VlG10HDH0uTRViwKxOj6wd2Uw3UX5JSXxccQc4Fn9UhjTK0mlAGXUha/m6d57ewUhdmKIusPpXcBRL61fC7q9olHIBn4LSOs4Pb23N5JikY12ItZQjOFWrXG0B9lpkcesUhnkFXqey/RO5UJigc8vP6Y3eNa6I+jzE9mgqr/NCa3Qn7HUKPmC4fAthxHmDZgQj53bmK3ASY8tpCNfsMIurBMoDnAR3Sfo2N7zU8XGnpwLnd1HFJg3M9qKMeerqqynH+7XXkqq7SrLWY3oHj5sGuRaIG20xGKpSotQDVeSRo103abje7l5mk4ZAw8yw+MnWciuTL9gh2sz5vV3qYLRMW/Pf/AILdP8sXDJhUQRCR7duzhNxuw9Vzqow9oopSlKVLL6OWqZ4Rsba9SoVC4b4bLptkHkbx6qVFT7AmQ054B8St2R8Bn+dMYxruv4y2qOxbFF4lmLe6EUl3hSK0M1KDvWHqMEq0njMtewHrMqNxU/rfuzUezIuWKA7znb7R+Gz7uc5TAO4vCqZwcsuijg2xOHK2RTUeeOE5l3EnZjy1s0U8jaLtDVsZDHQAO9JFsUDnCYMiUvDrXL/UUx9krAaHcG9mC0huEF72YuCdsO4Zq7v4OhZNLkSk8UeJKce0FbPMk0rajMJADmkXsM+frSCM+4UZ1HJZvpdgjnGCEiYeehdmsFMb+LUuOGJe43+USP1qmOKZxq67tBEeLO9bEYVzQgyzbbSsa+7kvKTKUoo6yogAXnTrimaS6brq+fglVraCnEfsQZkjJZVIWI7oSaJpnkogd4J7IiSieCSBm25hniYis7vAf+9Qega+NvBSYE2XJ70BuyIZzEIzVEuYgVz7hqkVOGG7gerclPjup14MSnafsnZEyhfy1wgmGJHJH2yqd/Hw9H17JUG8WIQsOI0QEfKBzyTsdfpvGq1qyg42nDqyw206EjYnAW1YljY2XNtJrHW0JkLFfneFUb7GFcTcVpiRsHTEXTxyU3krQdr4jgqYQfnqqI3OzhrXO9aZ3J23NJxyTlBUDOTlijVMjq4P4OFU08kpSr2rlmO2h98krDPTtFeMO5kHwbJtAQs8O5rHS09TaOyawKyPvCqcktNV9KmH83ae5jTbBMdK1SdZsdsMZhYq2PacE8OGTZifSlJ6XV9Y/4dTk6pX4/WYOSz6jdV5q/q5x2cdcdzB2ffKNDjgVNO87v42OSI1Ka+zTHzdp41C8O+wQ3vMFXJfWCxC1j3xf3ldmo0P6JNPU2zLGNyyzo97qaRCV5quNOYM1j+iYpMT0cVSw7fEK1CH7E14WF0AjFEVQiMdcbtNBXiPoovwWH+E5V9LGiSoiPyJpcDk+OFqvncwAHVv6mDpxwyCgz0efvwcZKbKpf1Y9Xsf8iRhSNeDUMtm1CapF3OJIlfhWT08CNIkZX5M8uiTKhpOOR4GlKHX7XGAF/4x71oKl89JfvaXFsVIgHWvZu/yiSAI5eAuBgYRAFU9aBb1S4ILvnvrSt1eFAkdi2cyOM8pQMcVfCzgTOAaTD8JbDhxmgYkhmjF6dtcxwRlmsUxh0rXLDoNDVwyoJbrOOOsxvzm5E5KTPLfcm8jvrRO+K6aV9VyfhgBo3MdK828zPwfeXsueCeL75mqsUL7tkGjt/iV0hmpVzsWRSjExFQysjaFAXCIoJxi5FeePnZpejbyGswk1W45+wvR/L+AY6awhWc9BaM0+CQ2626c+5nT9T0Df3o3VYAIoG8g53FHVRL8blIxPYlzQ1G6B2Er8pEM5Js3drJiL0Pvefl4mAhhgAFJG90qx9IOZ00qxU0D+sQFqnq5l4YzlbJrE7lMdkyOMbBLIEG8owtOqw120ERwMWmQNSQ4NXfGpd8DgC1c9k4iwH3JU3rOGnpAEcFW1ZwSrWEdCvo7rSqSNyrKI2Vf2wE3bmJHCyKi0oHcnmxnr5Bqgr87GpZcyRDP+QVj7fBK7oPh7uuzyKVgjcm02Mtk76WZMAEIm6Nhiwfg4bMaDRoG65frI5lvIOWJz8v/QquQkZSPP+j5dl9wi4Qew+QTlp/dxM9DcudRN/em9AwVI7OkXt4gKOImAInuL2oZV/alRBr0aJdnrQroleFlzzWZl8keujOpbhVHo5QsLgHhZAWrhVXB6JXfve28ZMPoAWr6OjvszpSsSQqvpGD49FjnjZ87yX7cZNcXcNEPhVhHPZcejCA8BGf0EciaQeTA47t1mE2uEXXz95e34dPeN4R4frFulfjRh/gqAIoBOd8vpsO5Kga62rTG6184+4max+xVhqeBSJjbBsLMNLFuRn38MaqjEZrsb2e/LBTr5y2S1kyvDpDYQBIi8loKrEm6SL9JHWXEBt9R3TL38Eo5Fp8F732pBIBD+OJLuWszR+wmtvCW+m7BRY2ep2ZkGhf2jWuw86dEeAtD5l4binrBziKiCE49avnnlVKeq2s7ZautgUO07mTHOiTWKduKYj/fJsifWy5WOxeeqrOrVmyGy9Off/9Hr323bSDcQcK7x0FXoPPJiopkzEotWYo1gYbOnLwVb13x9ajrg7ZmGXu89yu6EJLYD1rK3t0KMqDTqdM21Sfc4z9ZZbTuABn53X726kv7zYdwLHdI5suIjShDRbbRK4XhxlH7SkNoD1FvdaG90Y4EoN3X8InVuVPuL0Xp89QSD9Il9dhlXrVjHntYsqiGvD/pHidZJCAS51Nvh+xli4XEDgFzpSh26F4PBFHnwSMr6Wip6ETa5ykpcFz61FoduC75ulgHAsePfbj76PKU05adgo896uAHOColjEAzpJZtpJu0xMPPa2KDDueCcHzeO6ipAmmnxC3fITrxEsfU4e+KaITOpy4ce2CTcqetl0wWR2ZRDa1u/ZCxqZZVfLYePzV2UsLwHhRC5RgJF27d9e0OB0UwVpgtQjy3J76QlCkYW1TMyXAqn0axQ/wln1QXs2Z2VX/yrjIZZLSnFc/3jGM4g0cVV7bzak0jvI+3sFqMIB4PW4f+4d22ndeCa4bbsOHf2QztA74yn6dpZrZSuJZr5bGDZ9oXpx7ljXnduO+yq0CJT172RMslgKnJlsHpUWSBfHAMaNOwbZZ1Jw5ZZyVc5xpk8gKDy1OuCnuS4a1+X/ITRxnbX6lYcuq01DO/wGO6sQ0+Vnc7cPLRVabkwBf9fs2kG41vuP4+W1IxuTXGAtS0Yq6k+VJhmUI1rq5pVtPTgy/ZC42bNn6kZxPflNnzDi+4QbZ2DOgjgocIB+q+K4w3FDfzh1J1R4JyIpe9WK8JrTKqowvaDYw7LOfm6mv/r/zfYTMsUhP78zXLse4evQMTopuzCTfjsTpMJrSCtJ+Fw0sIht6aj5duWuP82Bu7tQR8QUp1puUjZmCUy9kmeaTtvjRg2La2zQCgTt1OFWlio7s7xhhDJ1kKY1AC0StzsmZDV9tDP3gm+6+tvpReqXqGv0KHpbj3gjm22vPja8MX4/h3md4JqQuKOjTt0p3GxOLDnBUPs783ppfp6LoKC2rPxZsSvISvWS7wPwVzt4GuACZSyvOl6MPCOgfNGwdMwMRYVWjnkZeJSUrlxP9Jv3a7USHS3YdkUae+5i4iVrYE9Ma0MFOaGvPJ2xsplPlm8ROWfqc1qm2IG/dWvb9iD/WPY4mN+aFgH/68Iy39YFniRzgmJV9bMrt41qFAvhLTL+Hq1P+SBytxyKb1Cdu2Hqn0bZOTrPyQV53FpdL7YlW1/wyBQu1Wyern0P31UoowMInPMtozFowkFlgAoXlcZMaI2ATxJs4tLmm+lmoM6H0NWSBZHEkIJoOdedVev51Vu5lXErGOOUumFVPe753/i7o5QAHmyvmH663XhEvChu3+JZ5mE7UtZpqP88rovyt4Lf5YWRplzvLH9vwVD1CZFSNyR9OTTbvAWxVk0Svog888kuFHLx5eXqZcrsGWFiNSIAK1XuKgEkeaimqjni9epcKBDvF4tWcT/BupbSnP/bNrWioGHEdxbNYP4qw5ll5GqHhHeBcXDP6PEzPkp42xTqrP8+fMccFExtyVV4frB8zf26VCizhfY6+JJNftEYWMndrscZX82Q54hkBM8BOPnvnVMaPjTgLJSHE2ZBj8SBNiRYnZ2xgkpHx1A5xVi8T9eWV+jTm+dRCq4cLd553pgqI6//bLNZZfCzQdoYwyGtg0YXgH6qa7IF2WOEj++yL4fiaaXA95q+OGWbybEt4LqOs2L1duybt/XdHznDzV7iAOn3q2h3cgtGpDpa689pZUh9I8aCS4/u+f2Jr7d0S4NGd6gzmwNUKccfUTK1jdiEedllrzovGXtTlQkSgX5t9WFy/8KdWAhl/EMKLEPeLNl9okRrAsQ4B08F/eiw9Ww1rj6llPPrUrIFxBEABqo8/4oZ86ee1X/ryebUSoH/kJkHTEtrZkzGUETh3/SnulrqxNdZFnHPhB5fBeJaOZK+UyaPrYUB/aEQ35dF4BvMDc8tP0asIVB1+5D6rqAhIElCBizaDo0IH9yTbWIod4L6Avvb4w42xrgITGxLQIr07cn2UK/G0QrloR7VMG2fMAM+niNL1cha/JP6XkGF9ZAL5n+c0NDK4FMLqKWBUCIxC8/JnChZq/FggvqDiU9UR9hV400ZjFSJrcm4u+OOB8YyM3+DAPLIMk581sw7B61I9u5xebeMBDjVqkIvRaA9lnzmJsgSDaflDntk4ZgWrs4GC7QSnILeNwLr1CY8WmjIri7bWQz2h70r5YiWgzgyY6Rwb8SccnEj+xQcqj2hX+/4HPS8nLkFPZdyMctY+sYW6ZsUSGXEgfYqJNE+G+3Lp4TMm+06jHpRVcBlBGNsqXgtYThFTv0hEf1+smd+cen2yTty4l2iPGXwCVCbgNphqf2LmjdbOWOuWnk9QturSSAOVupBvS+f5U4TIoiNp4DabT4lKQtXb2/1rTgrw/KKkAJHrOtFoGL819/5gzWeuR0GYGNIkly6XMl9htUFd4CVGWbQz7mDOHlVyfWRjBUeSm+VKFoYYTs62cWybW4ZpVTFQGPJ4ZbX34wM4M4jTesJwXGiTyi/EbbagUu0NjrPzrCmU0snvDro1wZ6Os/ikWcj1StuIBnfqVIqfNdk/ewzpoC5iqmvFvd16NbyBsH6j99EQ/ymYp1RJkuf1FlCrMQ6BgLLHhaTYuOP+VLHnx8uIRHvjAdMYW5r3Mra3SMrrrMK67A0wBtn0kuQAQyh2HxN/PUUYw8dqHmrViQkMeM+7WF067QCZfGnAH1Gi5ezxp1Y8cN8ba9vzACRIbc7XMv93twZtPewbFt5k5MXH8FSs2v6gkfPN2+88rjWVMp6Et7uCC0uWI0cla/uBivY/jRf9rzcv1Zao6ZDzaa8LrcOn8qEHb63r9/5cCV2bvGFvORU3yNXV8kh3QIDDpceUrrBT6akBJqnpySHyd9FkWP4ImIY5dW2T2Pb91v59DN4+ehJObClf5VOvIVW91Fsk2i5P1CkbsfbKGuSm1XQHyHQ+qRMAw1F1Jkup86psmv5PtULCbfOHPBfpbhuXOpD1SHuStwbsxw+2r+gQCIlqPZqsvRW7YWC2HYmbccsPecu7i3dzsmPzpSzw6EmgzvaDyAbMXl5U8o+AynkEggIdNDIvsn6HCXFvtzpro4afuuVbxkV70FKwPWyBYaRUmmgs9KxRJyHa9HmydeAWPzPJHIPwiJWvtVPndT/2sZQkb+LbeoTfNp4nEEug8aawTJW1ux2R2wiMBte+fYpzKF2ThnLXKKY7wXxYMpkEW/LHM04YOSc+2d/HZRRzGfntH/lOprGMr9N19GYWpMpfwUQKjCpkj/1rPLzNwldyYHNL9R7Tyr49bUYvkrBHejXcDjikccvmdTOiFgL4QNWOoOV5/9ZPJzu5HnpY2VGuFUokNwplGSrr4q2r/xbrnuXW+K6nmLh2p7l8WGBfBkY8Xp6IHf1jsIftWl37HRukUtn+N7ADN/IeC6JZW7UHCyikStIIVKcdJOwxztzSmsZLgC3BqetUeTs9gWE8fXLjuI3lL+kY5Cgj19YNpsw/7vzdVJpOGE6aSnvcDp3RS4mdHcLgdDztrmsiJ1914Q8WWCXEKJXUtyKvTH4+C8r7Y4AX734eInse8zZBwZ3c8vrDpoc+GOhd7CfVly5humpIjtXoKs0oAWb6OivDrjgYavqzLKWL2zlm8MNvIlSBb4sp73YAU0ziHZ32PXHYoobZ4+WuYl16MY84CXRqnY65cjZdAxYB9Ndsa5Q0mlltgbkLnUxu0favaMtpRFnnw3z++Xd0ybV0wZYpv+JCNSF03Ppt2fVt3WEqtERFKDmeV6qp3pzaK0as57Xof8jP4ldOuFc7d/nWVEcxIYzbN6Rct0Bs9yPiYrmLanClzMQ18d1Us+/AOy+vTmKB3EgJVg7ahWEUQGdsZ9+0Xqh2dUqeVi+O8+fODJ4YVYu3mMJ56E4SlVLcg99H1VicL75B62sTYeMHNXNoW1QzUGypurZpBQ5z6jfu9xMPeJW5P+V0nM66n6mNRXhrR/mUlr1KJ/x1oMIgDWTOWaQ1SwVCp35HePg61S7cp2JtzGA9BB8vRz6URQLQXRlfJr7Uo6UU1R9hUsehxCll/rdd87ED0Vd9XZZZpy0ko2BGw619BlJX1VNGrVSVhPdT4HFV+4fa5Vq6jIeiD8fjCI2jSQD2c25y+2IV4LCRvI3Kz/qfJ5mZpG1HSnDY475R5qCqfYfy7RGSPbyyH+4SZT6juy0LQkQpH0cXT4STJPPb+u8AO1180KGz/CsD9f5X06+JxwbFlFfvmV7LrXVXVW89TFXvFNU4G8XCOjqsgR7m2ci0oqLNtKu61+ENP2SKMb4jH+m4AN0lH0G2ST6SPBkEcStfhXYT6RYJMbPUvov72lqz3d67HwtUPhMaG5jwoyOPIEZr5alFfPOa9ktMpfz7rBnePZHDtn+h86sv/f7VxkACkGXkf3q+hauwcHo98E21LwlwUag8umU3tDXhLnCShFM5mdK6mGlQd6c8BB/MWRvu+cVPzuKz3lyksKI72igMSgicAM91bw+A5/pD6I3N6SE4e0NuS9pBqUVCcg+IR4/HhUoWnXYx0z87TN4orRi+MTZy/zFP0Zha5vnwsfA7aHroV1i6PINnZuZ0WbfG0A0rlE1duxYgw1bN0y+q+F0Hn4pznkWE3O1FLJQzTARlpzzQtgBVvu8qaU+vMeIXfykEv2tdq226KJF3XWtY8sg4bzMWXfo7k+xQ/lvLPljpQQh30fmEbecNADxvOUV/NJiMOsfjmO/TsTDOcRnepMGd8t52ddJYpv55Itoxh9QPzZZRYCtmzq015KcbiaavJdEeKour2pBTLb56aaVLfmM+d7kr3YeOwloNmPzbmOGLc/g9yOJRwT4v2kj8HZ1CFiCqPwj7ekhJIkCu/EKTuWeUa6R1emVPbMYdkI4yHbtYklzE6sqFP/x9gvZpXGjYtYT7NzzaANNNg6hrESbMNhWMOuSrygGayeucVTPjhFZmsHb3wZNHmrUNr1IjF4EqY22e7oPzVvbXhrXuQxWSJ/zwPF85oXo1YgfzA6oI0+W2hO321mNTt7WJ4eqGj0YJ5K4xmLtvZZwOVV+Pj0gB6QmsZV0CJomL2f2WHNNfJTdfhy9H3WH0Uz5AGST9VAwlGb99ivpZRXJr4E5YECAy69kb2BtmVq6UjQlx2kVVsq7N01OBdiUiYKralP3ArL+ipK/jjC6g/x7SCFXmoRkoRy7lag14MmgwwrQ2pgyMeu1l76e5pLVTkcRu6tYxDtK4HTyC9ScYcU/BEZeNjemauGOc50X0+xCMz9GSwqPO3zj63/Yv2spnorhqMet4aAQRr9d2qaZmrx37E4mIXAgy/S3lr3IX07u1XdlxEfKYtUfXU23ka95A3w2ulYpogvU3TJjevq4V7nieD5SYZpe9obcpDOU4pZSwImPG0jJs5uyXBzjWmpaMZadxdgdPOFAJYJ0sybNp8ozdJI2XPv0HUe4I0Nyq+/sN3pe/BeRBVBFhnPWEZxV/9nhPwLW1UagIx5xhFOjClAJam+lVd8ndSOsEIYWGLGA5wLlIlbcliOS8qnCfMh2MG223xC1sqcIBmx9s8mGvZdumyHM5AOrZwLW+uvM7a1EUokMI12MU1PrJJ37FLvHKWR0rYAqCW3YzParbzaj+qmw0y1sB9vbzEL/zKH7nztkVJWuyk18sj4qXrhbhAQ1Iw9p1YznrGBZVsAq3kov1kCwzzUCjOEXELVMEzO6OK5tEbcUsQAEtxlR+patSIffu9COBNdiryuitWYQlsOeHWBrW0LogzF07DoBbcUTiFO1W2+ukgashr1DHIPWGTHI5LAAAEN1JREFUFyxbkMpOuphry9fBQdfYxEzyPyIaMJbfet0jex9emvg0sxbieeXCJBCcC1XtGC2jodgFhVXoH2KcVx2+1AhZulfND+CWwx//aOO5h8eHDKxazafr/bb29DzEFhiD6U6ogtbsbC112lCzWyEfEdC6MHhsNm0RslDoPaWiOZgjZBoXrwBZM1W6cupzw/fecgPI16GYXx4P7pdUiD236vPwdEB+xwZ4DCPjLCiIvfvowOEMHEUap1LLRALgZLiPbMmrOoAQ+GHNc0zhA5sRM9cRm3Owd2W8uMUgx4hle2bLdjSCpvsyL0N12py3OgVjbmH9XlNSgyy9YHufAb8DMoS9kcSMBFmtqqZShBC9lbIFde9F4v1E7O/82Eeb6jOeTd1fo31vJ4lPefRo751ULrNY8kcH/ASTnB4/mWqxX2hl5qHkdKifMX7eAJlqOHCA0c6F0WrZ4jxLESvtuvfsAj3OWQK2fF8az8176HifsRSfUOdrs2b4iIqE2AYQ7M55bmKo0wZE41aOZax6cGORAfaNscAooErsJZ1qf8lG8kd47zR03xg1nvZ/x3NwJ/X9F7E8VPRcLPlAEo/R2fE94QMLjFAlYNeneKb2ldHecWzViu1ODC/hWA6eZVYCJsPghmFIWRWJ/jrjZy6BdL4OR00yVUoTiehJKrVHVTuqIAErRrDfjCqn9WVhVlTls66H2/WVBLWN7cXVkQFIlbNe9WwpwI1vCLgrVfw/pNqiMfZdUjS/zhbfxudZet0p0S3vKeXTD+GcgMnyqN5nqF9MnhfAT51AB3ByFi+UTRFvwaHMulv9oKqgoHsaRZIkE3j9bnZQ/uAOBjq8N2vuoT1uQX9eyqV6gOwF4qEOzlTdxgPcKAVweiJIeSluvqmOqtQw76hUJLBx8b2ouQrwb7APQoSJlkPku1T+FRs+o0M4tkKSWdt/JTv62yHk2vOEjclnMBMuu+eFz4Es0iZk2EG9LcHtnLzujpJT9VTUDyGoxevShedT8Ro9s/xtg9jsW34w5OBeRjUngq/DLdfy6jv4IbEo/cClj61vIVK8sFwK/lxwCjzML+DJfhZL6j4fvOzUWWATRgwmuWj3riGAaMS4kAH4dmz5DxZoV/hwfKl9rLT7dkb4m3NV3060ZyTCLwpfOvkUP6rFqoCsEW5asgFweh84Kdw2tRqXkqEVM6x/3OFTpx1ZVUyPw760qd1eXJ7Ye6TUvLxQG/t71wG99FWrR/EAMo2p/ZGBlCEBwQI/Z6C96qRthmLvmKFXN5YTSSsniSUyp4kaaRR6M9amhEwlwprDja4ebvh9lJV/v3NX7TCMhcMMOicfC+zcyzP6vzPr8da09cY3BlrCU7lu7uQVes5gZcZKCzPOehA83wdxCEnnJhj7g0m9LMI1FpM65XYTP1oadJioK2g7lUbx3NbZ80i9Yws12yx+9jGmyU6GE/IJjzjQvGLKo0zV1uO2+qauUhBkb4pEEQo++rLXurkgxMVwpSeLiG2ngvpSpQOXfwyWub3pkFmxsGh2XCbYvW7MVx3L6QSP6HbGpjhCQAnhzPdo6/CM5TOhNoBjuRq8QnAw+l1Py0SrG2qEBeaazDO4tjzM1+Hgoe6Y4r2grrhTxjdwpoNktZLPomkXYMCpQQl/hpExoXfrPW2RsmBcex7s0SfkflnSM+65g84Gbk9zx1s6i2JmsMzyPTUgCW/hqP1hqGc+VE6X3Y0tk8pQiXBEsNfmDT+2ynt5bstYn7Y+YVYM4T89PoLw03yAZWW7ViiqcK6si6s96qWaXP8J92TLvnEKbaiL8lCII1nqtTjAZCOszmjPQ+/afVrEnQmvlSR/aHNeFWFAF7jPBnjvpJVTV2rVujm8HeToRL0DjOneinvcVVr+mBySNJiILDoNHtI/2FuUSe2PE7kle2SZkd+d7eiZNOl87AmcPY7Nm/vedTN5nUOJSJ3Ts5dHmtZ+3YbBvR/9lGUFrPqySnNOWbQwq/V4JcOL1lF9yfH07dlNT8dxji8uFTOW0z7YUhm7bTaCW9cNPy5YdMOfjLSIc5+RrjR+sH0orDNTpOrgh73Ra0qqWxj7/aDzlgDhS0EBFVjH6LHMuRCY8VfOzXXSzD9GB/xhMVbWaQWFI6SrujG8xnVLYhrfSvnHNynCTRBgIrHf3uuHY7XC17WQJODp0dzg1HCMYS3Frh5A8oAyU5aeNqtPp+rWmRfC2pppkJq6Ol5QffWs8URVnD2lIcYRHFRsVt+JvMeDFm5pG6vMC33zSFpRgptmtPdOGPEAimg23KJ5tAHNcgMmKi3/daDyPsy7wS/OzKw0ah1xY/6S/LL+a8v+UZwzUVLy5nLxRqtJnoOXw4HMgL1xY93nZZnnZio7ezYy8GmQHgbq5GNL1GXsLAdLPW0qLrQEO17gGYgA9tqGLIWvbpitVUvrkIc5894JwsFhrQYKPjL8y32xpPXM1gNitePY2wdj4nn/CUvuwz/sBhY8L/OQc2pfwuw/gzkBaMy845eBGzfid+NXpqMO3WzY+Xxmk/tn3gyeXSfD7JlZEc/TC1iOhjnUL0vuYKYXzHepTilAuUelMAhCgXwcR3D1tH6qUc8s5IHjknvSRMWQKyfOovC+GabmgdvRYKByt21olXEe8Na7DTSDpRq3F5DJrWPAlqc5ygftRuk6NPMtngak7gijS0eA/dhHg8u/RiFDU2vJoGd59ydFBmdSBwtxRuOaZW+pLQ2fQQOFKE14qJL31BeRYcsPIPYTnlBhof+HvZZ1jONF/2ctBkzucc5UdGS/yLBkvnukHmDFiFmB0rtiqNJ5Yjx9WQZWUkGqigsuQMWDsSVpI+wih0dGYYy2DasCu8A695xNy4KnGjvAVQaj0DhSw+T2V4a2GpajvKTkNrZfDmp/DZMBrztjs/V6eY3aUIn3mLGHftEAZi8KOHFM32O889uLKr8eMGvfSTXs1MeXJ71gLw31+eWxe8JP4jpsOjpY2MS8OrgARqJrJibEh8jJgThYneOQDntmadikddbyxZbNBcG5bB46bqc3zI1zp/ADj+ZAB2KfwpwtKl5WiD/FAfHN1gJJ/vzMFv0Y+ZOW5ws92AeR9tYdbYyowr8mX2ihRXGTsarHAkmDdViqgg22sbedX2qDc9VcPOh2jZ0PB+22K/ZwLkdEW8/7dR/3p113wTp+LxKjI7zWc5gQYq4HOS4ySpju3a/YMmbeprqm2AgEwylSRjxwx9aDeyPFGseAefrV9Ou4C+/2WKf/UpH/KJQt5FvB1vx+Bj2GttZfbOD02QUICLjN9kNGwIerxJPYXhXVrk3Np2FhP0otAjNjrunp4Wvj0CMPpzEOwZyZmgjV8mTxUNNGsR/brnfzQAtdDPtnvffu1ue1JZPK3KqJYGDOZCPrlIbRAMqviPH+VMOEFfz0r7Z4DX3lDmThfyRj9Py8iqbb5x5otxmbDZx7h1tu68mU8zRcsa7kga0GwUU26Shre50NcN23Q2pfSQBaIh7580V7+nW/L8GkSeDD1QO0LP9/jV1pm7I6DC2yg4KAgs6IGwhXH///77tNmpYW6vjmi7MqHNo060nkpcl9tRkAHElEPMRdy/0UvgVlXr6GbQO16gcooBwhAAvPECgSKBU0xla//PZTTaPq0m81lU2ooUelJppEkukJwbm7qwCSSghO31a7CIlGqwfSqQTp+gkMq3j1YLfkLVcmmwl8N31V3VX7aHx5DRiEhsK+YFVihjmocqDaC2SpRu5v7pcidNT8TCiL87ithUEv2LiiNxjSgSXZVdUiygnl1D/DdLvq7T+KPteuLBZ7cCeHkglw7kfs2EFwHN8PPAQH8n0Vv60ic6UaRob3KP0VzNtSTl2ltf+JiRxIedK3NZQjQHkbpt/5ScbBYRk9Wufpr9kpjKRfjibjY02zfWGBNSKRyp+cR0umWdYhl6lBl1d/5y2YohYXwdpnyFrVS0KKqNw+kNxWkLtsj0yAE/E1zR8fcKWrK7rgnLWf3hjsM+4rrUVHkPdgQcL5hBV4UBqF4ASZA+CoNnv3VPRlqyoWIGWfQDQZhy9j8aY44fExyd75Yraxhp+TYevdPiptJWpaorfZL345kRkiOLc4QL4+Ac7tSuBAY/zjCXFmbS3noDCuh1HPDJXVUTMsHDxRgQiW/Semn0N2FMHhRqXDP/qh/tk9VE1M1XDMhY62HegD7N9NQK2JNHrEXxS799aYygP0tObN7b97GRI/xTNm/P9VfgXgPKtK0EPPweEGfh1yT/KsTV+NQLcn65W+U5s41P0UoHtLwNRwRFsuOuqCHep0B3AurbIyonibSuTPUHuHsSwcHI/eH5XQdQNQkNAd6WjsisPsHE7mP7AItTa71bz1jE0lr0yA0xVncYDMwWGn0StY3vn6+TmCx98bfRduutIVAcyY2GGZDyk7mBEhwMlHxsGJtDxCvVEWWAucRmghDiIM9lRjmMuUrzr5dztl43HjZtHh4KVWh2oGAL7sM8vRN0y7BMHZeNhBtwSnDKO0Oa2M5GqEXARmlcvamJYNliN0kyvyCYjYCHD4koAdrRlJ7CZ3ZA2m0hFh6XBn9PxUlOqJ22kTU2dHvWR9aymMvHxnZ2IJPp3cNm7N00Z4oc7ZEhneAhwnrU/3MDQfxRke7sF436vRMrk7EYu7rA6EoIQAp04RHPSLSQJJaL8dJBsTBQdBs+f0Fq8rU3MacIAsA+utssTPz//CEAy+9GjtpX1rTXzCCCQKvQU4jDtZ3WpWJ+asf6c5EkIehuPGTzKsqo0kDQNsHAFOUCSQNiq1K/AIezzH96KgirIn/BZk2r8OnWCqzyk3aNyMNks4/+I7oLxu7G01tp1WW4sATtWLUeIWcIJ48Be0c2XheRvjuowZqpBTxPmwJR33yOdPdH0ZBo6Dydkgr1xMrmzEMS2NtGFQo2udrNYGzbF8btxM8qHmz5RHV//cbL8o9cfMwXHbHSUBl+Dw7W0hEauus5xqb6Rfo0xkbiVREs70JnCqM3b4TRPNWSIGeGObGhF1N+T73CtFCwnVKFjoSh/Biq3dDo7+hdeL1Z+40Y76uuPgROGVFLQFnNr3l6Wpl+Jtttea4DiC4TeShjBuIgLnKqbK59qliQA7vGNAVZg9KfLAd1XA8RInxvr8VJ4UZN87soD3yV5g2BgWJoYrWrp/CzjsaPP0XrG510xwaDhqndG3WCFH4OyOqGLOmiEn0uzQ5D/Su5b0sJywb6QvkISl+w+VBKqy/ovMzWySl2Fdc3AuGznjwwbOO7Y8icA3j4QZOB0CyjeCECQrJXAuGwRH50HO4bSuYxi+QOpCzcjubp50AtnQiZFKX0Q/CP8QO1uIZ0bJIJZTSLhs4DQZs8hgrsoZOLgCEsWZgW1KBI5TIDiOVvCKGUho5HvLbaNyku9too6oy0pzOz7L6UPAZyaxNawxmtqCg3NW+RYrOLHtvHz8CY4oxVQDKFGpSHLZWBiwGsUb3DLsdSeV9/WUX3BAlOfitKUo1vhb7GXGC2ltZ1qUmvqVg/Or4mI2cALfdkF/gwPUwexX7g0HR4hIcKgfXUsPQpUFHAm7TD4GdZa5cTAVjIx79jWMxbyV/RCbi3WB7WZxeYgCKqfRBo790xbgmGYPnDZSy5MnJcH5FTZMn2p/zW32nrGjOoDUPEeuZY7KjWxW7ncWxXL97S+EPC3qyznOQkUcnKmNhMAZdHAia1xNFaAI6c3ZvhjcUtG2AHVqIG0X+vmkES8hg16cWm1DjbhpfG2n9X+439Wt/w+6UOch6KLKrwAAAABJRU5ErkJggg==;" parent="1" vertex="1">
          <mxGeometry x="115.89999999999999" y="563.32" width="96.27" height="60" as="geometry" />
        </mxCell>
        <mxCell id="Fnnlz9H3tVM27utcZq8y-1" value="" style="shape=image;imageAspect=0;aspect=fixed;verticalLabelPosition=bottom;verticalAlign=top;image=data:image/png,iVBORw0KGgoAAAANSUhEUgAAAT4AAACfCAMAAABX0UX9AAAAwFBMVEUjLz7///8jLT0BqY0kKTskJzokJTkAsZIQdmwArpAaY14kITcEoIcAo4ogQkkkKjsXJjcOingNHzIAGS5yd4Cgo6gPhnbIys1janMPi3kbW1kbVlasr7MgP0hDTVkfPEY2QE3a3N0iMkAgN0McUFMSfW8Vb2cAEikImIIAGS0aYl3q6+wSIzUAEyrw8fIdSk+Gi5FWXWeZnaLEx8o0Pkxsc3u5vMBYX2lASVUABCN/hIuqrbLS1NecoKUAABclHDWavUqYAAAJaklEQVR4nO2da3uquhKAkwiorUqKvddlvaMV1N5s1fas//+vThLACwRUyjo9xHm/7F2tXe37TJhkmASEAAAAAAAAAAAAAAAAAAAIQx2L/PbvkFuI/T6eI+u3f42cYrVeMWNm0d/+TXIIdV8wHt9eYdx+tn/7l8kbpP4xxvhqREefXxjPOzCCj8Gic4y/WiPEL4CXEzaCbRjBh0LrM4wnl66fdB1nxUdwHXLwQdSbbLyuiLN5ZcRfmRMYwftxEI+1Zn3nReqKETyCEZxM7JXOoWIE2zCCExB5Fk/eZJK8HCx9C+BQm83yxuw615K+TezlBL+O/qe/Uo5wb8d83C7auBXzHdYnvqnHvHfiWIgt0V5bFqrH6yNN0CeFWmKJxjNDlvo0IwlVLqPEfm6zJZoj8m2G+rTBRQJ3UzX8WR2+RHsbeX9Nlvqq5UI5nr7+w1/8/wG6YAl1sgyWaFnq06uV7p8YHgfFkgL63CYbt436ZomWrb5zEoP+pII+vxyw9UrG+uLe084U0EcvMV4udpZooO9wmL6rUC0Z9B0O1xeqQ/0DfZomvtS2J3ygby++Pq00MNl/zNLFteDikYC+A/D0EbNQ4fo6wRywONBA3wGs9Q2FvuqwW6vV2ITv7DT1obfv5TEF54g+PgvUz05WH3KOKtdH9BlIeFNZn3UzzqqkfIr6EKVZVUK0U9SXGUQvVHXQlxJi3pWrJgF9qSDmsFyAwZsSQobFuwroSweLveKdEU4df03TNEDfXkTsGeGJS+X+idEHfXsgGrOnk8iat+gB+hIhHR5764qL+fQgKi4PgzMPonDF5eeIkcvVBPU+0xSvm5qPMvU+m+lbZPwzRewJbYpXmx33ZYLximYafzznXntilNZH60smbz7Jdu8Bj71rX5rC+oj9zPv1Pu23Ocbt26xav/l171r3aw5M318l7/OS0ecrv8HLewvqvO/xq5lJ4x7pVljsBRUb3mVQi+FPjrsMHOsK88YML+SI+z7GuJHBJZAgZm/TOaVVEzpcyuWc6qPWDGP8Ym8aM6g9Y5fAl+NqyVF2Y4/NVM78e2tyannssKIL3kU6f9uNNQs1MB6/L1IJJN50Tmex19/p2kvs79PzaE/s2vhqRW6YkfrbjbgaHv8jyYO/mmD2zvPo5HCcOQ8yV/ZHEtHcPHeOvgQafX8tG4o99bpL6S3LGLEjVLT64e+O95UpRfIx0vOj7z5sb3CXRP66S5m+VdIizSEsJc9ETjEf7iU8SP0Fi9nQ63o1qLFIyGPmZfoayYNz9DYX30Cm0slGUYQM0Rn7/zU270OPMXTzuOrYrw/5u++ZvoKEco/w9677/f7+oadcd+kh+jyS9BkXPA57e/0pt+Y9Sp+P780fvFyaPgxEJnPC+hA5G3hUub2q/4Xo1OtWQd9e/KXEeYXrqxj6OrmSmjeMNUKSDQb6SDDr8b5dJG/l9fnoIvoqa1PEMM74gC7fP/75k7xs9fWR2oMPEmn7IbfF+p/rI7W7ylYqSVTg6zMq3vTPays1n4pP5snq00vbGbl8bSR+1NNXrZY412W/Kze3Nyp/SV/FMHT9/KEI+tifHajj85jEbX0bffzT5j3oYxe/x27JSx1TBkrKHarr2zPxEIT1sQXvoLyeuIhXibw4Yxpq66PPb/tDMaIPaV70rafNZPogp6e4vjH+3nvA4X59m3JpmILS+joNjCcvjpPwgUP0mfclOQO19aFRa84Eztwkgfv1IVPXZOjnag9efoPok9/8WCZ0aRygL/6ja30sSymoj98geuZ32OJvUWaiz9BYHlZz2kxd3u3Svo05Hy0LfUHN0NeX2x2V8mkztW/bGH89SyMwVt/+G2W+Pr0/9OE3msh0WMtrd2ncqoO671xgU5JDJPq8afPZObueHVKwQiyLeIhKH9HVK1gR6i7HGF9G4y+qz3wqewXo6fQscQSfVLXZWTT8W7w7RPUFd5F4zWB4QMVFinL60KiB3w+JPqQP10WrO9AXUP/CzehYlOgj3XUu3asv7j6vptx9XmeMJa/qF9zTcMer2e0XinzsVu5lTRvrjyrYZbCKPUK9MxnL2tN0STsUMYzudFpDRpI9BXtc3vH4NmaBQT7x1xHdfWTfbUoWpIkdVhf56y4liDdHPkv7+1JUooOfGhB+Q7X+PpYfRA8kkvTROzP8kly7ioHUelNBLSmPKILXA7lCkTKpJZ23HMCmXDoI+VMv+hA/jOWFV/kWO6FGrf/c4M9Uf5H51BeUCuXBzjzPHCR11l/kr7vUx+ujv1xvJSLW6KPBYjLlESSmIVa0xrSwG39q7utAvEzavAl2FRHL/VyxCyK+STd2N2jT3fhTdVcR4kWqjzbGr03Xbb6w/8FfM+r+eF+btht/yu5p4/g7Krm79qxVT5V0w+zGn3Jr3l0cm+/nbX+3bCezc5e2409xfQi5l3i1yPRRdtvxp7y+f3CWwVb8ravNXitHUHMW2z9AXwyb+Au6S0t8dUtQyZse9vmdItAXyzr+/HNcesU++8rsFYMm0y4CfQnw+Cudb/SJw/2Zvutpr9eb3hW7eb3TFuYfnSLkxR8J6+ufm6Z5fgH69uHFnxbWx30ZoG8/Iv7+gr60iPxbAX1p4f4Kp6uP/LSAoE8LJ6yvs4yer046x/xwFn8nq6/ewFfhIgw/s/6Yw4aMk00d9BnjyJ6NlEf+n+C8j47xZaQC+FN91z2+W+EEVh3uCr9KLn0p9Z3ampcPXclto5RPiwkqLoNgv4LiFRdijfFSUrxP/awihet939GWIbeBX2XdLvCkrBBMX/RQppihC/qi0Ll4SuCOLGnW5YC+CC5/tuycbF0A5VmXA8+ojEIXlzsnR/KhG7cMhiekShDHpo1vF15+dORZV7yX4vm88eS4xyXEiJ8cefPJ17M2y7px7bvH6jMHd0mPh85fd2kcpM4Pz71yHfqBcWzTLTybPBZq86a/y0Vc1uUcre+UsPj54V/LVbwg2gJ98RCbT2KuOrG7ttAc9CVBR7PJ5jTx0Hsum+BMftpBqTiWxTfnf0R3LoiT7ecZPlpBUepN3nWKdkcwrV9FF3eADGq/82VIfSvQbL4ZZJbVQylUx6Hf22eLW+iVxeMBBw4BPqPWK1+G8DRL7RmbEL7bMG6PwDvA/oo6I34pXFEYt0fiL0NW/IQImOylwOqwSQxLGXUIvXSwZcgcQcpIDbUy3bUAAAAAAAAAAAAAAAAAACfJfwEYzjKo3CQ0bwAAAABJRU5ErkJggg==;" parent="1" vertex="1">
          <mxGeometry x="319" y="563.32" width="120" height="60" as="geometry" />
        </mxCell>
        <mxCell id="Fnnlz9H3tVM27utcZq8y-2" value="" style="shape=image;imageAspect=0;aspect=fixed;verticalLabelPosition=bottom;verticalAlign=top;image=data:image/jpeg,/9j/4AAQSkZJRgABAQAAAQABAAD/2wCEAAkGBw0NDQ0NDw0SDRAODw0NDQ0NDw8PDRANFhUXGBYRFRMYHSggGBolGxMVITEhJSkrLi4uFx8zOTMsNygtLisBCgoKDg0OGhAQGC0fFx0rLTAtLTAtKystLS0rKy0tLS0rKy4tLS0rLS0tLS0tLS0tKy0tLS0tLS0rKy0tLS0rLf/AABEIAOEA4QMBEQACEQEDEQH/xAAbAAEAAgMBAQAAAAAAAAAAAAABAgYEBQcDAP/EAEgQAAICAAMDBwYKBgkFAAAAAAABAgMEBREGEjEHEyFBUXGBUmGRobHBFCIjMkJygqLC0RVDU2KDkhckM1Rjc5PS4hY0RLLw/8QAGgEBAQEBAQEBAAAAAAAAAAAAAAEDBAIFBv/EAC0RAQACAQIEBQMFAAMAAAAAAAABAgMEERIhMUETIlFSYRRxkTJCgaGxI+Hx/9oADAMBAAIRAxEAPwDV6n598kogQFMBTAUAgSIFMBAUwpTAQJJkDqApgIVIBTAQEgUwEgQJAKAQPgEgrxs8EKkiBAQFAKAQEgUBIBQUoBAkQKAUwEKkApgICQKASBAkAoBCvgivI1eCAhUkQICAoBQCAkCgJAKClAIEiBQCmAhUgFMBASBQCQIEgFAIFdNXggICFSRAgICgFAICQKAkAoKUAgSIFAKYCFSAUwEBIFAJAgSA+AryNXggICAhUkQIEoRcnpFOTfBRTbfgh1G6wGymY36OOGlBP6V3yS9D6fUb002S3SGlcN57N7heTnEy05zE119qhCVj9qN40Np62axpp7y2uH5OcMv7TEWz+qoQXvNY0NO8y0jTV7yzYbEZZD50ZS+ta17D39Hij/168Cif/TWTw4wr+1c/9xfp8EdoXwscPv0HknkUf63/ACHg4PSDw8Xwf+nMnlwhX9m5/wC4fT4J7QeFjRlsXlk+EZL6trE6PFPb+08CjEv5PsM/mX2w792a9iM50FO0y8zpq9pa3E8nt6/s8TCfmnCUH6mzGdBbtZ4nTT2lp8ZsrmFPS8O7Euulqz1Lp9RhfS5a9t/sznDeOzUThKL3ZRcX1xknF+hmExMdWfQEEgFMBASBQCQICBXUbPCSIEBAQMvLsvvxViqordk+LUeCXa3wSPVKWvO1Y3eq1m07Qv2S8nMElLGW77/Y0tqC8znxfhod2PQx++XVTTe5u7MwyjKluR5uuS+hUt+5vz8Xr3s3m+HDy6NeLHjaPHcpMelUYZvsldJR+7HX2mFtdH7asrar0hocXtzmVnzbY0rsqrjr6ZanPbV5Z6TsynUXlrL88xtnz8VbL+JJL0IynNknraXiclp7sOd05fOnKX1pN+08TMz1ed0dEedkKS7BsFJDYekLZR4Sce6TRYmY6LuzaM4xdfzMTbH+JJ+09xmyR0tL1F7R3bPC7Z5jXprcrV2W1wfrSTNa6vLHfd7jPeO7eYLlC4K/Dd8qZfhl+Z0V1/ur+GtdT6w3dObZVmK3JOEm+jm74qFng319zOiMuHNyn+2sXx3a3Ndg6pJywtnNPqrsblX4S4r1mOTQ1nnSdni2nj9qlZjl1+Fnzd1bg+p8YyXan1nzsmO2OdrQ5rVms7Sxjw8lMBASBQCQJRXUavBQEkQIG02dyeePxMMPB7q+dZPyK1xff2GmLFOS3DD3jpN7bOo4rGZfkWGjWlo38yuPTdbLypP3s+pa2PT12d02pirs59nm2ONxmsd/mKn0c1S2tV+9Li/Uj52XU3v8Q5L5rW+IV9HOySAQFAKAQEgUBIBQUoBASDdZPtNi8Jooz5ytfqrdZR08z4o6MWpyY+k7w1pltVfcuzTBZvTKqcfjafHpn86P70X196PpUy49RXafw6q3rljZQdo8nlgb3U3vQknOqb4uHY/Oj5efDOK23ZyZKcE7NYYvBTAQEgUA6gV01ZlBSgJIgu3JTcljboeXR0fZkvzO3RT55+zp0s+aXtymZLesR8NSlZVOMIS0TfNOK06eyL469rGsxW4uPsuopO/F2UZM4nKQqSIEBAUAoBASBQEgFBSgECRBatgspusxVeK0cKqt7WfSlNuLW6u3j0nZo8VpvF+0OjBSZtxdmZym2624WHkwtk+3pcV+E018+asfd61M84Uw+e5kgFMBASBArpqzICgpQFl5PcRzeaYf/EVlfpi37jfSztlj5baedrw6nm2dYbCzqqxD3I3qajOS1q1WmsZPq49x9S+WtJiLd3da9aztPdo822DwOKXO4eXweUulOv49MvPu9XgYX0lL868mVtPW3OOSnZjsLmNGrjXHERXCVMtXp54vR+0476TJXtu57ae8fKv4iiyl7ttcqn2WRcX6zmtE15TyYzEx1eaZBIBAUAoBASBQDqB60VTse7CErH5MIuT9CLETPKOaxEz0b7AbHZhfo+aVMfKulu9H1VqzoppMtu2zWuC8rXlWw2Fp0niJ8+10tP4lK8OvxOzHoqV525/46K6esc55t5l2bYW62eHw7UuZinJ1pc1Hp0UU+t9x0Uy0tPDXs1resztHZQeUG7ex7j+zrrj4vV+8+brZ3y7ekOTUT51bTONgQqQCmAgfEFeNWZAQFBWx2ev5rHYOzycRRr3OST9TZ7xTtes/MPWOdrRPy6Hys064TDWeRiN190oS98Ud2ujyRPy69VHliXPsqzrF4N60XSrWurhrrW354voOGmS1P0y5a3tXpK3Zbyl3R0WIw8bP36W4S/leq9aOqmut+6G9dVP7oWDD7dZXet22Uq9eMbqpSj6UmjojV4rcp/xtGoxz1e3wLIsX0xWGm31wlGEvU0XhwX9F4cVvR42bA5ZZ0w5yH+XbqvvanmdHinp/qTp6SxLOTbC/RxN0frc1L8KPE6Cvun+nn6Wvq8ZcmtfVjJeNcfzJ9BHuT6WPVH+jVf3x/wCkvzJ9BHuT6X5TjybQ68ZLwqj+Y+gj3L9LHq9q+TjDL52Juf1VXH3Mv0FfdP8AS/TV9WZVsHl0OmXOT/zLdF91I9xosUdd/wAvUaekPb9H5JhemUcPHTrsnGT9bZ74MFPReHFX0Qu2yyuhbtct/T6NFTUfS0keZ1eGvKP6hJz446NJj+UOb1WHw6j+/c3J/wAsdPaYX18/tj8s7ame0Kxmed4rF/210pR47i+LX/KjjyZr5P1SwtktbrK4cl9PyeKs7Z11rwWv4kd2gjlaXRpo5TKrbUX85mGLl2Wygvs/F9xxaid8tp+WGWd7y1iMWZTAQqQCmB8QV5GrMgICBOue7KMvJal6HqN9uaw7Bt7Dn8nnPjoqL16Vr6mz6uqjiw/h9DPzxuQI+S+eQEBA9q8RZD5tk4fVnKPsZd5juu8surO8bD5uMvX8ezT2nqMl46Wn8y9Re3rLJhtNmK/823xlr7T14+X3Svi39U1tVmX98s+7+Q+oy+5fGv6iW02YvjjbfCSXsQ8fL7pPFv6vGzO8bP52Mvf8axexnict562n8px29ZY08TbL51s5fWnKXtZ54p7y87y8zyhQEgFBXUeTyrm8u339O22zwWkfwn1tFG2Lf1l3aeNqOa4q3fttn5dlk/TJv3nyrTvaZ+XFM7ygeUKAUwEKkB8BXTRmkgEBAQOy0P4Vs+utywTX2ox09sT60efB/D6MebF/DjiZ8h89JAICAgIVl5ZgbMVdXh6lrOx6LXoS0WrbfYkmeqUm9orHWVrWbTtC9/0ax5v/ALt87p5C5ve7uOh3fQRt+rm6vpeXXmo2ZYG3C3WUWrSdb0enSmtNU0+xpnBek0tNZ6w5bVms7Sx0eUKAQEgUBIDrGW/1bJIy4buFnZ4tN+8+zTyYP4fQr5cX8OUo+M4CBIgUApgIUgV1M1ZkgkgEBA7Hyb2K3KK6307ssRU+5yb9kj6uk54tvu+jp+ePZyCdbhKUHxg3B96enuPk7bcnz+nIIokiBAQECx7BY+vD5jXK1qMZxnVvvhGUtNG/FaeJ0aW8VyRu2wWit+bseq0116OOvVofYfRVjabZGrMZLEQuddu6oqS0lVKK101XjxTOXPpoyzxRO0sMmGL89+bnmb7N43BNu2luC/W1/Hra87XSvHQ+dkwXp1jk5L4rV6w1KZizKAQEgePQuPBd4kdY2wfMZRZWuj4lFK/min6tT7Gp8uCY+0PoZuWNypHx3AUAgSIFAKYCBXTV4KYCQSQCB1Pkiv1w2Jq8i6Ml3Sj/AMT6WinyzHy7tLPlmFB2no5rMMZDsvsa7pPe95w5o2yWj5cuWNry1qM3goCSIEBAQMr9I4nc5r4RbzfDm+ds5vTs3ddNC8dttt52+71xTttuzMn2gxmCfyNzUeuqbcqn9l8PA94818fSXqmS1ekr3k/KDh7tIYqv4PJ9G+vj0vv64+s78etrbleNnVTUxP6uTNx+ymW4+PO0uNbl0q7CuLg2+txXQz3bTYskb1/MPVsNL84U7N9h8dhtZQj8KguupPnNPPDj6NTiyaTJXpzc98Fq9Oatyi4txknFripJprvTOX7sABnZNRzuLw1flXVJ928tT3jrveI+Xukb2iHXNpcn+H4Z0KzmnvRnGWm8t5cE12dJ9jPi8SnDvs78lOOuzlGb5PiMFZuXQa113LF01zXml7j4+TFbHO1ocF6TWebBRm8lAIEiBASiumjMhSmAkEkBf+SHEaYnF1eXTCxfZlo//dHbop80x8OrSzzmGp5SKebzW7/EhVZ6Vp7Ysy1cbZZeNRG2SVZOdgUFKAkiBAQEBCpIgysvzHEYaW/RdKp/uvofeuD8T1W9qc6zstbTXpK55RyjTjpHFU852206KXe4Po9DR249dMfrjf7Ommpn90LLGzKc3jo+buk1wfyd8fZI6d8OePX/AFtvjyNHmnJ0nrLC36cdK79Wu7fXT6mYZND7J/LK2m9ssDZrZnGYfMcO7qWoQc5c5FqVeqi9OlGeDT3rljih5x4rVvG8N1tztBfgsRhVTLT4k52VyScZx1SSfofSjbVZ7Y7V4WmfJNJjZscqzbB5zROqcFvbvytE+K/eg+zz8TXHkpqK7TH8Pdb1yxtLnm02SywGIdWu9XJb9M3xcOx+dPoPmZ8M4rbduzjy4+CdmqRi8FAIEiCWoFbNWaQCFKYCQWzkxv3M1rX7Sq6v1KX4Tp0k7ZW+mn/kbHlco0xmGt8uhw188Jt/jPetjzxPw96qPNEqMcblICgpQEkQICAgIVJECAp9fWuD6wN9le1+YYbRK7nYrT4l6c1p2a66+s6KanJTpO/3a1zXr3X7ZLap5jKdcqOblXBTlKMt6D1emi60d+n1Hi7xttMOvFl4+WzNzOzLLbXTiXRK2CS3bd1TSfStG+80vOK08Ntt3q3BM7T1eWDyrKsNYsRXzVcop6TVvQk109eh5rixUnijaEimOs7wpO32dU4u+uFL34UxknYuEpPTXTtS04nDq81b2iK9Ic2e8Wnl2Vg43OUFKAQHUCumjMgSAQpTA3Ox+I5rMsFP/GhF90vi+80wTtkrPy0xTteF65X6NacJb5Nk4PulHX8J2a6OUS6dVHKJcwPnOIgICgpQEkQICAgIVJECAgdE5KaPiYu3tlXWvBN+8+joI5Wl2aWOUyqu19/OZji5cdLNxfZSXuOTUTvls58s73lqDFmSBQEgFBSgECumjMgIEgEK9cPc67K7FxrnCxd8Wn7hvtzInbm7ByoVKzKpWLp5u2ixPzOW7+I+pq+eLf7Poannj3ceR8p88gICAoKUBJECAgICFSRAgdX5NKt3Lt/hzltstfMnu/hZ9bRR/wAW/wAy7tPHkcvxd/O222ftLJz9Lb958q08UzPq4pned3miIQEgUBIBQUgV1M1ZkgQECQHz4Mg7Xmn9b2em+LlgoWfaglL2xPrX8+D+H0rebF/Di6Z8l85JAICAgKClASRAgICAhTqQdfyX+rZFCXBxwtlvjLel+I+xi8mCPs+hTy4v4cijwR8eHz0kAoBASBQEgHUKriZqzSTASBAQJAdq2Hn8IyOuD6fk76H4OS9mh9XTzxYYh9LDzxOMNbrcX1Np+B8rbbk+c+IJIBAQEBQUoCSIEBAQJJa6Lt6Arr21svg+TWQ4fJU0rx3V+Z9fUTw4Zh9DLyxuRnx3zyAoBQCAkCgJAVw1ZlMKkmAkCAgdd5IMRvYC+v8AZ4mTX1ZQg/bqfS0U+SY+XfpJ8sx8uZZ5RzWNxlfkYnERXdvvT1aHz8kbXmPmXHeNrTHyw0zy8kgkgEBAQFBSgJIgQEDNyanncXha/Lvoj4Oa19R6pG9oj5h6pG9oh0flUv3cFTX+0xEdfqxjJ+3Q+jrp2pEesuzUz5Yhy9Hy3EQEBQCgEBIJahVcTNWRAUwqSYCQIHSuRrEfHxtXaqrEvSvyO7RTzmHZpJ6wrvKLg5U5riW4tRucbYNroknFa6eKZhqa7ZJ+WWojbJPyrZgxKYCQSQCAgICgpQEkQIFi2Bwkrszw7UW41OVs2uEdIvTXx0OjS14ssfDbBG94WHlZv+Pg6teCtsa79Eveb66f0w11U9Ic/OBypIgQEBQCgECQVXEaMimAgKYVJMBINps7nVuX4mGJq6d3WM629I2VvjF+3XtRpjyTjtxQ947zS28OvYXMcpz6hVzUJy01dFukcRVJ8XHr8UfSi2LPG0u+LY8sbK3m3Jb0uWExPR1VXx4d1i96ML6L2yytpfbKq4/YzNMPrvYSdiX0qPlV6I9PqOa2nyV7MLYbx2aa3D219E6p1vsshKD9aMZiY6wy2mHmn5ybiSYCAgfage1NFlnRCuc32QhKT9SERM9IWImW5wGyOZ36buEnWn9K75JeiXT6jaunyW6VaVw3nstWVcmj1UsViOjrqoXS++b9yOmmh90t66X3SsOJx+WZJS4QUIS01VNejvskuDk+Pize18WCNo/7bTamKHLM9ze3HYieIs6N7RQgnrGEFwiv/us+ZkyTktxS4b3m87ywDN4IVJECAgKAUAhVcNWSSIFMBAUwqSYCQThNxalFuLT1UotqSfamgLLle3eaYbRc/wA/BfQxEVP73RL1m9dTkr33bVz3r33WjBcqsf1+DfndE0/VLT2nRXW+tW8av1huKeUTKblpZzlfmup3l93VGkavFPX/ABpGpxz1e36W2ev+dPCy1/aVxi/Wj14mC3ovHin0fLAbOWcI4N90oR9jHh6ee0HDhn0P6D2e8jC/6q/3DwcHpB4eL4ffo7Z2H0MGu+cJe1jw9PHaDhwx6JLMtn6OEsJHTyIQb9SHHgr6HFij0eV232U0rSEpz81NLXt0RJ1eKOiTqMcdGpxnKhD9RhJPsd04x9UdfaZW10dqvE6qO0K1me3GZYjVc9zEH9CiKj956y9ZzX1WS3fZjbPe3dX5Tcm5NuTfS5Nttvzswli+IEBAQqSIEBAUBICtmrMgSRFKYQgKYVJMBIEBAkAhSiB0XYNoChsJIBAQFBSgJIgQEBAQqSIEBAdQK4asyAgSRApgICmFSTASBAQJAIUpgJBJAICAgKClASRAgICAhUkQIHwFdRqzICAgSRApgICmFSTASBAQJAIUpgJBJAICAgKClASRAgICAhUkQfFFdRoyKYUgICBJEUphCAphUkwEgQECQCFKYCQSQCAgICgpQEkQICAoBCpAVw1ZEipFCiBQCiBAkgFBSgJIgUAgKAQEKkAogUAgSA+QEgpQCiBAkAoBCv/Z;" parent="1" vertex="1">
          <mxGeometry x="730.15" y="423.64" width="60" height="60" as="geometry" />
        </mxCell>
        <mxCell id="Fnnlz9H3tVM27utcZq8y-3" value="" style="shape=image;imageAspect=0;aspect=fixed;verticalLabelPosition=bottom;verticalAlign=top;image=data:image/png,iVBORw0KGgoAAAANSUhEUgAAAMIAAAEDCAMAAABQ/CumAAAAh1BMVEX39/cAAAD////7+/vx8fEtLS2AgID29va9vb3r6+vl5eXY2Ni2trbc3Nzo6Ojh4eHDw8Ovr6+UlJTNzc2MjIylpaWoqKhVVVWenp5paWl0dHTS0tJ/f38dHR2VlZVHR0c/Pz9jY2M5OTkVFRUmJiZGRkZbW1tmZmYzMzMaGhpOTk53d3cLCwsD+CyLAAAYtUlEQVR4nO1daXuyOhM2MyggiyCLgEvda9X///veTBIgIHZ5Tq30ejsfnnNq1eYms2dmMhj80R/90R/90R99ihCI8NnL+A8E/mi33B1CePZC/pkwYMwBCNjh9+4DYxO+eAhZ/Ev3AecsF7IAjP1WCBOWTWfFaFX8WggDGOZnJmj4WyFgxAoJ4bfKAt+GqUQgpPqXEldGgp69jv9C4AgI81/LSJxASMPQU54G/kJvAzaSlfaHw3Z4Zbvj+LdhgIgvX6GQdP5lPCUQnGb8n2IA9u73mQiErHr4r3EuEHCf49nL+gKhcWa35P4iCOh0AGDsOv81SgnHraUfKp6KBly/Yv+BYNqEcIZJMqt+GKWR3/+IFJuScAIeSBuZ9sp1Mem5XLRlwaFnDtAA1nvZ1taar6RNQxY3cBnPXuP7hGqZL8mY+0f2dcoxwLq5NVGv5QFtscjYC4vzy2aR5WzKxaG5CWwWB9hfZoKVkNnZtV7wwXWvbBsHNrgajKSvOwGdlu2cki5FyPUXh07/NoLykOHN8tejYABk0UzbaP1q2rONQIiyy7W5xlnmUMwzsYRacpx5C8Mw6JOhg/m+xTyZ43uBFUyAC3NCGAzmTVkbROzaPUHRtGi7UeCkr+qHa+KKZAZyPtKF4W24Ps/O6z33nnqxF/CiLS6Zx40t4VZhzTWrpR78ZjqKJsYASnLZLvaeD6I0aOsZ66bzxCPRDh2+9IRtyGcNI7lsoN9vU/PJKMQy3txx+HYHAjcMkQlCNZHDlIHBdoEGgdPIf6qWRWu/XgWje+u/WGZ97gMnDgiKUoyx1lML44kgAIL8zvJPU65ZTS8KIlu+F4PFOYSsXC0ctTc/zYlFCK/d65+Rs+fHV5EEKHMAKNJjJYKkfvc4ml2egwHtddfy96PAJLciZFOD220eeHZ8FPRwaD2BdPQMDF1+0UtskVsEMICc/uWLvdU3HN74yArHdsKSCxfAop9XTOi1lh8HY8Eqc/QXmXFvQQg4DzeMFaRfuettbcSHQx6r/ujyidrO20yqHkwsYcy8zqcPZrCQb/fV7xEMN1/SE/jxXag96NcsmggZcMUiwI0gWMR+c/HkztrBqoql9UwlITN+PhYqnaPXgHwFqeL3ZLNIV9LRp1y5dCWMSZCMKvu9z8IhOz4/aIALreYgThJQRZ0iy2Lke6VGESbp4jjLX5Y1ty1n+RTBs7mr8WwE0jso+PPnfl6CSslnMvPCRYHHyBhum8Lyms6Fj0fg8vXTIYgE5AmQC8GavANwhGJJpTSYqwiz5vo3EUKtXzFdPh8CiUIIJNOBZHuua1aRWhdAIz9JBvCt4UJgxJ7vZBOEOZKvvZJrI5PgWbZQ/GnT7XDAS17Z2tQ+Pn8+BGEVIhD5bE/Irnse8v+3eMRcJ492IgLikstVE9oVBKQnYD8dAwzp+UvNSkk6lcNw46FavWQhw/bGba43LeS70GH6fpjITVuWXlI+h/KsU1GsDJ93e7IAMaOqpfnTIQhOCrk92N4NGFgp6k3i8gPzkAXPhyC8ZS4Lw+ROyMCucZevhwHftOmKhc+HILZhf2f5nm9ZHnSqfs5H4YrvXPJ0w1AWK3TSRTjS487jBO5DeWej0sVPJYxu1z71nSiYcr+b3uB3Qzix+ZAz4FOitDbBrmMDRh6pG1WRJDC0eJ7yGMmcB229gKAfgOwTd8P/E1srjzux0g/FwCR3qImB+G+AZh9c1UYiiEyw8Fb31tiisEYGwjgCboebQTGOt/wFOBz6AKFKxwk6x+xtId1r7ta9iAVCvkAIWnVuokgJLrt+QCCdpGXy9pbIau/oXyEGVK3nNlOmZWYv7kclKFp0ulYC2JGglvQqd4FD2NuNjyi/gkPogWkbkHU7bepla2ZuV4bOLmum6TQIdscX/jy1z5UFZc7YpGUDZCn3UheLJsdIY8Eh9KPmrX2uTOSo+BIWsefm67DlZqD0jbji7YGrOpD1/ooK8MWB2r6K4VI62jQuLX8OUynoxz64qkRaRm8XEp6L9BswiU06w7ryaMhtJUtFjoyzoNsPCECGQJ4PijzdCcpNeGEhUOoxhnbMI70OOvD58eV2kRAGUbtQANJZldI3kxRydkTwLmzWftgCgn/th58nLQNLBDtdIjJyFpDxCiHdONzu2QhG6Hd90DT7UjwpM5Fk3UbKStvgDGC1Nc8s8xJyLe5wPLw9P58nCap86UoZuRml2RdsyH2MGzHQPzh8fj5PUlfoxrFM6OV5OljoGChzJEH5JsKVmXe+84cJRfqoLAEQ/pIPHhdr/r9mhG5cO3no+jzSo2IxTM1wwHpinqkJiVOgnf07PBgIuFFL5kj1F2iVmSQM5sj1LOWQY3/hsGccrnUSjz7j5cWvELgi937ZlnKA2STzJNcbBpVsGBxY6qXJuhdpGCKu/xdjVp1akb1Ce8iWdG7C10zn5QGr6sDIH+euK1gOwK4vXUskDBBb1eknGYaEXKVJHrmhKOXBU5VAJQhH/g6H+1D9iJ4H8qzEhaKuqc0pSGBD/sLYSRBdYxu7rMxjk3dOqQvENGB90apkGYYQakWQa6qhOnAIJMfA4oRxSRkqCIXseuMu7r4/nVcwosM2RxUmveVLvsaYzSCnyA2CaGSzvCgjUeRI96Sz4iV/k9MTeaaY4QoRSL26LK7knB5fYboFSh1z33XGyIRL/YNLAjyAswdWb1SSKAxzx05VQUjWjMo+hyCS3wsQcdFVZsTIqeLhGow89NiiN8JQUJzgDithGAYwp0q3SBxN87iBi/q1zAJDTAyGEY/Z2LYvEER6eF6qpGuczPiq9WOTscHNxapkGhSuEUn6pj+V9Nxj45qyzE6uQq5rxlxYTz6lZTYHHttw1jKbTp1pU016X1wMGboZMNQe/ILqbLkNcCk71pXDNu2Iy/O0N5w0EZ7FSne4QRauzWCeZZ3sgimX7H6kholEvW2zRoyS1xSUvmD3cRXfhwHs+yMMZLC4CGsFL2SCIYjZ9Xi9HxVwo2j1RRhkzXCDk94MkhD+mN37Npg67fvDSTF7zUemzklM9uYVwO6XKiDrSXqbE3JHbsDmWob1bDryJ24v7j5qbj16kpUciFbtMGLzOj3PozYwsx23ECPxqNUheuu8x+0RJ3G2HnJ3blNvAzWQADgRlZeQLzgV1ZOtbLbRH4dbxDLzSUMWxHPnIcNEhDYoM6mRntpDhEOfdJLFI4JXHYKrKuY5OBl2ioJtbcHoZDDtS1qSCN6Yrx3iXvfsLRNl/nwbNlRFCXnsg69VIaHDjKBPTZMYsgvU4hyL6sJiLJ78skhnCflQIew1DQvM4sKQ9mcbcMfsm8YpdrFBVlNuhfmbh1ezwgBxCFGfBhxAynK8gcD3wwAxLEaU6Z2BnWoMhkdZg/6YhgFemZd1YGDx2K71VMb3o/qIaCTpTewmhtqsq6Bh24WFU2qw+iRanTb2R69SRsktk6u5MbxdfwzxlTakdPzQEk7Ivj/bQD43limxbd2qY9iWagKdrRSU8hNASfy+HBwSwZZbqvZp+nGSGXypzqruQ6wPCnEuCjeeX3ZbEuUygrpgdeNQL94MKWeB4FU9YLt6xcaWB3uvqhCuF8Q1zHWAlRQMg1fFNOip5s/1ZeRqXgZGCDO+ef2ZeEhGrBCF3EfJ/NzbfhULNsqCk2kzlubGOwC/7ux5PpEkBFR9sQzKps8zZSLRskr+Ora7Um3qzeqRcSD7bAItvzwKPRuojtjLF26PonHQl1qAgVzrpqWVqDEDjErK2bLdqg1k5KzeYKAkvQt6620iD+D0rtRDnGgyDYVJiqAnZ7gyE8AMfSLDAjMSh+YkCfZWrxhWZ+CKYPnMZTeIDhVmAJrfvbQE38g2sppq62BmohKxP9aBjgRTAH0KwD4UtanNzm6tjEQgXPZn9qTIEkeNISpUMwYoeMyNcraSRkI/p5oI094bCydYyRiwJh1tOYohAUMxmZbXpqJDKiKLeoPhQM2SN/0xU4nhxNdZrAmGtl7TNJGCjb6oJeKYWYuTBGUyqju5EGxY47QQ/SVpJbY0e4JBhMQNTjpakRSAjbTamQnN7mDY50DTD196w0oFe2sooCM3bAdqNt85qvuzaA4i4bFSQgNK+pNlxT1Xke0Aerki/3Ufu/Iw5RzoIOCFodi+vhzAkWb1YLWukmPRwBDDChpTS/ZhzU1oUp8umfU+9FoR8ec5pF75crWWbPQM6Hg6tGM6jfNDqmao4gf+M9m/RX8SfFwUuANddw3LaW0IfnggXbQQvcbJZcnCkp2E5yfqFXuzD2fqj6wdjUsIcm4Ej66HCNHiyvIkiGIqeNDcVjGgoSeuBpUljVErrmf7aeB4jiXcvdjTBozNtG5ck7HcYvnz5yYRQcDeDIS7Y3v2Wl+cpeVl2HlBbcb9wDBlW8446XarFFM5SIJkeh+t9Na+Oh1Wik8/Rl1zP2ltojbCZiOxFGQxhhFE2ml73MRwpC7QPmwEF+mTgV3doILWupXQMHB3MHzl5vy546sU4Zo4AoI7GASFbnxu8dKE0pQHshDP3wgcrEX663YfLu4LJZmuZMUBLHIC6zkTSNUQBOOlB3NkkcbdHgGsxvrjdMltnXdk1FL5AiWnaX32YJc3ITx/LDFSnpg70p6rjdjbT7kgr0NDMtiCu6jSAmpduQhjOYboan2Wmx6HlQzuCESrYZuo8Z7HasvMBt9KEqsRtCEYqQgyXpxPgOAOo2c8THSoQIwSjjC+N+mAxxH5yo3mXqtTnbtUCaXQXscfLQ48vtn72cPSyyTNOY21Gd+FUFI7WuCb55AjcnkfhMxbTR54fArjPbumdjnuJrLlGUQ+SVoIuqr1xjJHu4nu1chxnGW281EAxB/Z0ALjI2vTDH3N0XA6G3xUx9Ap7WZ2obkFPdZLh9aZdFVz8hYrN2MZ2cmdMjhQM9JYHnTcrIEbpewendKszdv5zgiWw1HM7O0yBNrApYsa+Fv/bh1JhI/P4NTDDpcd6x++zsg2zCIYV7cF6NmB8bGeO74Jx1DBqM8nf+C0C0t+WL6wZN/GsDxuREkiZ4qTqutOqMrVFJVMNDwtPu/Y7ijxLxfuGJrjo38mmynd6y0LjYRkOOqs2WCyYQPNoY8ZoRoWoS3ul6GyJs3benvNIrtCkKuwVptI9hBPF5FzQx7NtmPS5MXdsTIUTp+8oDaFR6vsQ+7odBe0t7zJxMoy11NjFLl/vEKo6dvYDCacU1xnXwzMy53FEFnBfi9ivJclywZitzKpUsF0i7szdAXtFoEBMBYRbz5Nkmw6KjabxffNbBW+0tpxeYxjvweClr9mWcydcTFxkzu1IynF/NFOwmoDL0kYJtOidRPKlTawVcry+n18hUhMZLvDGM3bQjIdAruyIR2I2jwKFeMeZlnoyDpFAIfE6VwziulZSUwPpZSwgnsm+3OxiJM0WZFQfWfqX0QDuTffFB6EJxZ1JPJLiuBigjuDCT1WIbtvo4hYXPbZ5G5ghaEbebZge5u4R/+212jiBG62EMruW1u4uIrk5nkd2KsYYT669TusrSyFY8WQuSHbrc7ejtlVDea66wadXde0I52++QCGg+A7cSUZpcBgy32HTENSNEekiyqh84plp7XFzu9y3zv07ToWgdLDwgMlzr6wkQFemnc/yqVwgyKLM7oLXVvwMc0e0QrIXTaXa87dijQNDMLTmdswMJz2DFAioYGItzbdlxi9S9fDIvQfFdLxrUg5inXikzTS2IY8ifyug7p/Jf59dsNoPwAEicKZ7jOIuEHCJL/xnv6J3gRD7l38oesFaEYyccrpIu5RMqIwPna5s5+kwhpzh9wIjqMfTaXxp+WlhXCKdps4nPMdsZ0gTLIsCaMxtwIK0nW/XncUkNYkoiJUX/mDACQK/jftKCtUWHHKp27k146aafu2UQ5cdk+smNw67IX17LsQBgPpUvtRWHs9281ilVqR403G44nnRFY6LV44p1/rwV7nRRoFwdzuxbUaklCNt7a9yOV+z2bdKRi706yI08AzQB6B9Wb5OiGWYMA0xvPAStM0dK0gijzfMFFOyO7lyrsJm/Ts5fzRH/3RH/3RHxE91iL9wGUgiG72wG+HYPXgjlEEa/nA9inwZ+yxY6MQJsJ7flCvBcjCyweOjUIYq/zpIwq+6OITmSn+SpsfGoae+O4grIUX0aqyXA+AAF6VsP8KBBp9uZ7ll1Ecx1NFMdHiUrwez4eTCFJkh3bjKqgHzJrXkoBfaD2+uaCqm+QRbKMC/dvFGfU7RL9y0RW0D7276E0dzDhayiH9dsugX7L+pbu6wLx3YlRTeYsTQlSlGB8wIEwd6BB9sT8O6nEFViXaaIy9KFE3ndcl5PXB5CNGCmM1FuirLX5VvVpDiETALnOiek1IObjnMVORy5KtL8+ZLWvjb/WAxKCLblnA8KDBzvivEOJ7EGRbf6JP7piXPPff1npvKed/g1Dqsw4Ioq9KF111IdqjdkEVy3wdgnUXgtiGxnKNx0JYfD8EYpzoByGMvh8CN+DNsXi/EEI7QvuNEFr0B+EDUhC+3ID/fwrhQXNgvxtCZ6rlV0FA5+ayv8HvgkCjbZLbhf4IhC9fT9wNgdyVjvDyMxA+TvbdO6H6ZgjrzulZCsK9wJMKDQx/bA/unruqd/iG0VEr2IKAnz0C7YZA4zAnX4QA4Kxmsh7yJe380wjetGzi2B0WYeuS+iYEjFZu5E182zDN8gT4kxDEGSu92LGIdyCAkTVqHjvu+ASvXYTUNDAtCOyGlt03VpQQ3sq42R87snz2vka6hQDGTSLhpnS5I2HS7O1WENTDhI5qmu7bmKppNfvDqXGZZFdSTUFo66ryYmW2Saab8vPt7K4aN7srVllWVnee3oEwMNxpqyzr2C0Y2OyTqun8DoSWDTEUg2eiOqRsCWiO3lIdV67KkrjyaTU4owWBZL+qpi5Cxzc/kIUb6roGvBMCGlf9E6hG17cibDg0PgmmkIsGZ7QhVLw3dPG9IocKwsvs/HLYDisOfAdC02JU0z9V/SVOOt6lXqx3BkWw33gYNxBUfXr4QW1MrZGqRJgnUl5dJxXdEBTqKt+thgc2kscqy6C1D+PgyppzTBWESghlFuho3OGfDgj1SyKV8HkIMslXd7CobWlAUFytx7EkHdt3IMgOq+zj8qRO02Z+BQL6W+rM0zh4cfsuBWHdmDnhBI1vb0BAFE+m617jT0Gg/NinZYEKC03dcqopSk1ZUI08Z72loiWhOgSU8+GcTyDohkDZl67Wpm4IbVKclbW/UYnM3RZIDQJ4pOWun+vRvRMvdEfhn4Sw6ZIYVtHoTtFvDUFliD95LHnHU10tuxwhBeH9gypUl4G2INQtYYy9zrtAVBCqcXGfO4K+swvddYofQiB/cpx37pU+7o1boeD2D5SDHsKqJflzN538S/jfDYGGrcyzvPJX252OrYFR65vxDB2zKj51y+Z3QUAYp80ujJtmzXYhejHo1Eg6LR8F4XZ2EGC9+0flI93G3u2zvaXdFS/QL6zy1OozrPQdEBBLjzIX/YJyNzoDI7tsVhW0b/6yhDDiPFke437Ctn0DBIgk/y9D2XyqrHNneKraTkpq1BGUEMTXV3ftfjyV5b9DKOOdaalj1GnNnTwHAmo9lXrAUEKQ5QblBP+Ps8T/GUK55fVQp/ch0BsGVTOSniZpunnVpSIfisO/QNC3vzx/04I8pT0bEFpd2tKBYK0DVQmhLOap5pR9NPHqv0Ioh2Vqf0c5242Dxihv5nTKKQjxfQj1oIQPWohLF/KfISgVquVTlI+kZ1jotrSWDljcg1BdAl/Pj3rfYX3n3PkuBN39Krdbjxc2N7tA72pWMalHpxuP8k7U6qXanr+LoeyR230CQsn3h45dqGUBFaqZDGRroI1OXxUD6R4EKOtYO3dYRfLvDItC/xNvqt4c3L63skehsAncKPkb9cphejmr4E9qeT2IlOttclfJ+nWOoJ4bcndGkTYu+Bp81PyGdVdjUL21nv1UzG3DdlqOkmILmYJh57lqdylH5mryUg/COtQpF63HfuZ0tZ0DOI0/eIzD6O4QB0TrUL91PwrVVnReWV+TlJEK/Cl2544TZDLJoSUkwamt9pV/uQpQ9SzmdhGvWq4rth+YoDvduB1lcDKDcjMkZjSud2up9OHtZFaiS43AvGlbfVHQWu5rUyd0D6i5M1UGbrt7VQYFPT0VuxJXQqugoZpjjfOOrlVtLDd2NISq3Hg9I+MWAl9VHqduEDme582jwA2z0eXugAB0ZptLnIWhFRC5YRKX+XfuqErNscvVjAWkqeIzbUCmmNp40WEcXZ2vkZzr/XZWXOJploZhuhrF1TIFhuXw5VgUo3bOv+wlK+ndMQ2y7k1/s6ZewJ5Hjt5VB2Z78At9wvTpSfHHNrn5LdQ1s2op9bf7njH47ikSt/TJFq9/awf76x77oz/6oz/6oz/6oz/6oz/6oy/Q/wDiJEgFMeq7ZwAAAABJRU5ErkJggg==;" parent="1" vertex="1">
          <mxGeometry x="16" y="233.99999999999997" width="62.77" height="83.79" as="geometry" />
        </mxCell>
        <mxCell id="Fnnlz9H3tVM27utcZq8y-5" value="" style="shape=image;imageAspect=0;aspect=fixed;verticalLabelPosition=bottom;verticalAlign=top;image=data:image/png,iVBORw0KGgoAAAANSUhEUgAAARMAAAC3CAMAAAAGjUrGAAABjFBMVEXMeFwAAADLeVzMeF3Pel3MeVr///n///bJb1H///XMd1rSfF////vLdVjOeF3Qe13//////u/UfGHRfmHRfmDy3tju1s7IblLKdVb8+PbnyLagjYKyalD16ePKcVb35N/57uf46uidYE3Ccljo4NWPTjbv2MbRlHs0AACASjlFHQz99eb56uDYn43s0shoPzKJUkIgEQ/Lhm7PjXowHxvit6laOy9NLiZ5TzvDeFzw2NUsIBkABQC2aU7XnoSoZU9wQS05Jh9PMyzaz8UpAAA3CwCaUTjVpo3owLebVkRmPTauZEvHs6rW09OLWEDFdmJ4e3zDxsIvNjV6Z17DlogVCQfisaFRLSTh4eEWHB9hYmFlQzuwbFyMVEvKhmZpODSroJpFMyRlUkytsa0aFA1EQ0SwgXtOOjxqLyWliHohJirKsaWlb1wZEQZZPi2MZ1iKiouvemiZhHvIurx5SzBSKRi7sqVEGQSWiICuoZc5HxGYb190T0LPu6d2MBNcKxVRGgBHAACTQiaLSDpDB08OAAAeBklEQVR4nO1di3/aVpbmSgKEZEkxQiAR9OARKOFhjA227DgYOw8/ahM3MfFO3DSNMzvbcafbtJP0ldnObv/xPedKwjhx3O7+ujHqcvoICEnhfjrnO4977iUSmcq7wjBX/Q2mMpWpTGUqU5nKVKYylalMZSpTmcpUpjKVqUzldxSB53Xekq/6a0yS6O10Pd3s8Ff9PSZIpIW6lk43nSw/rZEHYtVXAJN0Ot+OXvVXmRSRGo5NMUnfl676u0yK8E1TQ9tppjtTTHzhNRPVpJnWppgEwpsljdqOPRSu+rtMiuhZQ9OAZbX6VE1Gwjeceloz0wv6VX+TCRKLbXQMYxqznRNBytjmlh6dxmxjwlpNM81HpzHbuOgds85EppiMiz40622ZveqvMVEiLdjm7Skm58W17S1pisk5kWw7a6miKCbpv9y0wISZYL6+vdyqdvuf9/sbO4Uco3KR36A3ki79QTMCTtz9eG+PnJP+/kDhfi1i4W93Ou3MB/mOH1Y4cbBEHhwcfIJQLC51H8/NzVNY5nJJ5dIr+Y5pOvkt6wN90Q8lnDIozMH4H+7tPcoVXaAUVVQU1d3vHqKytNCG3idSxdY027Y7f6RMCQHpwtAPW8xTWxtKLNqK17rMKWyVastGLvk+wtU1hERLO+0/DKckWaohZKnAKoKlaVs8i6MPollGUQt9yiwF9UITkhq2VgdN0czGH6PMEBVdCshGa6BGmWhEamrpd0xA4Xo/4knzvYt0RQfTsU3NtP8QesJyYhERWWq5OFhI/hh9S7PfTQIZLpXbQWLp5sR37iIs5PPAJnlT+wPwCafmlnCcx1FBZqMMKwMu+n3bfHrR4+aSbOsxnL2svu2YWd40DCOfd26H33TEHPJq102CXsiCAKEZjrbimI33PG8u2YMrlt72QPrQmLl2zYhthV5NZHcdaaQnRs6ZiuCa5vC9gwMT6pPD3jmqlRYcx1hYaLOhD084dxF0ZCAqoB7n6KNoO9n3lx/BCYEB9cZIRXC1vDHkLTnsqZGcXAPGbKmRdwtIfFbTeO6ylVUtQgri2Pl5o8nLvyUpmmjhlH1CVtHXvIUIxyX1juYUc67LQFoM8m70yiTh4mLwju84eY33qCjMkiyCu1l0YbjCmYdhmGRSHfRaOw8Ojv6FZjxdyI/3XVdNyeeRY5PbZNlXFIhN8rGnghx2TJQWuhsY55jL5VJuYe7zF4jFJwd7fxpPjOefFNy3ckBxjhxTBRLcFdtp6NGwx2oqRmmFJHIi65OGyPTmAggWP9XMLUth3VyhtbHR9w4uLZ+zIa7YXxwgp/Jl2+xYTCTk/KpiiOGKY+bAcZ96I+8WCjlG0euASUSWOQ75hD3e7y5iveAcs3CDVZKTgUxsu6mzYadXUHsyl+QYJgCFEwuLNN/JsSqXVKJRbDDQz9wIQJNEY9sYiGPawOUIYfUGxPSWEPb5IHGbkDepM10XB/sYzO64SY7qAcMwVta0mXPPnhXZ3i3QrvFqgXJMHj/FtE9mQ74emnNRSxghGIVYwKpJgVXG/IZ034SRvnWhONhAA3LP5jnUz8i3ttMBywk3Joy6ROajI8/JKgDJYi6lyFHhbFwCxOrvFkI4tbAKqPRSwYlR/dlJaYuPhN0Ni0CmuZH5s8oyjBIe/flBCa7hXJTxiCxa2ZzqvwUy+fZkANljuNUEiXEuygSDEAGSzwdYNDl/muXYzYsyHjnZW0UHRN9IbdM8+iu8CTEkEs/zepfcckfhldgDZ3JR3czS8mmd47h3w3rODUARJNt0hnch8QkvJno7rWkfQ6ym677poNLMu2+fJ4PnFbbyWqHXK+QgrBeT56DhmEUk6YjAZw1nKwOo5lIfaAS/uwiDmr2SPth7zgk+JHKRkFvHyrm8mBPdXmtugzzY2/sXL4q7tdQt5FR17BQGIttCih86jpYRINjpJ0MasTE6djRunhzUi6yPATtPDnMcvBthwiULG150/zBvPurler3eHJZgyYsWc5bucIAlOW47eactAb/Ok+XLp8MmVgRXa6a1g709syF5GIiQGQ+UcSpI9UADVnf2e6qigl3wCsdwYiq3THFaZkcWhDZHHMeoSBjhgTN3w0koQmWlqa18u+c49z1MIAolx8pY45qMadBigVFE8K285viOB2ARmRaANVZvTLXIiWFkcXaYYcTHSC9hFKliaqWDg738zBZP/Y7YJ0viGCRKbhHLblFZYCEu1ZtO+mxCPKqkcM7r0yDdYfQfjma0TDSKRMIBzX7QofxuwrJ1bfPkKJ+PGWlL8tTEHfMn+L5bTAbBm551HHa8JMKxYGo7PtVKC87R0WFAzsnHpBXOSoFUyZ8cHJmOZuSdSiaSWgWNH8vngBUeDyIMPHpasNbvO85bC1Ywhu3SVwKTzxt/RmqlZ4CidN+dBguFSP96cGDX3cyWY8aaPCTHLjuaw8BEcDkZpW+pY5XattnQz1OnWiXgd0G3+HTe6NxFavUujx6ScBJKRFwlLZ2XWP52PZ9PPyE7Z+OgEX/SG6DvqZm6+U7fhNqCGG+gFDuG0eQhvV7yL0ltkGU1EkLBceNzZyMS04RE5U/bShBqce4tGN+5PDCqr9jNt/Qkwig5CGkGtw3HLEqYKhU8QkJ3/P7WlAmW1DpYvY+CNSwdHJVlP1CJqEtkg5HPAcDoOMcTwRrb+GHF3SAvjLyxIERk9m9k3rsfA3FbLoSgoJq8GQXh0l9Ojsz8grcUMkXD87emrKShZkdT7MDNqckxLuaS/7Z3lB+iO+fAklrU/pjUTiiNB4uwLc4fNgNkcOrkzSEvMawM8YV73m/ICtP7Ym/vL36LX4s9+1jPGkdZHu/DyLfIYtLrZMqRW0z43LELecuoSCC2yAu+ktbMeluPqqvAm9GxKrMsHgOAfz04GM3xLO77oMlSI28c4RQgwzA4SVTwLC7VJW9C547lXRjZqG0kCY5CkeRmPnato7dILzmeGou9DZoOb+6drrnugHX3IcCdL6g4Zrldd4wvg1he+Rt54d0SLTN0hMKBa/hq9CTBdI4ZJqI3DGOmSR6LY0wSTeHUV7fHWk27bDEQxEUVlWbLy4wiSJppNIQuTuyAB5Phpi0vCQKUC2FTFDlH6cQbPAA0r4JmsLqrGUd7P/FnQTw6FrKM1Ug+a2qQ8Xh8kXRbcLyFzmiL13N+kM8kF8mqSi+GWHYpjJgUFB8TeKjVZFTGAfOnR0fGVtGvHjIYz77IKYLAMPrQdNzRLFCUUwvz5IGp2ToozgYZ0KPAS2TbsxlxibghK9+jc+kFWTADpuP1isvu4SdHhlGXaF2AwUB1TvXoVrptO+3I2dQYxPH/fnBguhIFeJ8eZ5R5UA8KKOjeZ0q4MFHQXPyvjMn9wCNVZR2gSl+LGQ0EBamkp/goCAM7f1saG6XA1iH67eHH4vy8V4NV4IoBPQc882rI6rKASTfIb8Qq6SqeMqiH5IXIU6qVJAhhVl0hGsyJspq9pY+V5PlyPr8JcQi8TIKvomdhGXLOY1m4+p7Fh6ntETCZCzgQ6KTlv2bBxSRlnUnPGLV2lcy7nBzxJ4oZvamNtzFiN1JabpE50AaZIRveHZKPvSwKte/rIzO7EKJluMAnraB0CJ445z9/cBwFDkuNQ0hiHpCizGIJxTtN2iqVzx67XnHyjiuw8wQnP5LLfv7nZdQAoqBrRwcl09wKDyjw3as+Jki3A98kAJ4B1Qq+bR8dbbZ5LqgV0Iynzoy8tOtA5mdh7LqPYAwCRRG7hKgsnm0eHew5dj48DffR3EhPwIH2fTZU9mFoHjzK+teGYQz5s4AW1xWMuuf5Mi5Ph4CeAQLC05d9d8wdYzUKt5PRtG8PTMO8cE51IgX0JJiFEZfJG9+5qGA6SpDFHTaca9ea7KiVQmhrWvDQ+U7eSNMsGqi0B4oSHZB9n1sf07kM3VnBqRLbNMLTSj2mJyOKBSBW/cYJOJjjGfDKTnv0nJnRPihSxczbmeCax8gfyY15737Yz3LHchtG3rb3TrSVWGjW9YPtLPu+WOwH9TFxB7JZGc0DQpblJCvzwxnDyOoeEIy0ld6iLwXGtvNt7ygLQSw6JrjiGECRJF5/8+DEdBzDsM3SwWZee7s6N7kyhsk8Ofa6wJlDSOboq+QSwfpHlF+AvDfd1imN6J1mkzbQ62XNaQTqw+2TAs0AyZLOWwvDZv4apAfOSqdsmqW9o5mF0DSFym4QWyEm3oweOKAXXgYHbgSr9jBQydpCqqWcIA2baVQOfqjZHT7oz5IHWJWTLH75k1MNzjWuOc0HpMXrVqNZN78m26Ep4ctFwMSLPJLzPrEC2fa9AUCeMxh5mIYDUa0lcZDxpNHxSBVNa0qjmhOjLJE19nZnxQBzuVbLDiu6/hkh6I4tHqdILljyNJkCmHQDPTkEPqGYLAXFMXVxbtSkFpGYdN5wKjwrtFfSDUlgy5rG+pjoOp95+sWJGbtmGM7es68XZEmSZZnF1JHFgi5mymEBBWxnKcCkTz6leqLO+y8gdCuM5bRCZmgYsSwvWZo2zFjZkoMcIUhWRlroNEE7jq7F8s3KwPo76BmdIE0VAAk5GmEYmfksPKBAUO4HHuB2l6lWDCALphQL/tUd778SrIW8YZjtoVkvL3Q0u6FLOl+sdNIO8kd+5dmfj3nekjnwW1UFe+G4ZB/gidIKlIyghKNJJ7UUTMFANL6MWoExvl8kK5DUuZ40VtKboCqmlm6mTQ00ZsHHw0532lEgja4KLhxYFxwXnQuQ3Vuoal74t0QOB2EARVC6pOcFr+IToBaGOtX5ZMQj237y7Sk//r5he5u1OVsa5DrAH83hggDuJSIkUcFYELFA5osytsemqqOlXzLbJy/cEMxsCKAdQaT2KeljkgNuZ8MPz5f74+UgRsqAabTrCAkuo3YMR8s2VMuiURswKtdCIkFVwFkjFwmbZVaJ7+JBaebJUhimwODb+5hghRrVAo4sn2HiPVcZiMNygUm1PKhJGv7R0nanwli8Lp1VIRnwWC3qh9jkHBgK2gwHQJCi9zcke9guOvGaElWqwcIsLD1iDUT8irQ4xrOdw6QMcFi62xhm0/V83szn47Zm29R2IKyNRmWZOaMcxg0mdiIpsESaWnNA2YsBjRdwge7EgwL67gcoGE0gtYA1tbz6srhOpKLb6GTTto1r7B1Dyw4bdVxtD9bjDN5diALXVn32wESZ3hiBeOPbYGqZkPmJX9QD/nbRDxuSi7TXCpL8TznI4TL60y8eNDXH1JA8zPLWsOHqvJQxNdup25pZu6AgIuOsmacHmBf7UyRzxF8PhwDNk52Jr1kXCfHbiuAho8qIN0lVqNwHr+LkD/Ycs641s402owN1CEKEgcDNNk3bNrSLNmJWeqQfxIAFr/QWEdRVWq31Thh4VcqJFvjCQYCyT+7wEINdf7aHMQc42vzeHsARsXhJkrx1pILUMU34zDRmnMoF1UQ0Gb+oFFH6h96NMeIZ4QdRfmHyVn8JOsSfo/EkKQUIkKdlen/+ugkx2BHk+PGYk95qvCQ/Sue2H5Otpq3VhsXKsNI08sWL0n/IDIqe9UBS6CPB4mSj//lYZW9yRH/arNvNRtDlmmyRH3lLvd0BY4GUxXFmjIOPtxoDneelwciu/EvdtK0ZDV0QJMk1nAt3ZgCl2PAMRawGGkhrmf7nwDMTh4nUNnHjmnpWp/kbr7/807Nm2q7jphzXjvaaw8Ybsm5JAtZfk6N4iwq/UK9rtds8Npkw+jBmLFxUiwfr8cvbBR8TTIoDDpEhGcpNmu3waS80h3RFX2hslevO3lHetM0Zp7n1BblrSTKdGqTTfpAqt5RRhYRvQICSdYM9KqzSNfuiWrwYlO7VHUKjVjFHyE4wYeJil44wWTU3oe2kPTHTNrgPTbMNo9QZViCHs7Yx01HQO3sF5eSbYLomgmU1x3GyZxwiWOZFu+xCLuxNGoN20LZSd+6QLKW8LmLRXcIujAlb7CTdzlNEILE1IfYwta3ON+QVDxQhsBhSFCHwPCQ9TzmwY8dPUAQ9u7ISH2aEM73Xh4bRfst62NR+n1akBG4OMj6GkXEDkI0oosCIOYhUNtxJYxPAxAS7wSTOtDsdl8no0i45ZLFvjY2maGILMVYw44XTpQqiYLnZdLoOxDy+itpqGvZbNMtCdtNncea4S14McJJ5hxwupxjIDDm6P1NLjE7cdihCeyZmYhqnmUPeEhjgS/ZvpMfRoWIOJ2MtP6BEP4yLWE+bAOQCf54co8UZY3huCxxQrMVCKsKycKdDbEkRn5ClASczEVbpzWP7WxI3Z/owQ/3toudnTExfNKftD0eZwwQHX4lvyJzKYAU/yJU9eDKNdNNMsxLzlsOwhrF8e1xTlH3IKBkW+0g3XEmIsKBoXj8CNkT1C0lWniwq8URamIEwFILR0Y+kABl2va5heMyrKm26CFYjpeZJj+WHdtpu6sK7G97wmpEep1kI7WnrBtyokAQqhYDwWEGvzsg/kh0VOzYmEZOIXtFiRswZWoEHwT48j0k9kqWxeJDdL5Oq1NHS9Q4vXdCWJjXi57edGnjLUzgfG5V0UxHkD5x3hqAmyrytahMiEt+uLLD6GV0WyaHqT57fou2cKgkKkjC4DQznK5YsXNSqBw667vJnG8S6ZBXrUmAphwpFwu/4wZKEiCuA2MnEBOPXc1EThGY5D4Jkn+yDqgO1BrOD3Ocnebt+YcBKhXcMbTgcTbBDtuPiqCHblr0uKM8IIc7fEcO02ZRSDXJ5iMvxwQbrV9DQVk72yhHpvc3Q2Mlk1+sdbyoZ+096iAlg0+Mi3HYwewY2uJOcVBW5SMBA5j1CwWYcrN2nDmk3CYy4nj54dlnniFpfwfTJyXongWbQDC9ZxQQBbtz3bgxghwsTbCTwAhLggVV8sDj/pUQYfsuxnWdgWO9TeibSwRI+ZAmOH/QXkVUjXvcXh/pGN1dCTDZCM4lOBSc0PEJxvVWjYP53JJ0tO3mnsn22luVd0ZsYFdvg2v12LhVyG3pLCHoU9GN+K1dhbOO2UIjSCla9+nVqOff1gdbRzHy+LQ3OOmjflQwWazXbcQx/wYt46FVPOJoBgh/zKrGYMExc2eRSGbP7DfIpXQF6cJKGFNFu6yy1gvddyYOjhn+cvOnXqMT+IsUErBBegEfredcqvUBlQiJnNXbwD+B4pKH97cm36bQjQUIEoWzhvRG50C5jnmAaFX/uC8zQw4RFKwQLWvccD3bQhmvVihtkfeA3+ilGN7XNZ89W0toCS0fZe3/WJhSbYDhmRfIbIwFU360vkhwHNNL3gQB45id+EmNcmGBBfhSTPgnrTicnm2ltKDGYDl2CSUSAqLgiWTh1jm8hjfQx+Rwrj6gtfkRcGK2xDYcoPwZ2D+jk9IZhAybfpmkfLOZzl/7agSAEhSZOcQu+L8ZEEqBUF/1JHlpaqYaJZcUnQW+s+oJ8qvBlTTvwMGGQgAu/aSxR0cVd/XxCFikm4NGCNQ7iV2QxTCGKOPrqqT7pcnrbMUsn32ombv4KXvU36LwsunQjxDeuz8focigmwdo3XHccphXYymgLCmDUjWRUb2dLe3v5hhWhfFL41ecrDr6iP5/hilG/huTRNpaSgoAPdxMKEctCEN4fZYHzySgj8GufPGjr2JQGMW3h11avsbjF3SGuIMWNzvEIZE7ocWRmVHaIKH8fOaEwCDaOeLqAG33ihvbYc6/Q3V8x8L88e+PUPiH9YzUVxQrJyHRoew6Q7JeBwQwui/4mT2BUXiCLa4NZgCI6IKsq9a+/jonbx/XE8nhJH8KUQ9oYC/zUCnDAHChEmGAHDVVxrDvS1V4MZMhexNEnx5digntD9pTxqpPoviFkn3alKxtnDC2OLbQLgYitsUVrdEGtSm6NAtLj6GWb47K4jwU7WorCiGrrkJCun0AtjfpxkHDDhAkEIfve13WJR6nq4i2VcgNov3uZntAluNyoIM+l9vFHed6onrtR+l7hjX6UC9eidJdseA9WRW7AUtsiKdKtO+CAGr2klMrtk8+TwRaiTLKHUcpqL+XXoSCDzIUVEyZI5WkvAUNNhnIsJLjzlza1Yg03iHMFbKvADduivv/FhcZsYHhyMVyYgM/0Mh5sXaSY9L2aIwRfi8plvRGjpli8C93owlVkmaGTFqK7OLYfGZBxqDKe1Oc+ySpz5A3FZIlU8WHjqqf31x5xg6D+aEkh3bDZPdvnG4OdxbOWUfUwVJkxowaxA2g/xUTpQjII76MqDOSyiRlxdVRVhChnQ8VpP9pbwTE7XmuFf7Xn0v5vx/G7ivrG95OcPxvB9db9sRSZS/uKxO5hsBkiS5ZGW4GyycILSIBYabTRASQJ/TAlxug9digmDOO7XiEwfeZX5r25s8SuSH8pj77E4I/69xEmESYXhhUIZ8KqPb/nJOr+T3+94KzhQDj79RGutzTnpvCDEM2Ivi3y72zqsqiEiTymMpWpTGUqH0D+V12ZHCdzwtkbjhv/9a+w/VaVXCwWLV5g4I8ML+FrvVhcQ8nAIR7+p/M8HuF5bADkGDwDT19b03ldphcwcnH33vbuU3/tZHRt98b2WhtvSMM1emsB/8zAnaSMBRdnMjqPq451Xc9kRttgwNsMf/V991zh1fel+oKwtv68VG+37m7WH60/LKHQF/XtV9dL2Rt3D+BAVopECq+evy5lWal1Z7NU0jpW4dUPpWxx/+bDUjxWpmOL5qp3nzmxa6d4Q/yFN643B/epSLn1J6V679U3pfKNm6/hduWKdePua5DNsvcrrnLvsw24efTqtWr/5utE4r6+Vv0xkcje+G5z5mX14bVYIhG79qjajdXvrX8zg4cT8Vi8Lm0/fogvam7rbglflO+9ug4fv/oejtUoJlyu+tFmLFarnVZvztDlgdyNV6/jiaGUq96M1XbXH87ART/EE7H47MKNm/S+M7R3R86t/zgbh0uv/Mfji607tcRsObNWXZqdTXx5dzNWEdo/Pa7Nuu2X60/iiEkMMYl/8aQUe1T9qJY4fbOZKOORn57XYy9/vj7zj/WlRKLBexagbL/6JlZr8zxAEHfwWHH/Tml2towHEiNMYv+Ye03vkhjebgxpTZLJ/XI6m/6qFL/q3bjk3fXnMXN21gJMEolE6SPEpHjjI2eWl3ZRT/7jO8Tk5mbsX3++Hjv9+WFcy1TvzsZvfFeKfQlDO4Wj//j5ejzL+ykM0wK0cGf3NR8TZne9O+PUZvUiYnIvwGR44+7sLGASq/DBUjqOk3bX4aFcOSb78P1+gG8GmMRKpZlvKCb7d2uzPJdb34gDTolZxGTmp48+BgR+iHUsGHXsp7ulGHBK7BHqyT9fx0fLDqJgVXHIGLk1NBWeEtb12GsY6do4JnHApJQofLc5W59tj9a6wLmv41dtO1EY/mb8mx/iWYpJN1bbjFekESbdWKJWmwWaAc4pbSYSqBmdDBBx7OVHm4nNUmIWKHjGQ8rffpjqCfADl/MxYfFv+P5ZIvsuJnHEZHam7efc4MEH1euziYvWnn5AgW8OKgy6UEdM6v8JdJuo6AEmaDv/9U/PdkBdZm+vrT9Ehrk5G//l7uZsfKZW2Z4D2/mP5zFH1y1PVXZf/ZAogz14eiLIu9U7+DfM1tb+/l0cMYlR2zld/y5Bbed2W/XaaJlcb43f/vn7ePZqf+0Z/OQ3iVp5s5Zwq4/jtRs/ziZ8PUn4mNxbv079Tux7J9Gwtj+qxT9+Dhz7y3fAhW1e6oFhZO/Bx/XTU++3ENj9pURs8/Qf94FPal++fPkIOKhW2qzF2r8Am//wfBPOBz05ffJxvEzd3L17bVpWkguA/CZ83rlSTBhQ7I9jw//66PXM6TpgsgtPKQaYVO/4fAKYvPJ88cxPD2O1KHvjOTjRWK0IrDHTtqJIFjNZK7e+GUvE6tTzyJHtN85MAm54JzYbi8VKcPPhvf98HeusVb+PJ+LxmrpNfXFi9ukN0DY4xfPFcPNuAn0xc6VRW7SYK5TLC8Xeo3p592W9zOS2y6XbUjHXK5fbQnH3Zbm8tvuonF3bztbv3yuXO5K4dpwtZyMSnAhhWDRa3L2vZS1ZzVSGneD5clH+dqfTWNvWyiDNe2WtUoS7lCVlbQEuhqj33il+1LZy1XKtVgOW9X5JDb4OfM5edSDLyTwE05zEW5wAEQa+lYKjeJiPyPBZhIPD8B8YhwynQSrAcbwXhOOl+KckWWPUKFmWhKegKHhLeiv6E3s0Q6AfwFHOykBor48qkbj0/aohmcpUpjKVqUxlKlOZylSmMpWpTGUqU5nK/0f5b9S72n84lxrDAAAAAElFTkSuQmCC;" parent="1" vertex="1">
          <mxGeometry x="279.27" y="340.00000000000006" width="90.18" height="60" as="geometry" />
        </mxCell>
        <mxCell id="Fnnlz9H3tVM27utcZq8y-6" value="" style="shape=image;imageAspect=0;aspect=fixed;verticalLabelPosition=bottom;verticalAlign=top;image=data:image/jpeg,/9j/4AAQSkZJRgABAQAAAQABAAD/2wCEAAkGBxIPEhUQDxAVFRUVEBAVFhUVFhUXFhYVFRUWFhUVFhUYHSggGBolGxUXITEhJSkrLi4uFx8zODMuNygtLisBCgoKDg0OGxAQGzAlICYtLTAtKy8tLS0tLS0tMistLS0tKy0tLS0vLS0tLS0tLS01LS0tLS0tLS0tKy0tLS0tLf/AABEIANQA7QMBIgACEQEDEQH/xAAbAAEAAwADAQAAAAAAAAAAAAAAAQUGAwQHAv/EAEgQAAEDAQQECAsFBwMFAQAAAAEAAgMRBAUhMQYSQXEiUWFygZKxshMjMjNCUlNzkaHRFRY0YsEHFCR0gtLhQ6KzY5PC8PFU/8QAGQEAAgMBAAAAAAAAAAAAAAAAAAECAwQF/8QAKxEAAgIBAwIEBgMBAAAAAAAAAAECAwQREiExMxMiMlEUQVJhcZEFI7EV/9oADAMBAAIRAxEAPwDztSFCkLoFYUFSoKBBEQIEEREAEREAFIXYsVhkmNI214zk0bytLd9xxxYv4buUcEbh+pWinGnb06e5FzSMmVC2FquSGTJpYeNpp8slT2nR6RvkODx1XfAmnzU7MK2Hy1/AKaZTouSaFzDR7S08uC+Fjaa4ZIhERIAiImAUqEQIkKUCJDCIiAAUoETEEREAcaIiZJiqIgQIIiIAIhKubt0dklo6Ssbf9x3DZ0qcK5TekURlNRWrKmKNzzqsBc45AZrQXdo36VoNfyNOH9ThnuCvbJY44G0jaGilSTmeVzivqzztkbrRnWaSRUZYEg/MFdOnCjF+fl+xmle30PiSRkLKuIY0dA3AbVnby0gc+rYBqj1z5R3DYuppC8m0PqSQ0tAHENVpwVeqMnLm24R4RdXWtNWWVlvyePAu1xxPz6wxVtZtIonecBYesPiPosuoVFeZbDo9fyTcUbtj2SjAte3oI+Cr7TcML8WgsP5Th1TgsqxxaatJB4waH4hafR21vka/wjtbVc0CoFaEHaM1uqya8h7Jx5I6NFHeVgMDg0uDqioIFNtMl01daU+cZzD2qlXOyIKFjiuhNBEXYsVlMrwwbyeIbSqoxcnohnCBVfbonNxLSN4K11msrIW0aAMMSczykr6jnY+oa9ruMAgrpx/jePNLkajqYxFeXxdgAMkYpTFwGVOMcSo1hvolTLbITWgREVAgFKBEwCIiAPiihSiZIhERAgiIgDZ6P3ZEyNkwbV7mg6xxpXY0bFyXnfcUFW113+q3ZzjkF2Ll/Dw+7asTePnpfeydpXVts8GqOxdTBXHxLHuPu8bzktB4Zo2uDB5I3+sd61GjH4aPfJ/yOWMW00Y/DM3yf8jlThSlK1tv5F16UYJIzd/fiJec3uNXQXfv/wDEy85vcaugslvcl+S+HpQRQHjjX0qyRC0OiuUnOZ2FZ6q0WimUnOZ2FasHvIhPodfSny2cw9qpFd6VeWzmHvKkUMvvSHHoFfaMMHjHbeCOjEqhVpcNrEcmq40a8AbjsRiSUbk2M7Wk0x4DNhBJ5SDQKka8tIc00INQVr7xsDZ26rsCDg4bPqq6z6PhrqvfrAbAKV34rbk4t07t0en+AWsR1mgkeU0EjeMQsY4UJHESPmtbeNqETC7bk0cZWRUf5KS1jH5olJhEUrmEQiIgApUBSgDiRETGEREAERSgDf3J+Hh901Yi8fPS+9k7StxcY/h4fdNWHvHz0vvZO8V0MvtQMOL3JHXotrox+GZvk/5HLFK0sF+yQMEbWsIGtSoNcSTx8qoxbY1z1kaL4SlHRHHf/wCJl5ze41de7/Ox+9j7wUWy0GV7pHAAuIJplkB+imwedj97H3gq207NV7k0tIafY2l8eYl90/sWEC3l8DxE3upOwrBhav5Bedfgqx3qmFo9EhhJzmdhWcotJon5MnOZ2FVYXeRZZ6TraWecj92e8qRXmlnnI/dnvKkoo5fekOHpIopRFmJlzcV4SF7YiatINK5ig41bXraTDGXtAJq0Y5YqguLz7NzuxXOkXmDzmdq6+NZL4aT15RH5mbtFodIdZ5qfkOQBcaIuS229WMIiJAEREAApUBSgDiRETGEU0UFAwhKtLnuGa1YsGrH7R2X9IzcflyraXXcENmoWDWf7R2Lv6Rk3oV9VEp/gz25EYfdnxc8ZbBE1wIIjbUHMLDXqwsnkDgQTI8iuFQTgRxhbi3X5Z4niN8vCJxoC4N5xGS5rVZo7Qyj2tew4g/q1wyW62tWxUYvlGGq2VUnKS4Z5uiv7z0YeyroCXt9U+WNx9LtVAcMDgRmDmN4XNsrlB6SR0q7IzWsWSuWw4yxgZ+Fj7wXZuu6JLRiOCza85f0j0itdd12R2cUjGJGLji4/QcgV9GNOb16IqtyIx4+YvfzM3uZO6VgmrUX5fceq+GPhuc1zXEeS2oocdpWXCnnWRlNbX0DGTUeSVo9EspOczsKzi0eiOUvOZ2FQw+8idvpOxfd0utDmua9rdVpGNeOuxV/3Zk9oz/d9FbXrewszmtMZdrNJwcBShpxLpfehvsHdcfRbbo4zm975K4OenB1Pu1J7Rn+76Kfu3J7Rn+76LsfeZvsXdcfRPvM32LusPoqtmH7/AOlmsxd1yvikD3PaQAcBWuI5QufSPzB5zO1cB0lb7F3WH0XVvO+WzxlgjI4TTUkHJWOzHhVKEH1GtfmVCIi5BMIiIAIiIABSoUoA4kRExh7qAniBXoFyaHxRhsk58M8hrgCKRtqKjg+kccz8F55P5Luaexe1WRvAj93H3Qr6Ipvky5U2kkitve9IbKKzPoacFgFXHc0ZDlyWGvjSaa0VazxUfqg1c4fmds3D5qle4uc5ziS4udVxNScTtK7903NNaz4pvArQyOwYP7jyBOd05+VBCiFa3SK8Npku3d95S2c1ifQHNhxa7eNm8K50g0Z/doWyseX6ppKSKYGlHNGwA4dNVnCqpKVb9mXRlGyPHKNvdmkMU9Gu8W/1SatJ/K79Cu5bLuilcHSxhxacCf1pmOQrzohb7Rok2WIkk4PxOOUjwPkF0Ma92vbNamDIpVXmgzlt9vjs7ayOpsa0ZnkAWRvS+5J6tHAj9UHE8536ZLjv/wDEzV9cDooMF0VRkZMpNxXCNNGPGKUnyxRRRSixmoLSaIZS85nYVm1pND8peczsK1YfeRTf6Dh0t85H7t3eVEStRpDdss72GMAgMINXAY1rtVV937R6reuFLJpsdsmosjVOO1clYis/sC0eq3rhPsC0eo3rhZ/At+l/ot3x9ysRWf2BaPVb1wo+wrR6reuE/h7fpf6HvXuVqKy+wp/Vb1wn2HP6reuEfD2/S/0LcivjYXENaKkmgAV3ZtH8KyPoeJtMOk/Rdi5bsdFrPkADjgKGtBtU3tevgSGMALqVNcgNm8rbTjV1w8S79BqcE1wNpwJCD+YAj5Uoqa02Z0btV4ofkRxhXF332XODJQMTQOGFDsqF275s/hIydrauHRmPgpTx6ba3OnjQkZdERcoDiRFKYzjnHBdzSvbbJ5uP3UXdC8TnHBdzT2L3CzN8XGB7KLuhaKHyzJl9EY+5dCI4/GWo+EdUkRiojGJprbX7st6vrzt8NlYHTPDG0o1oGJ5GtGazl+acUrHY21xIMrxgCMDqsOe8/BYueZ0jjJI4vec3ONSfoORSdsYcQRFUzs5my9vvSqWcGOJvg4yCDkXvB2E+iOQfFZ+iKyum5J7VjG2jNsjsGjd6x3KhuU3yalGFcfZFYTTNehaNwubZYmvaQaPwIocZHEYbiFy3Ro5DZqOHjJPXcMua3Ju/NfV5X3Z4HhksnCJxABdq8rqZLbj1+F5pMwX2+L5YIw+kTC20y6wI1n1bXaKDEcarwF6bPBHaI6ODZI3Yg5je0jI7llbz0VeyrrMdceo6msNzsnKu7Glq5R5RdTkx0UZcGdRfT2lpIcCCDQgihHQvlYzWFpdD8pedH2FZpaXQ7KXfH2OWnD7qKcj0MsrxvWOzkNkDuECRQVyNF1PvJBxP6v8AldHTAeMj927vKiWi/MshY4orqpi4pmr+8kHE/q/5UfeOHif1f8rKoqvj7fsWeDE1X3ih4n9X/K+fvDDxP6v+Vl1Kfx932JeFE0/3hh4n9VPvDD+f4LMFQj/oXfYfhxNnYrcycEsrgaGuBVLpDZHB/hQCWkAEjYRxqvu+2ugfrNxBwcOMfVamy3jFJ5LwDxHAj45rTGyGVXsm9GHQzF2WV0r26owDgS7YADX4rS3k8NieT6hHSRQdq5Z7XGwVfI0dNT0ALOXtefh6NaKMBrjmTxni3J/14tTSerY0yuREXHGcS+gvlfQTJHxP5LuaV7pYBwIvdRd0LwubyTuK92u7zcPuoe41XVPky5fRHhzs3c9/eK+SvuUUe9pBBEjwQcCOEcwV8FVGr5BaTRHSBtmD4p3HwdC9lASQ/a0Aet2jlWaROMnF6ohOCmtGaK+NLJZqth8SzLA1kcOV3o9HxWeAC+4InPcGMaXOcaBoxJO5JY3McWPaWuaSHA5gjMIlKUuWEIRjwjnu+3y2d2tC8tqcW5tdvH65rTw6Wxlji9hbIG8FoqWvOyjqYdKx6KcLpw6MhZTCfVH1JIXEucaucSSeMnEr5RFUWhafQ7KXnR9hWYWn0NadWU0NC5lDsNAa0O1acTuooyX/AFsnSawSzPYYoy4BjgaFooa8pCp/sS0+wPWZ/ctbb7zigIEriC4EijScBhsXW+8Vm9o7/tv+i120Uym3KWjM9Vtiiko8Gb+xbT7A9Zn9yj7FtPsD1mf3LRnSGze0d/23/RR94bN7R3Uf9FD4fH+v/CzxbfpM79jWn2J6zP7lH2NafYO60f8ActH9v2b2h6j/AKJ9vWb2hG9r/oj4bH+v/CXi2exlrTZJIqCVhbXKtDX4FcBW4vGxtnYWHPNruI7DuWKmjLHFrxQtNCFnycd1PjlFsJ7j4SiAqQspMBoCIiACIpQBwr6C+V9BMkQ9tQRxheoaMaZ2eZrIJvEyNY1g1jVj9UAAh+QJpkaclV5ghFc04vQhZWprRns9+6PwWwUnj4VODI3B43OGY5DULzm/tDrRZKvZ46IVq9o4TR+ePPpFRuXDcWlVpsVGtd4SIf6TzgOY/NnzHIvRrh0ms9twifqSbYn4P/pOTxyhW+WRm0sq6co8dBriFc3Bo3NbaObwItsrhgeRjc3H5L0e26MWSWUTSQDXBJNCQ1x43sGDlyXxe0NjYHTv1cKNY0Vc6mxrRs5cgnGrTmTHLJb4iuTrXRcsNkbSFuJHCe7Fzt52DkGCw2mtos8s4dA7WeBqyuaOASPJodrhlUYYLhv/AEmmtlW+bi9m01Lue7buyVKAiyxNbYodVMk90nyERCVQaguSCF8jgyNhc47B/wC0A5Sry59FZZqPmrEzMD03DkHojlPwWvslhiszCI2hjRiST83OK01Y7ly+EZbclR4XLM7dmirW0daTrH1B5I3n0uxX2rQUAoBkBkOhUV76UtFWWYax2yHyRzQfK35b1GiErpPDve4ucXR4ncfgttNlUZKEP2ZLIWSi5zOnpl5yL3bu8qBaXS2zSPkjLI3OAjdUtaTThbaKh/cJvYydR30WHJi3a+DZjySrXJ10oux+4Texk6jvoo/cZvYydR30VG2XsXbl7nApX3JE5mD2lpzoQQadK+FEZpNG7x1h4B5xA4B4wPR6FZz3dFI/XewOdSmNaU5RtVHopEDI959FgA3uP+FYaRW50TWtYaOfXHiA4uXFdimxfD7rOdDLJf2aI7kl3QkUMTKbqfMKhvi5fBDwkVS0ZtOJby12hV0FtljOs2R1dtSSDyEFbOCQSsa6mD2AkcjhiEourJi1t0ZJ6w6mEQLkmZquc31XOHwNF8LktaPQ0BERIDjRETJBERABQW/LEHaDxg7EUoA9o0aeX2Szve4uc6FhJOJJ4yV5Nf7i61TlxJPh5BU44BxAG4L1nRIfwVl9xGvJb8/FWj+Ym7xVs35UZKPXI6SITTFbrR/QdpDZrW4PBa1zYmE6lDiC948rZgMN6hGLk9EXzsUFqzK3Rc01rNIW8EHhSOwY3p2nkC3lzaMQ2WjvOS+0cMj+RuTe1W14WyGyR60rmxsAo0AZ8jWjE9CwV96YSz1ZZwYo8q/6jhv9AbseVaEoV8vlmVyst4XCNJfekMNlq0nXk9m0952Te3kWFvW95rUfGu4NcGNwaPqeUroAKVXO6Uy6uiMPyFqtBxwZudH2FZVa3QMcGbnR9hUsbuoWT22XVrtsURAlkawkVAccwuv9rWf/APQz4qk05HjYvdO7yza02ZkoTcUjPViRlFSbN6b2g9uz4rns9pZICY3hwBoSDXHNedrV6Heak99/4NVmPlysntaFbjxrjuTK/Szz7fct7zlSq50t8+33Le85UqwZPdkbKe2i40XtIZKWH/UbQc4GoHTiry+rs/eGjVID2kkE5GubTxLGBX936RkDVnaXU9NtK9Lf1WjGvhsdVnQrshLduidaDR+ZzqPAY3a7WDsOQD9VpXubCyuTWM+QGC6L9IYAKjXJ4tWnaqK9L0faMCNVgODa16SdpVysooi9j1bFpOb8x0nvLiXHMkn4mq+UKLlt6s0oIiJAcaIiZIIUUJagFIUKQmB7ZoiP4Ky/y8a8iv4fxVo/mZu8V7BogP4Gy/y8fYvINIPxVo/mZu8VOXRGWn1yOgtFdGl81ls37u1gcQ4+De44RtOJaW+lQ5Y7VnUUU2uholFS4Zy2u0yTPMkzy959J3FxADADkC4giVSHpoSitLjuCe2EGMasdcZXeT/SM3HcuC+budZZnQvxpQtdlrNOTqf+5J7XpqR3x101OktfoCODNzo+wrIrY/s/HAn58fdcrcfuIqye2zp6djxsXund5ZkLUafDxsXund5ZdK/uMdHbR9xROe4MY0uccgMytno9d77PG5slKufrUBrTggUJ48F9aLXcIoRIRw5RUniZ6LR29K4b10iZC8xsZ4RzcHHW1Wg8VaGpWuiuNSVk2ZbrJWtwgjqaS3XLI8Sxt1gIw0gHhYFxqBtzWZqtxdF7stNQBqvAqWk1w4wdqqNLLCGlszR5R1X86lQ7pHYlk0xkvFgyVFsovw5oz6Ii55tCIiYBERABECmiAOFERRJBTRQvoIAiilFBTQHr+gd+Weazw2VklJoomtMbuCSRtZXB43L70k0Js9sJkaPAzHORowcf+ozJ2/A8q8dLa9BBB2gjIg7Ctlo9+0CeCkdrBtEfrVAlYN+Ug348qkmZpVNPdEor+0ftFgPj2cCoDZW4xurkK+ieQ06VVr3e7Lzs9ujL7O9sjCKPaRiK+jIx2I6Qsvev7O7PI8PgkdA3W4bGjWBH5NY8A/Ecie32CN/ykea2SzPmeIoWF7zk1ue87AOU4Le3DoIyOklsIkdh4oeQ3nH092W9a27LqgsUZZAwRtpVzicXU9J7zn2LJaQ6eMbWOwgPdkZnA6g5jT5e84b1NJR5ZCVk7OImive9IbIwOneGClGNAq51NjGD/wCLzTSS/wA257T4IMazWDNryDnrO6Mgqu0zvleZJXl73ZudiT9ByBcaU7HLgsrpUeX1JWz/AGeDgz8+PulY2Jpe4MYC5xya0Fzj0DFb/Qe7JoGS+HjMeu9haHEVIAIJIBwz2qVHrQshrY0VH7QR46L3Lu+so4YHctb+0IeOh9y7vrKJXetkqe2j026nh0MLhkYo/k0A/Ned3nZ3RTPY/B2u47w4khw4wVd6K382EeAnNGVJY/Y0nNp/KTjXYtZabJHMBrxtkGYJAcOgrW4q+C0fKMik6JvVcMxOiUDnT648ljHBx2VOTd+1W2lrgIADmZW06ASVeTGOCOrtWNg5AB0AZncsLfl6G0yVAoxtQwHPlceUpy0ppcNeWENbbd+nCK4oiLmnQCIiYEhEClAEIhRAmcKIpookyF9BRRSgAiImARET1EctktD4XiWF7o3tye00O7lHIcFv7g/aKDSO3t1f+uwEj+uMCo3truC88RCehGcFLqe6WuyQWyHVeGTQyAGoNWnaCHDaOMLz/SH9n8kVZLETK3PwTiPCAflcTR+40O9Zm5r4nsTtazSaoJq5hFWP5zT2ihXo2j+nVntVI56QS8TjWN3NkI4O51OlT3J9TNsnXzHoY27dCrbMKvYIG8cpGt0RtJPxotLYNAbPHQzvfMeLGNnVaa/EqwvTTixQ1a2QzOHoxCrdxkNG/AlZK8dPrTJUQsZAOPzj/i4UHwTWxBrbP7G/hs0VnYfBtZEwZ0o0dJ+qobx0yskVQx5mcNkY4PXOHwqvObbapJzrTyOkPG81+AyHQuJS8droNY31Mtb/AL6Ntka8xhga0tAB1jQmtSaBVaIqnLV6s0RjotEF9wTPj829zK+q4t+QK+ES1Bn1JIXHWe4uPG4kn4lQoUo1BBERAwiBTRAAKVCIAFERAjhX0ERRJhERABERAgpCImAREQAUIiAJoiIgApREAEREAEREESUREDCIiYEhSiIAgoiIEApRECP/2Q==;" parent="1" vertex="1">
          <mxGeometry x="279.27" y="260.00000000000006" width="89.45" height="80" as="geometry" />
        </mxCell>
        <mxCell id="Fnnlz9H3tVM27utcZq8y-7" value="" style="shape=image;imageAspect=0;aspect=fixed;verticalLabelPosition=bottom;verticalAlign=top;image=data:image/png,iVBORw0KGgoAAAANSUhEUgAAAT4AAACfCAMAAABX0UX9AAAAwFBMVEUjLz7///8jLT0BqY0kKTskJzokJTkAsZIQdmwArpAaY14kITcEoIcAo4ogQkkkKjsXJjcOingNHzIAGS5yd4Cgo6gPhnbIys1janMPi3kbW1kbVlasr7MgP0hDTVkfPEY2QE3a3N0iMkAgN0McUFMSfW8Vb2cAEikImIIAGS0aYl3q6+wSIzUAEyrw8fIdSk+Gi5FWXWeZnaLEx8o0Pkxsc3u5vMBYX2lASVUABCN/hIuqrbLS1NecoKUAABclHDWavUqYAAAJaklEQVR4nO2da3uquhKAkwiorUqKvddlvaMV1N5s1fas//+vThLACwRUyjo9xHm/7F2tXe37TJhkmASEAAAAAAAAAAAAAAAAAAAIQx2L/PbvkFuI/T6eI+u3f42cYrVeMWNm0d/+TXIIdV8wHt9eYdx+tn/7l8kbpP4xxvhqREefXxjPOzCCj8Gic4y/WiPEL4CXEzaCbRjBh0LrM4wnl66fdB1nxUdwHXLwQdSbbLyuiLN5ZcRfmRMYwftxEI+1Zn3nReqKETyCEZxM7JXOoWIE2zCCExB5Fk/eZJK8HCx9C+BQm83yxuw615K+TezlBL+O/qe/Uo5wb8d83C7auBXzHdYnvqnHvHfiWIgt0V5bFqrH6yNN0CeFWmKJxjNDlvo0IwlVLqPEfm6zJZoj8m2G+rTBRQJ3UzX8WR2+RHsbeX9Nlvqq5UI5nr7+w1/8/wG6YAl1sgyWaFnq06uV7p8YHgfFkgL63CYbt436ZomWrb5zEoP+pII+vxyw9UrG+uLe084U0EcvMV4udpZooO9wmL6rUC0Z9B0O1xeqQ/0DfZomvtS2J3ygby++Pq00MNl/zNLFteDikYC+A/D0EbNQ4fo6wRywONBA3wGs9Q2FvuqwW6vV2ITv7DT1obfv5TEF54g+PgvUz05WH3KOKtdH9BlIeFNZn3UzzqqkfIr6EKVZVUK0U9SXGUQvVHXQlxJi3pWrJgF9qSDmsFyAwZsSQobFuwroSweLveKdEU4df03TNEDfXkTsGeGJS+X+idEHfXsgGrOnk8iat+gB+hIhHR5764qL+fQgKi4PgzMPonDF5eeIkcvVBPU+0xSvm5qPMvU+m+lbZPwzRewJbYpXmx33ZYLximYafzznXntilNZH60smbz7Jdu8Bj71rX5rC+oj9zPv1Pu23Ocbt26xav/l171r3aw5M318l7/OS0ecrv8HLewvqvO/xq5lJ4x7pVljsBRUb3mVQi+FPjrsMHOsK88YML+SI+z7GuJHBJZAgZm/TOaVVEzpcyuWc6qPWDGP8Ym8aM6g9Y5fAl+NqyVF2Y4/NVM78e2tyannssKIL3kU6f9uNNQs1MB6/L1IJJN50Tmex19/p2kvs79PzaE/s2vhqRW6YkfrbjbgaHv8jyYO/mmD2zvPo5HCcOQ8yV/ZHEtHcPHeOvgQafX8tG4o99bpL6S3LGLEjVLT64e+O95UpRfIx0vOj7z5sb3CXRP66S5m+VdIizSEsJc9ETjEf7iU8SP0Fi9nQ63o1qLFIyGPmZfoayYNz9DYX30Cm0slGUYQM0Rn7/zU270OPMXTzuOrYrw/5u++ZvoKEco/w9677/f7+oadcd+kh+jyS9BkXPA57e/0pt+Y9Sp+P780fvFyaPgxEJnPC+hA5G3hUub2q/4Xo1OtWQd9e/KXEeYXrqxj6OrmSmjeMNUKSDQb6SDDr8b5dJG/l9fnoIvoqa1PEMM74gC7fP/75k7xs9fWR2oMPEmn7IbfF+p/rI7W7ylYqSVTg6zMq3vTPays1n4pP5snq00vbGbl8bSR+1NNXrZY412W/Kze3Nyp/SV/FMHT9/KEI+tifHajj85jEbX0bffzT5j3oYxe/x27JSx1TBkrKHarr2zPxEIT1sQXvoLyeuIhXibw4Yxpq66PPb/tDMaIPaV70rafNZPogp6e4vjH+3nvA4X59m3JpmILS+joNjCcvjpPwgUP0mfclOQO19aFRa84Eztwkgfv1IVPXZOjnag9efoPok9/8WCZ0aRygL/6ja30sSymoj98geuZ32OJvUWaiz9BYHlZz2kxd3u3Svo05Hy0LfUHN0NeX2x2V8mkztW/bGH89SyMwVt/+G2W+Pr0/9OE3msh0WMtrd2ncqoO671xgU5JDJPq8afPZObueHVKwQiyLeIhKH9HVK1gR6i7HGF9G4y+qz3wqewXo6fQscQSfVLXZWTT8W7w7RPUFd5F4zWB4QMVFinL60KiB3w+JPqQP10WrO9AXUP/CzehYlOgj3XUu3asv7j6vptx9XmeMJa/qF9zTcMer2e0XinzsVu5lTRvrjyrYZbCKPUK9MxnL2tN0STsUMYzudFpDRpI9BXtc3vH4NmaBQT7x1xHdfWTfbUoWpIkdVhf56y4liDdHPkv7+1JUooOfGhB+Q7X+PpYfRA8kkvTROzP8kly7ioHUelNBLSmPKILXA7lCkTKpJZ23HMCmXDoI+VMv+hA/jOWFV/kWO6FGrf/c4M9Uf5H51BeUCuXBzjzPHCR11l/kr7vUx+ujv1xvJSLW6KPBYjLlESSmIVa0xrSwG39q7utAvEzavAl2FRHL/VyxCyK+STd2N2jT3fhTdVcR4kWqjzbGr03Xbb6w/8FfM+r+eF+btht/yu5p4/g7Krm79qxVT5V0w+zGn3Jr3l0cm+/nbX+3bCezc5e2409xfQi5l3i1yPRRdtvxp7y+f3CWwVb8ravNXitHUHMW2z9AXwyb+Au6S0t8dUtQyZse9vmdItAXyzr+/HNcesU++8rsFYMm0y4CfQnw+Cudb/SJw/2Zvutpr9eb3hW7eb3TFuYfnSLkxR8J6+ufm6Z5fgH69uHFnxbWx30ZoG8/Iv7+gr60iPxbAX1p4f4Kp6uP/LSAoE8LJ6yvs4yer046x/xwFn8nq6/ewFfhIgw/s/6Yw4aMk00d9BnjyJ6NlEf+n+C8j47xZaQC+FN91z2+W+EEVh3uCr9KLn0p9Z3ampcPXclto5RPiwkqLoNgv4LiFRdijfFSUrxP/awihet939GWIbeBX2XdLvCkrBBMX/RQppihC/qi0Ll4SuCOLGnW5YC+CC5/tuycbF0A5VmXA8+ojEIXlzsnR/KhG7cMhiekShDHpo1vF15+dORZV7yX4vm88eS4xyXEiJ8cefPJ17M2y7px7bvH6jMHd0mPh85fd2kcpM4Pz71yHfqBcWzTLTybPBZq86a/y0Vc1uUcre+UsPj54V/LVbwg2gJ98RCbT2KuOrG7ttAc9CVBR7PJ5jTx0Hsum+BMftpBqTiWxTfnf0R3LoiT7ecZPlpBUepN3nWKdkcwrV9FF3eADGq/82VIfSvQbL4ZZJbVQylUx6Hf22eLW+iVxeMBBw4BPqPWK1+G8DRL7RmbEL7bMG6PwDvA/oo6I34pXFEYt0fiL0NW/IQImOylwOqwSQxLGXUIvXSwZcgcQcpIDbUy3bUAAAAAAAAAAAAAAAAAACfJfwEYzjKo3CQ0bwAAAABJRU5ErkJggg==;" parent="1" vertex="1">
          <mxGeometry x="108.5" y="410" width="119" height="59.5" as="geometry" />
        </mxCell>
        <mxCell id="Fnnlz9H3tVM27utcZq8y-12" value="" style="shape=image;imageAspect=0;aspect=fixed;verticalLabelPosition=bottom;verticalAlign=top;image=data:image/png,iVBORw0KGgoAAAANSUhEUgAAAOEAAADhCAMAAAAJbSJIAAAAVFBMVEX///8AAADc3Nz09PTCwsJhYWGGhobj4+NUVFR/f3+MjIwYGBjv7+8bGxuPj4/6+voRERF5eXloaGg0NDRISEhdXV3n5+e5ublXV1fPz89NTU1mZmYsBASXAAACz0lEQVR4nO3d624aMRRFYQ/XkNBMm7a58f7v2UooYmbDDzQ+drfdtV4APkAz3ogoKV21Gv59u+unFZiDcDh0Lxx2Y+/C4XHdu/B7OaKJcHh6PnYuHL6VItoIixF9hKWIF+Hbpm7PN4glLjcXYcFb0s021+/iU4kr6kVY7o50uxvCvzeN+NfZS1jijOog/JwSw8+oDsL0c0r8Efw4FsLxV0GihTCtH8p9UD2E6fh7drmJvKKaCNPraUqMvC+6CNP+ZSKMHFM2wjkxcEz5CNNqSow7hhsJCxGdhPMPahTRSpj2pxkx5Cl5CdPr9L4YM6bMhOk4Pd2EjCk3YVrPzqgBY8pOmMbZ0sg/o/oJhZi9NAyFwWPKURg7piyFoWPKUxg5pkyFgWPKVRg3pmyFYUvDVxhFNBYGjSlnYcyYshaGjClvYcSYMhcGjCl3Yf6Yshdmjyl/Ye6YakCYOaZaEOaNqSaEWWOqDWHOmGpEmDGmWhEuXxrNCBcT2xEuHVMNCReOqZaE6Ti73Dze9y46CE/bO3uZHVGH1V2P4yBcGsJzCMuFECHCrxCWa3XYLerQjHBpY/fCNUIJoV8INYR+IdQQ+oVQQ+gXQg2hXwg1hH4h1BD6hVBD6BdC7T7hflW3fXXh7AeeFXqoLtxWFm4RIkSIEGGDwv7vh+vaVRc6hVBD6BdCDaFfCDWEfiHUEPqFUEPoF0KNjX+u/+9p+v+uDSFChAgR5gv7vx/2/1sMpxBqCP1CqCH0C6GG0C+EGkK/EGoI/UKoITw3+5/EFfqsLuz/uzaECBEiRJgvfK8sfK8u/NjU7aO60CmEGkK/EGoI/UKoIfQLoYbQL4QaQr8Qagj9Qqgh9AuhhtAvhBpCvxBqCP1CqCH0C6GG0C+EGkK/EGoI/UKoIfQLoYbQL4QaQr8Qav+TcCz8zKIaFwvfKv9NxdLeFgvbCyFC/xAi9A9hl8I/H09K4GVpA+MAAAAASUVORK5CYII=;" parent="1" vertex="1">
          <mxGeometry x="666" y="567.68" width="51.28" height="51.28" as="geometry" />
        </mxCell>
        <mxCell id="Fnnlz9H3tVM27utcZq8y-14" value="" style="curved=1;endArrow=classic;html=1;rounded=0;flowAnimation=1;entryX=1;entryY=0.5;entryDx=0;entryDy=0;exitX=0.5;exitY=1;exitDx=0;exitDy=0;" parent="1" source="Fnnlz9H3tVM27utcZq8y-2" target="Fnnlz9H3tVM27utcZq8y-12" edge="1">
          <mxGeometry width="50" height="50" relative="1" as="geometry">
            <mxPoint x="763" y="516" as="sourcePoint" />
            <mxPoint x="710" y="590" as="targetPoint" />
            <Array as="points">
              <mxPoint x="760" y="570" />
            </Array>
          </mxGeometry>
        </mxCell>
        <mxCell id="Fnnlz9H3tVM27utcZq8y-15" value="" style="endArrow=classic;html=1;rounded=0;flowAnimation=1;entryX=1;entryY=0.5;entryDx=0;entryDy=0;exitX=0;exitY=0.5;exitDx=0;exitDy=0;" parent="1" source="Fnnlz9H3tVM27utcZq8y-12" target="Fnnlz9H3tVM27utcZq8y-56" edge="1">
          <mxGeometry width="50" height="50" relative="1" as="geometry">
            <mxPoint x="630" y="593" as="sourcePoint" />
            <mxPoint x="590" y="593" as="targetPoint" />
          </mxGeometry>
        </mxCell>
        <mxCell id="Fnnlz9H3tVM27utcZq8y-16" value="" style="endArrow=classic;html=1;rounded=0;flowAnimation=1;entryX=1;entryY=0.5;entryDx=0;entryDy=0;exitX=0;exitY=0.5;exitDx=0;exitDy=0;" parent="1" source="Fnnlz9H3tVM27utcZq8y-56" target="Fnnlz9H3tVM27utcZq8y-1" edge="1">
          <mxGeometry width="50" height="50" relative="1" as="geometry">
            <mxPoint x="490" y="592" as="sourcePoint" />
            <mxPoint x="450" y="592" as="targetPoint" />
          </mxGeometry>
        </mxCell>
        <mxCell id="Fnnlz9H3tVM27utcZq8y-17" value="" style="endArrow=classic;html=1;rounded=0;flowAnimation=1;entryX=1;entryY=0.5;entryDx=0;entryDy=0;exitX=0;exitY=0.5;exitDx=0;exitDy=0;" parent="1" source="Fnnlz9H3tVM27utcZq8y-1" target="feMogrwZjiv3mipxqyTa-3" edge="1">
          <mxGeometry width="50" height="50" relative="1" as="geometry">
            <mxPoint x="280" y="591" as="sourcePoint" />
            <mxPoint x="240" y="591" as="targetPoint" />
            <Array as="points" />
          </mxGeometry>
        </mxCell>
        <mxCell id="Fnnlz9H3tVM27utcZq8y-18" value="" style="endArrow=classic;html=1;rounded=0;flowAnimation=1;entryX=0.75;entryY=1;entryDx=0;entryDy=0;exitX=0.75;exitY=0;exitDx=0;exitDy=0;" parent="1" source="feMogrwZjiv3mipxqyTa-3" target="Fnnlz9H3tVM27utcZq8y-7" edge="1">
          <mxGeometry width="50" height="50" relative="1" as="geometry">
            <mxPoint x="180" y="550" as="sourcePoint" />
            <mxPoint x="180" y="480" as="targetPoint" />
            <Array as="points" />
          </mxGeometry>
        </mxCell>
        <mxCell id="Fnnlz9H3tVM27utcZq8y-19" value="" style="endArrow=classic;html=1;rounded=0;exitX=0.25;exitY=1;exitDx=0;exitDy=0;flowAnimation=1;entryX=0.25;entryY=0;entryDx=0;entryDy=0;" parent="1" source="Fnnlz9H3tVM27utcZq8y-7" target="feMogrwZjiv3mipxqyTa-3" edge="1">
          <mxGeometry width="50" height="50" relative="1" as="geometry">
            <mxPoint x="140" y="510" as="sourcePoint" />
            <mxPoint x="140" y="550.38" as="targetPoint" />
            <Array as="points" />
          </mxGeometry>
        </mxCell>
        <mxCell id="Fnnlz9H3tVM27utcZq8y-20" value="Similarity Search" style="text;strokeColor=none;fillColor=none;html=1;fontSize=9;fontStyle=0;verticalAlign=middle;align=center;" parent="1" vertex="1">
          <mxGeometry x="99" y="615" width="138" height="30" as="geometry" />
        </mxCell>
        <mxCell id="Fnnlz9H3tVM27utcZq8y-22" value="" style="curved=1;endArrow=classic;html=1;rounded=0;flowAnimation=1;exitX=0.5;exitY=0;exitDx=0;exitDy=0;entryX=0;entryY=0.5;entryDx=0;entryDy=0;" parent="1" source="Fnnlz9H3tVM27utcZq8y-7" target="Fnnlz9H3tVM27utcZq8y-6" edge="1">
          <mxGeometry width="50" height="50" relative="1" as="geometry">
            <mxPoint x="180" y="393" as="sourcePoint" />
            <mxPoint x="270" y="330" as="targetPoint" />
            <Array as="points">
              <mxPoint x="177" y="359" />
              <mxPoint x="200" y="321" />
            </Array>
          </mxGeometry>
        </mxCell>
        <mxCell id="Fnnlz9H3tVM27utcZq8y-23" value="Upload Doc" style="text;strokeColor=none;fillColor=none;html=1;fontSize=10;fontStyle=0;verticalAlign=middle;align=center;" parent="1" vertex="1">
          <mxGeometry x="669" y="528.84" width="108.75" height="18.64" as="geometry" />
        </mxCell>
        <mxCell id="Fnnlz9H3tVM27utcZq8y-25" value="Load Data" style="text;strokeColor=none;fillColor=none;html=1;fontSize=10;fontStyle=0;verticalAlign=middle;align=center;" parent="1" vertex="1">
          <mxGeometry x="637.4" y="619" width="108.75" height="18.64" as="geometry" />
        </mxCell>
        <mxCell id="Fnnlz9H3tVM27utcZq8y-26" value="Split the data using&amp;nbsp;&lt;div&gt;text splitter&lt;/div&gt;" style="text;strokeColor=none;fillColor=none;html=1;fontSize=10;fontStyle=0;verticalAlign=middle;align=center;" parent="1" vertex="1">
          <mxGeometry x="500" y="623" width="108.75" height="18.64" as="geometry" />
        </mxCell>
        <mxCell id="Fnnlz9H3tVM27utcZq8y-27" value="Text Embedding" style="text;strokeColor=none;fillColor=none;html=1;fontSize=10;fontStyle=0;verticalAlign=middle;align=center;" parent="1" vertex="1">
          <mxGeometry x="324.63" y="622" width="108.75" height="18.64" as="geometry" />
        </mxCell>
        <mxCell id="Fnnlz9H3tVM27utcZq8y-28" value="Transform&amp;nbsp;&lt;div style=&quot;font-size: 10px;&quot;&gt;Data&lt;/div&gt;" style="text;strokeColor=none;fillColor=none;html=1;fontSize=10;fontStyle=0;verticalAlign=middle;align=center;" parent="1" vertex="1">
          <mxGeometry x="566.25" y="571" width="108.75" height="18.64" as="geometry" />
        </mxCell>
        <mxCell id="Fnnlz9H3tVM27utcZq8y-32" value="Create&amp;nbsp;&lt;div&gt;Embeddings&lt;div&gt;&lt;br&gt;&lt;/div&gt;&lt;/div&gt;" style="text;strokeColor=none;fillColor=none;html=1;fontSize=10;fontStyle=0;verticalAlign=middle;align=center;" parent="1" vertex="1">
          <mxGeometry x="427.38" y="575.32" width="108.75" height="18.64" as="geometry" />
        </mxCell>
        <mxCell id="Fnnlz9H3tVM27utcZq8y-33" value="Store &amp;amp;&amp;nbsp;&lt;div&gt;Index&lt;/div&gt;" style="text;strokeColor=none;fillColor=none;html=1;fontSize=10;fontStyle=0;verticalAlign=middle;align=center;" parent="1" vertex="1">
          <mxGeometry x="206.88" y="569" width="108.75" height="18.64" as="geometry" />
        </mxCell>
        <mxCell id="Fnnlz9H3tVM27utcZq8y-34" value="Response" style="text;strokeColor=none;fillColor=none;html=1;fontSize=8;fontStyle=0;verticalAlign=middle;align=center;rotation=90;" parent="1" vertex="1">
          <mxGeometry x="142" y="502" width="131.1" height="20.02" as="geometry" />
        </mxCell>
        <mxCell id="Fnnlz9H3tVM27utcZq8y-35" value="Embedding" style="text;strokeColor=none;fillColor=none;html=1;fontSize=8;fontStyle=0;verticalAlign=middle;align=center;rotation=90;" parent="1" vertex="1">
          <mxGeometry x="70.99999999999997" y="502.69" width="108.75" height="18.64" as="geometry" />
        </mxCell>
        <mxCell id="Fnnlz9H3tVM27utcZq8y-36" value="Context" style="text;strokeColor=none;fillColor=none;html=1;fontSize=10;fontStyle=0;verticalAlign=middle;align=center;" parent="1" vertex="1">
          <mxGeometry x="177.24999999999997" y="317.15" width="108.75" height="18.64" as="geometry" />
        </mxCell>
        <mxCell id="Fnnlz9H3tVM27utcZq8y-37" value="" style="endArrow=classic;html=1;rounded=0;flowAnimation=1;entryX=0;entryY=0.5;entryDx=0;entryDy=0;exitX=1;exitY=0.5;exitDx=0;exitDy=0;" parent="1" source="Fnnlz9H3tVM27utcZq8y-6" target="feMogrwZjiv3mipxqyTa-2" edge="1">
          <mxGeometry width="50" height="50" relative="1" as="geometry">
            <mxPoint x="380" y="310" as="sourcePoint" />
            <mxPoint x="540" y="310" as="targetPoint" />
          </mxGeometry>
        </mxCell>
        <mxCell id="Fnnlz9H3tVM27utcZq8y-39" value="Answer" style="text;strokeColor=none;fillColor=none;html=1;fontSize=10;fontStyle=0;verticalAlign=middle;align=center;" parent="1" vertex="1">
          <mxGeometry x="270.35" y="229" width="108.75" height="18.64" as="geometry" />
        </mxCell>
        <mxCell id="Fnnlz9H3tVM27utcZq8y-40" value="" style="curved=1;endArrow=classic;html=1;rounded=0;flowAnimation=1;exitX=1;exitY=0.5;exitDx=0;exitDy=0;entryX=0.5;entryY=0;entryDx=0;entryDy=0;" parent="1" source="Fnnlz9H3tVM27utcZq8y-3" target="Fnnlz9H3tVM27utcZq8y-7" edge="1">
          <mxGeometry width="50" height="50" relative="1" as="geometry">
            <mxPoint x="100" y="300" as="sourcePoint" />
            <mxPoint x="151" y="381" as="targetPoint" />
            <Array as="points">
              <mxPoint x="140" y="330" />
            </Array>
          </mxGeometry>
        </mxCell>
        <mxCell id="Fnnlz9H3tVM27utcZq8y-41" value="" style="curved=1;endArrow=classic;html=1;rounded=0;flowAnimation=1;exitX=1;exitY=0.5;exitDx=0;exitDy=0;entryX=0;entryY=0.5;entryDx=0;entryDy=0;" parent="1" source="Fnnlz9H3tVM27utcZq8y-3" target="Fnnlz9H3tVM27utcZq8y-6" edge="1">
          <mxGeometry width="50" height="50" relative="1" as="geometry">
            <mxPoint x="100.35" y="299.64000000000004" as="sourcePoint" />
            <mxPoint x="270.35" y="299.64000000000004" as="targetPoint" />
            <Array as="points">
              <mxPoint x="156.25" y="299.64000000000004" />
            </Array>
          </mxGeometry>
        </mxCell>
        <mxCell id="Fnnlz9H3tVM27utcZq8y-42" value="Question" style="text;strokeColor=none;fillColor=none;html=1;fontSize=10;fontStyle=0;verticalAlign=middle;align=center;" parent="1" vertex="1">
          <mxGeometry x="178.00000000000003" y="281" width="108.75" height="18.64" as="geometry" />
        </mxCell>
        <mxCell id="Fnnlz9H3tVM27utcZq8y-43" value="Question" style="text;strokeColor=none;fillColor=none;html=1;fontSize=10;fontStyle=0;verticalAlign=middle;align=center;" parent="1" vertex="1">
          <mxGeometry x="55" y="333" width="108.75" height="18.64" as="geometry" />
        </mxCell>
        <mxCell id="Fnnlz9H3tVM27utcZq8y-44" value="+" style="text;strokeColor=none;fillColor=none;html=1;fontSize=19;fontStyle=0;verticalAlign=middle;align=center;" parent="1" vertex="1">
          <mxGeometry x="178.25" y="299" width="108.75" height="18.64" as="geometry" />
        </mxCell>
        <mxCell id="Fnnlz9H3tVM27utcZq8y-45" value="Answer" style="text;strokeColor=none;fillColor=none;html=1;fontSize=10;fontStyle=0;verticalAlign=middle;align=center;" parent="1" vertex="1">
          <mxGeometry x="391.25" y="299.35999999999996" width="108.75" height="18.64" as="geometry" />
        </mxCell>
        <mxCell id="Fnnlz9H3tVM27utcZq8y-46" value="" style="curved=1;endArrow=classic;html=1;rounded=0;flowAnimation=1;exitX=0;exitY=0.5;exitDx=0;exitDy=0;entryX=1;entryY=0.5;entryDx=0;entryDy=0;" parent="1" source="feMogrwZjiv3mipxqyTa-2" target="Fnnlz9H3tVM27utcZq8y-3" edge="1">
          <mxGeometry width="50" height="50" relative="1" as="geometry">
            <mxPoint x="565.71" y="263.3399999999999" as="sourcePoint" />
            <mxPoint x="83.75" y="277" as="targetPoint" />
            <Array as="points">
              <mxPoint x="500.71" y="255" />
              <mxPoint x="370.71" y="245" />
              <mxPoint x="181.75" y="245" />
            </Array>
          </mxGeometry>
        </mxCell>
        <mxCell id="Fnnlz9H3tVM27utcZq8y-48" value="Vector Store" style="text;strokeColor=none;fillColor=none;html=1;fontSize=9;fontStyle=0;verticalAlign=middle;align=center;" parent="1" vertex="1">
          <mxGeometry x="95.03" y="535.32" width="138" height="30" as="geometry" />
        </mxCell>
        <mxCell id="Fnnlz9H3tVM27utcZq8y-49" value="User" style="text;strokeColor=none;fillColor=none;html=1;fontSize=10;fontStyle=0;verticalAlign=middle;align=center;" parent="1" vertex="1">
          <mxGeometry x="-4" y="218" width="108.75" height="18.64" as="geometry" />
        </mxCell>
        <mxCell id="Fnnlz9H3tVM27utcZq8y-50" value="AWS Bedrock" style="text;strokeColor=none;fillColor=none;html=1;fontSize=13;fontStyle=0;verticalAlign=middle;align=center;fontColor=default;labelBackgroundColor=none;" parent="1" vertex="1">
          <mxGeometry x="269.98" y="256.21" width="108.75" height="18.64" as="geometry" />
        </mxCell>
        <mxCell id="Fnnlz9H3tVM27utcZq8y-51" value="S3" style="text;strokeColor=none;fillColor=none;html=1;fontSize=13;fontStyle=0;verticalAlign=middle;align=center;fontColor=#000000;" parent="1" vertex="1">
          <mxGeometry x="727" y="467" width="108.75" height="19.64" as="geometry" />
        </mxCell>
        <mxCell id="Fnnlz9H3tVM27utcZq8y-52" value="Titan Text" style="text;strokeColor=none;fillColor=none;html=1;fontSize=13;fontStyle=0;verticalAlign=middle;align=center;fontColor=#0A0A0A;" parent="1" vertex="1">
          <mxGeometry x="356" y="559" width="108.75" height="18.64" as="geometry" />
        </mxCell>
        <mxCell id="Fnnlz9H3tVM27utcZq8y-53" value="Titan Text" style="text;strokeColor=none;fillColor=none;html=1;fontSize=13;fontStyle=0;verticalAlign=middle;align=center;fontColor=#050505;" parent="1" vertex="1">
          <mxGeometry x="145.00000000000003" y="406" width="108.75" height="18.64" as="geometry" />
        </mxCell>
        <mxCell id="Fnnlz9H3tVM27utcZq8y-56" value="" style="shape=image;imageAspect=0;aspect=fixed;verticalLabelPosition=bottom;verticalAlign=top;image=data:image/png,iVBORw0KGgoAAAANSUhEUgAAAMgAAADICAYAAACtWK6eAAAAAXNSR0IArs4c6QAAFgpJREFUeF7tXQnUdlVVfh5UJFADDQWnhQJhBKhMBZhiSGlqghiQCgo2rCSs1ApRJgUakJYuEZCWkmggISEt01BxngcyAzQUEcccSkUis2R3Hzjvv+5/vd/73++es9/v/c7dey2Xi/+7Z99znn2e955hD0RIIBAIrIgAA5tAIBBYGYEgSMyOQGAOAkGQmB6BQBAk5kAgMA6B+IKMwy1aTQSBIMhEDB3DHIdAEGQcbtFqIggEQSZi6BjmOASCIONwi1YTQSAIMhFDxzDHIRAEGYdbtJoIAkGQiRg6hjkOgSDIONyi1UQQCIJMxNAxzHEIBEHG4RatJoJAEGQiho5hjkMgCDIOt2g1EQSCIBMxdAxzHAJBkHG4RauJIBAEmYihY5jjEAiCjMMtWk0EgSDIRAwdwxyHQBBkHG7RaiIIBEEmYugY5jgEgiDjcItWE0EgCDIRQ8cwxyEQBBmHW7SaCAJBkIkYOoY5DoEgyDjcotVEEAiCTMTQMcxxCARBxuEWrSaCwFIRxMzuCmAfAPsBeCSAHQE8GMC9AGwJ4C4V2uX/APwXgO8B+CKAzwH4GID3kPxyheNdV0Nac4KYmfpwUDM5jgbwJADbrCsEfTv7GQBvBPB6kt/yfVVo70NgzQhiZpsBOArACQAeFuaZi8APAVwI4EySXw2sFofAmhDEzA4AcB6A3Rc31CrepKXYmQDOIvm/VYxoyQexUIKkPcafA/gjAPqCzJPrAHwQwMcBfB7AzWmdfhtJrdvXtZiZ9lP3APAzaa+1G4D9AfzygGXmJwA8neQX1jUI66DzCyOImd0HwJsBHDgHl5sAXADg70hqwzo5MbO7JZL8FoBDAOjgok9uAXAYyXdNDqQFDnghBDGzbQG8uyGIfiX75N8AnNQsuS4nefsCx7/UrzIzneCdmg4w+k7wtMw6muSblnog67hz7gQxs3sC+NAK+43/AXBaWlOv+2WT1zwwsz2b4+7XAXh4zzuEm74k/+D1/inrdSVIOsJ9C4Bf7wH5S1pCkPyXKRtg6NjT0utsAMf3tNEp134kPz1UXzw3DAFvgvwBgFf0dOVTAB5P8jvDuhlPzRAws99JJ4DdQw7t2fYk+f1AqxwCbgQxsx0AXNssn7bqdPeftQklqZvjkBEImNkzmpOvNzTL0679LiD5uyNURpMVEPAkyEXpIrD96n+XK0lcduXPRzN7PgAtudpiAA4g+ZH8N4QGIeBCEDPbGcBne3ynDo5jyXITz8wuBvCbHY3y4dJdSkgBBLwIchaAF3b6d2HjfHdsgT6HioRAOiG8HsADO6DoK/LhACofgeIEST5WX282kvdrdU+nLDuR/Fp+l0PDRmsqs9/QxWoHFTk3PjuQykfAgyD7Jnftdu/Oa7xRn5vf3dDQh4CZfRLAXq2/yWdrW5L/HYjlIeBBEHnn/lmnW3uRvCavq9F6JQTM7GkALuv8/VdJviNQy0PAgyCXAji81a0bSO6S181oPQ+BdImoZa0cH2cij98/CeTyEPAgiG5z2y4R55I8Lq+b/q3NTJ618qZ9VPIZ2wnA9snjdgv/HqzJG+TLJafHbzTewTcA0B2VPKg/FO70d9rDgyCKfJNz4kzkTKdLraWT5H5/aONOr4u3JzSxFpsvXSfXpkO6jZeL0F+TlB/dZMWDINoYtn9x9yWp+IWlETNT//RV+8OeI9Kl6eeSdETx8SeRfOeS9Geh3fAgiG5z27IdyW8udFRzXmZm+mL8FQC5woQMR0Dews+d2lH9IgiyVbNZvG24HXyeNLOfbpZ+r07LqXkv+XGKYvwAADlVKmrvK83F5621HJumpaWSY+iCUfkAlElGt+997vRtrL4L4FiSWn5NQtwJQrL4O1ZrGTNT+qC3AfjZOW3ldv+aFLQ1yQwiZvaQFJwlh0cdUPSJVginkHzZau2wHp8vPnnNbKMl1loTxMx0gfZPnSPQtq20P3oRyavXowE9+mxmdwcgt/qT5+D2isa1XrkFqpaqCWJmeygBG4B791hRJzXapMsto7tvqtroQwdnZsLtlc0y85krtDmtWSAoJLhaqZYgZrZd2kPcv8d6cgc/gqT2FiGbQMDM5Nd1fuMhoS9LV44kqcvhKqVKgqSUOu9Nl35dw8mYzyKpePiQgQiY2aMBvLWJQVGOgbbcqs19rVloaiWIXCz+osf2SuMpckTmlIHEaD9mZvI00H2I8iS35X0k56VzGvG25WhSHUFSqK9iJH6qA/HbmyXXk0nqGDdkJALpHunyHi8MJbK7ZKTapW1WI0GUw7YbC3FjszzYO+Lgy8xDM+sLiFPSiF1qyHrZRqkqgqRzfKUpbSdZ0wnVY0jq4i+kAAJmJp813Rt1k45X9xWpjSBnADixMwde2ySJUBrPkIIImNnj0n6krVVewPKGrkaqIUhKUqdj2we0rPOjFOobx7kOU9bMdLnaTRCxY00nWjURRH5E3cyCr2vuOp7jMDdCZeNvYmYHNzE03ajFF5CUM2gVUhNBXtAEN728Y5X9I0eU3zxNX23t+eTrNpOrSD7e762L1VwTQXTHocCnmdxMMlzanedTcykrp8WXtF6jCMWta3HfqYkgck1XFvSZxObcmRxSb2ZylVeRo7ZUsw+piSBKa9rOxaW4Bd2JLLUknzFtdHVLrWNTLVcUq6GcxisVz1nqMQ3onDwZFHmq5OXK8q9qYh8FcDVJJZ9YGqmJIMoF1XaBWNr9h5mprLU8ZFXE9BeXZjYsR0cU4qscBheR/MFad6kmgnRd1rcnqa/K0oiZbQ1Ahwm/r3X60nRsOTuicIRzUnGlNSvpUDNBliLUdzb3zExfC52y3Xc55+PS9urbyvNMUtUCFi7VEmStIxlbxNCX4rUAnroJ66qUmpYXCvBSfirVbdQXULHwVbjmpzAEucsrnFfhzzpUkRew9l+b2m8pDv6YRfvTBUEcf5NSGQiF+z50zmu0QVUs/CVTrbiVKiAfoawpTQrVn5+DlRJoPJGkktwtRIIgTjCb2SOauoFXzVlSqX6K/MaurOXOIBfKdPH4lCaB35kAfm4FfVpyqc7MQmpbBkFyrdrT3syUtlQZCfv2G0r3eYr2I5Hesx/8lJZIQW+Kd1fd+K6IJI9axJckCFKYIOmkSpeWfcsqnfkfvmyZJgtDUEydme2tNExNCWzVi++Kllsq5+da6zIIUsycdypqMqn8fRMroeyNXdGSQJV9l+roufDwi6tLF6mKBtWStStXkNzU4UdWn4IgWfBt3Dgd5fYdR4ocB3r/2hUcylKpSl9lne71kUQ5BtyOgIMghaZCMqKOZrv7Di2r9osvRx7Q6UuiY/Duckv7kZ296sMHQfLstqF1j1er/qaALW0mlyq7faEhL1xN2pOoOGl3435GEwvf9igu1rcgSAEok2/VzT3uIyeS7JajK/DG6aowsxc3l4qndxCQi/2DSOr/i0oQpACcZqYLLmWOb4vuOZRQTce6IYUQSOXmPtOTMOI4kucWes0GNUGQAoiamVKZdr1yD51SmYACMA5WYWaHND8+V3QafJTkfoOVDHwwCDIQqJUeS5tH1fhri9xHdo8b8kxwV2iebtyvberD79p6RN7cDyDZtUVWJ4IgWfDdce/x9OYU5W87ap5H8lWZqqP5HATMTCX05A7flqNIKvS6mARBMqE0MxmpXcVXXrmKRVG0XIgTAg3uKnmtS9d2ksBzSB5f8pVBkEw0zexdAA5qqakueVomRG7NzUzZMtuJ6t5DspunK+v9QZAs+O5YYt3UKQh6epMg+6RMtdF8AAI9d083Nbfq80ILBmjd+JEgyKoh27iBmclZTgVCZ3IYSfljhTgjkDLNt7FWcFm3fklWL4IgWfDd8QXRPUc7Gm43kjrFCnFGwMwUXKXTrJnc3hQXbe9JsnsQBMmEsFu0VEUvm43if2SqjeYDEEg1FDfCunSodRBkgCHmPdJDkC1qiSHPhMa9eQqs2shTIQiyAuxrVX56rd7rPvvWyQu88Y8vSOZE8DZQZveqb+6NfxAkcwp5Gyize9U398Y/CJI5hbwNlNm96pt74x8EyZxC3gbK7F71zb3xD4JkTiFvA2V2r/rm3vgHQTKnkLeBMrtXfXNv/IMgmVPI20CZ3au+uTf+QZDMKeRtoMzuVd/cG393ggDYbBGRdd5ArTTT1uq91c/8gQP0xn8RBLkHSVV/chVvoIIgruYbrdzb7osgyEIqPXkDFQQZPYddG3rb3YMg3VqByiqoAo2u4g1UEMTVfKOVe9vdgyDdarOuuVNnyHoDFQQZPYddG3rb3YMg1zRFYR7ZQuVcku2kBi6AeQMVBHExW7ZSb7t7EOQSAEe2Rn49yXlltbJBkgJvoIIgRcxUXIm33T0IcgKAbj7aXbyrAXkDFQQpPreLKPS2uwdBlIJTqTjb8jKSJxdBZAUl3kAFQTytN163t909CKIEBt8CsE1r2Nq47+AZiuoNVBBk/CT2bOlt9+IESfuBCwD8dgeY3yN5vhdY3kAFQbwsl6fX2+5eBFFheFV5bcs3VTzeo4ZDbNLzJtl6br0uCZImrCoBddPRF8+dOjOuN1DxBVlOGnnb3eULkgjyRABv7cCqFPVPIvm20nB7AxUEKW2xMvq87e5GkESSqwD8SgcKJfqS+8nny0B0pxZvoIIgJa1VTpe33b0JsguATwPYogPJjam4ZbGa4d5ABUHKTeqSmrzt7kqQ9MveV79Pf/oCgMeRVPHLbPEGKgiSbSIXBd52dydIIknX/WQGlk62jiD5vlz0vIEKguRayKe9t90XRZC7A3gHgEf3wKSKTGfqfzkXid5ABUF8JniuVm+7L4Qg6SuiGho61WpXBGrjcwMA1cC+fEyIrjdQQZDcqezT3tvuCyNIIsmWTX3rNwF48hy4/rWp8fea5lLxYpLfHQprF6jmi7T5ImqUexto6Pin+pw3/gslSCKJ3nkigNM6BRi7NlZae0UiXg1AheM/1xTL/DaA7/dN/B6C3I+kfMJcxdtArp2vQLk3/gsnyMwmZrYPAPlsPcLJTnuT/JST7g1qvQ3k3f/1rt8b/zUjSPqayPP3WQBe0imEWcJuxWtm93XK20AlgKhZhzf+a0qQ1tfkbgCeAuCYdPPervk31r6vIvm8sY2HtvM20NB+TPU5b/yXgiBt45rZvQAc2Ow9fgnArvIATrEl+ncRaahcS3L3oQ+Pfc7bQGP7NZV23vgvHUHGGtbMtPE/o9N+R5JfHKtzSDtvAw3pw5Sf8ca/JoLoi/P+zmQ5heRLPSeQt4E8+16Dbm/8ayKI9i3fAaALyZl8FcBDSOq23kW8DeTS6YqUeuNfDUFkczP7m3Qq1p4Cx5DUv7uIt4FcOl2RUm/8ayOIfL26jo9fam7vH5bj5zVvPnkbqKK57DIUb/yrIkj6iij+5OEda5zaFJjXzX1x8TZQ8Q5XptAb/xoJcjiASzvz4EcA9iEpl5Wi4m2gop2tUJk3/jUSRGP6eOM5vHdnPsiXa1+SPyg5T7wNVLKvNeryxr86gqRl1r4pu+NmnUkhd/tDSP641GTxNlCpftaqxxv/KgmSSHIWgBf2TIyL5NLSpEK9vcSk8TZQiT7WrMMb/5oJsnkT8/5B7T16JohiUlS3RHuTLPE2UFbnJtDYG/9qCZK+Ig9M+5Hte+aKyHM4yW/kzCNvA+X0bQptvfGvmiCJJDryfS+ArXsmjAKwlDP48rGTydtAY/s1lXbe+FdPkESSvZpkdUpid58VJs7bAfwpSYX7rkq8DbSqzkzwYW/8J0GQRBIlsftHADuuMI+UFlV/P09kGnrS5W2gCc75VQ3ZG//JECSRRMss+WUpOGueKD2qvjgfSPHwclf5T5I/7DbqGgjAXYeSa1UzIR7+CQTMTA6qyl2wQRqPiaJzuqiy9WJDM1OY79lzllw5Q9mG5PdyFETbYQiYmZbM8uAOggyDbPhTZqYKWC9qqmEpNepWw1tu8sldSX52k0/FA9kImNluANr7xttJ3iVbcZtwJZWtR11mdm8AxwJ4NoAS1Xh1U3/lesRivfXZzJ6qRIOtft9K8p4lxzHJJdZKAJqZ4t8PAvALKR7+wSkeXpeOQ+WlTWbIU4Y+HM+NR6DZg5yesnHOlNxE8qHjNf5kyyBIJppmpjuWx7TUvJ9k+78z3xDN5/ygqcyfyv3N5N0k9QNXTIIgmVCa2avTPmamSeG925HUSViIEwJmdl8AX+9k5yye6ikIkmlAMzsKgBwg23IcyXMzVUfzOQiYmXKevbLzyDNIXlwSuCBIJppmdv+m5PXXOmquI6kTlhAHBMxM8/Z6hVK31Ouid3uSqjlTTIIgBaA0MyXZ1sa+LYeSfEsB9aGig4CZPa05cbys888fJnlAabCCIAUQNbPjAJzTUaW7kD08Uw4V6Pq6U2FmOlG8FsDOnc7L6fT80gMKghRA1Mx09v6VTk4uaX4xSVXPCimEgJmdnEpntDXKc+FBJG8t9JoNaoIghRDtOZOXZgVkHUDyk4VeM2k1ZqZlrPzjujmaT2tcsE71ACcIUghVM1NGR9V+37aj8svan5AsVvK6UJfXlZp0GPIxAAqCa4s25TuXTsYxe0EQpOA0MbOjm1Snr+9RqVxdjw0nxnFgJ785Xcju0aOh+NFu+x1BkHE2W7GVmV2hzCkrkOQJ8SVZHeDpy6GAtj5yXEZSedDcJAhSGFozU8zJJwDs1KNay63DYk8yDPS053hzz7JKClQVWckAbxmmbdxTQZBxuM1tlZwelRSiux9RO23cVZLhLxdRhddheO4q01HuCQBOUgBazwtVnHV/kjd6dyYI4oRws9RSsoh3rkASvVWZHhWPcuWYuvBO3V5TtemG/LCmhLeOxrv3HLO+iRwHe6SR7Rt8EMRxSqQvieLc+5Zbszdfl+LgLyW5UXScY9eWSnVyPDxSGWY67iPdfmpZ9WuL+HLMXhwEcZ4qaU9y4Qob9/bblQ71IylF0TVpja2cXbfUchufYsh1HK48ZYq92VOne8lNZ1ORgNqLPMd7z9GdDkEQZ4LM1Kcj4JfPWXItqCfr7jW653h+aS/doSgEQYYiVeC5dJn4xwCOB6CqvSErIyD3Ebmzn+11CTgE/CDIEJQKP5NKXT8TgGJJ5D4RdrgTY7msa5n5hmbf9kYP36rVmjIMs1rECj9vZlqPz+LglTRih7QM27I5Du6Wbyj89jVTp8z6twFQ6tebAOigQiEDV5eO58gdYRAkF8FoXzUCQZCqzRuDy0UgCJKLYLSvGoEgSNXmjcHlIhAEyUUw2leNQBCkavPG4HIRCILkIhjtq0YgCFK1eWNwuQgEQXIRjPZVIxAEqdq8MbhcBIIguQhG+6oRCIJUbd4YXC4CQZBcBKN91QgEQao2bwwuF4EgSC6C0b5qBIIgVZs3BpeLQBAkF8FoXzUCQZCqzRuDy0UgCJKLYLSvGoEgSNXmjcHlIhAEyUUw2leNQBCkavPG4HIRCILkIhjtq0YgCFK1eWNwuQgEQXIRjPZVIxAEqdq8MbhcBIIguQhG+6oRCIJUbd4YXC4CQZBcBKN91QgEQao2bwwuF4H/B2sx+zLTXFKAAAAAAElFTkSuQmCC;" parent="1" vertex="1">
          <mxGeometry x="517" y="560" width="66.32" height="66.32" as="geometry" />
        </mxCell>
      </root>
    </mxGraphModel>
  </diagram>
</mxfile>
